<svg width="198" height="42" viewBox="0 0 198 42" fill="none" xmlns="http://www.w3.org/2000/svg">
<g filter="url(#filter0_i_106_97)">
<path d="M24.9802 6H195.11C195.95 6.85 196.42 7.32 197.27 8.16V33.72L195.11 35.88H100.36H24.9902L20.2002 31.1V10.78L24.9802 6Z" fill="url(#paint0_linear_106_97)"/>
</g>
<g filter="url(#filter1_di_106_97)">
<path d="M86.8901 6H91.1501V21.55L100.3 31.55H106.69L108.97 33.84H118.33L121.71 35.84H86.8901L85.1201 34.06V7.78L86.8901 6Z" fill="url(#paint1_linear_106_97)"/>
</g>
<path d="M93.35 33.32C94.5098 33.32 95.45 32.3798 95.45 31.22C95.45 30.0602 94.5098 29.12 93.35 29.12C92.1902 29.12 91.25 30.0602 91.25 31.22C91.25 32.3798 92.1902 33.32 93.35 33.32Z" fill="url(#paint2_linear_106_97)"/>
<path d="M93.3502 32.87C94.2615 32.87 95.0002 32.1312 95.0002 31.2199C95.0002 30.3087 94.2615 29.5699 93.3502 29.5699C92.4389 29.5699 91.7002 30.3087 91.7002 31.2199C91.7002 32.1312 92.4389 32.87 93.3502 32.87Z" fill="url(#paint3_radial_106_97)"/>
<path d="M93.3501 31.7299C93.6318 31.7299 93.8601 31.5016 93.8601 31.2199C93.8601 30.9383 93.6318 30.71 93.3501 30.71C93.0684 30.71 92.8401 30.9383 92.8401 31.2199C92.8401 31.5016 93.0684 31.7299 93.3501 31.7299Z" fill="url(#paint4_linear_106_97)"/>
<path d="M92.5699 31.22C92.5575 31.3292 92.5683 31.4398 92.6016 31.5445C92.6349 31.6492 92.6899 31.7457 92.7631 31.8276C92.8362 31.9096 92.9259 31.9752 93.0262 32.0201C93.1264 32.065 93.2351 32.0882 93.3449 32.0882C93.4548 32.0882 93.5634 32.065 93.6637 32.0201C93.764 31.9752 93.8536 31.9096 93.9268 31.8276C94 31.7457 94.055 31.6492 94.0883 31.5445C94.1216 31.4398 94.1324 31.3292 94.1199 31.22C94.0983 31.0297 94.0073 30.8539 93.8644 30.7263C93.7214 30.5987 93.5365 30.5282 93.3449 30.5282C93.1533 30.5282 92.9684 30.5987 92.8255 30.7263C92.6826 30.8539 92.5916 31.0297 92.5699 31.22ZM92.8399 31.22C92.8399 31.1192 92.8698 31.0205 92.9259 30.9367C92.9819 30.8528 93.0616 30.7874 93.1548 30.7488C93.248 30.7102 93.3505 30.7001 93.4494 30.7198C93.5484 30.7395 93.6392 30.7881 93.7106 30.8594C93.7819 30.9307 93.8305 31.0216 93.8501 31.1205C93.8698 31.2194 93.8597 31.322 93.8211 31.4152C93.7825 31.5084 93.7172 31.588 93.6333 31.6441C93.5494 31.7001 93.4508 31.73 93.3499 31.73C93.2147 31.73 93.085 31.6763 92.9893 31.5807C92.8937 31.485 92.8399 31.3553 92.8399 31.22Z" fill="url(#paint5_linear_106_97)"/>
<g filter="url(#filter2_i_106_97)">
<path d="M195.49 35.88H191.24V20.37L182.05 10.3H175.67L173.38 8.01001H164.02L160.64 6.01001H195.49C196.18 6.71001 196.57 7.09001 197.27 7.79001V34.11L195.49 35.88Z" fill="url(#paint6_linear_106_97)"/>
</g>
<path d="M193.34 11.56C194.296 11.56 195.07 10.7854 195.07 9.82999C195.07 8.87453 194.296 8.09998 193.34 8.09998C192.385 8.09998 191.61 8.87453 191.61 9.82999C191.61 10.7854 192.385 11.56 193.34 11.56Z" fill="url(#paint7_linear_106_97)"/>
<path d="M193.34 11.19C194.092 11.19 194.7 10.5811 194.7 9.82999C194.7 9.07888 194.092 8.46997 193.34 8.46997C192.589 8.46997 191.98 9.07888 191.98 9.82999C191.98 10.5811 192.589 11.19 193.34 11.19Z" fill="url(#paint8_radial_106_97)"/>
<path d="M193.34 10.25C193.572 10.25 193.76 10.0619 193.76 9.82999C193.76 9.59803 193.572 9.40997 193.34 9.40997C193.108 9.40997 192.92 9.59803 192.92 9.82999C192.92 10.0619 193.108 10.25 193.34 10.25Z" fill="url(#paint9_linear_106_97)"/>
<path d="M192.7 9.82996C192.698 9.95694 192.734 10.0816 192.803 10.1882C192.872 10.2948 192.972 10.3783 193.088 10.4283C193.205 10.4783 193.334 10.4924 193.459 10.4689C193.584 10.4453 193.699 10.3851 193.789 10.2961C193.88 10.207 193.942 10.0929 193.967 9.96854C193.993 9.84412 193.981 9.71494 193.932 9.59741C193.884 9.47988 193.802 9.37932 193.697 9.30855C193.591 9.23777 193.467 9.19997 193.34 9.19995C193.172 9.19993 193.011 9.266 192.891 9.38387C192.771 9.50173 192.703 9.66196 192.7 9.82996ZM192.92 9.82996C192.92 9.71857 192.965 9.61174 193.043 9.53297C193.122 9.45421 193.229 9.40996 193.34 9.40996C193.452 9.40996 193.559 9.45421 193.637 9.53297C193.716 9.61174 193.76 9.71857 193.76 9.82996C193.76 9.94135 193.716 10.0482 193.637 10.1269C193.559 10.2057 193.452 10.25 193.34 10.25C193.229 10.25 193.122 10.2057 193.043 10.1269C192.965 10.0482 192.92 9.94135 192.92 9.82996Z" fill="url(#paint10_linear_106_97)"/>
<g filter="url(#filter3_di_106_97)">
<path d="M83.36 35.84H80.73V6H83.36C83.8559 6 84.3316 6.19702 84.6823 6.54771C85.033 6.89841 85.23 7.37406 85.23 7.87001V33.97C85.23 34.466 85.033 34.9416 84.6823 35.2923C84.3316 35.643 83.8559 35.84 83.36 35.84Z" fill="url(#paint11_linear_106_97)"/>
</g>
<g filter="url(#filter4_i_106_97)">
<path d="M80.44 35.84H24.99L20.2 31.06L0 10.79L4.78 6H80.44C80.7481 6 81.0532 6.06086 81.3378 6.17908C81.6224 6.2973 81.8808 6.47055 82.0982 6.6889C82.3156 6.90725 82.4877 7.16639 82.6048 7.45145C82.7218 7.7365 82.7813 8.04187 82.78 8.35001V33.55C82.7669 34.1619 82.5146 34.7443 82.0772 35.1724C81.6398 35.6005 81.052 35.8402 80.44 35.84Z" fill="url(#paint12_linear_106_97)"/>
</g>
<defs>
<filter id="filter0_i_106_97" x="20.2002" y="6" width="177.07" height="29.88" filterUnits="userSpaceOnUse" color-interpolation-filters="sRGB">
<feFlood flood-opacity="0" result="BackgroundImageFix"/>
<feBlend mode="normal" in="SourceGraphic" in2="BackgroundImageFix" result="shape"/>
<feColorMatrix in="SourceAlpha" type="matrix" values="0 0 0 0 0 0 0 0 0 0 0 0 0 0 0 0 0 0 127 0" result="hardAlpha"/>
<feOffset/>
<feGaussianBlur stdDeviation="3"/>
<feComposite in2="hardAlpha" operator="arithmetic" k2="-1" k3="1"/>
<feColorMatrix type="matrix" values="0 0 0 0 0.227451 0 0 0 0 0.913725 0 0 0 0 0.596078 0 0 0 1 0"/>
<feBlend mode="normal" in2="shape" result="effect1_innerShadow_106_97"/>
</filter>
<filter id="filter1_di_106_97" x="79.1201" y="0" width="48.5901" height="41.84" filterUnits="userSpaceOnUse" color-interpolation-filters="sRGB">
<feFlood flood-opacity="0" result="BackgroundImageFix"/>
<feColorMatrix in="SourceAlpha" type="matrix" values="0 0 0 0 0 0 0 0 0 0 0 0 0 0 0 0 0 0 127 0" result="hardAlpha"/>
<feOffset/>
<feGaussianBlur stdDeviation="3"/>
<feComposite in2="hardAlpha" operator="out"/>
<feColorMatrix type="matrix" values="0 0 0 0 0 0 0 0 0 0 0 0 0 0 0 0 0 0 1 0"/>
<feBlend mode="normal" in2="BackgroundImageFix" result="effect1_dropShadow_106_97"/>
<feBlend mode="normal" in="SourceGraphic" in2="effect1_dropShadow_106_97" result="shape"/>
<feColorMatrix in="SourceAlpha" type="matrix" values="0 0 0 0 0 0 0 0 0 0 0 0 0 0 0 0 0 0 127 0" result="hardAlpha"/>
<feOffset/>
<feGaussianBlur stdDeviation="1"/>
<feComposite in2="hardAlpha" operator="arithmetic" k2="-1" k3="1"/>
<feColorMatrix type="matrix" values="0 0 0 0 1 0 0 0 0 1 0 0 0 0 1 0 0 0 1 0"/>
<feBlend mode="normal" in2="shape" result="effect2_innerShadow_106_97"/>
</filter>
<filter id="filter2_i_106_97" x="160.64" y="6.01001" width="36.6299" height="29.87" filterUnits="userSpaceOnUse" color-interpolation-filters="sRGB">
<feFlood flood-opacity="0" result="BackgroundImageFix"/>
<feBlend mode="normal" in="SourceGraphic" in2="BackgroundImageFix" result="shape"/>
<feColorMatrix in="SourceAlpha" type="matrix" values="0 0 0 0 0 0 0 0 0 0 0 0 0 0 0 0 0 0 127 0" result="hardAlpha"/>
<feOffset/>
<feGaussianBlur stdDeviation="1"/>
<feComposite in2="hardAlpha" operator="arithmetic" k2="-1" k3="1"/>
<feColorMatrix type="matrix" values="0 0 0 0 1 0 0 0 0 1 0 0 0 0 1 0 0 0 1 0"/>
<feBlend mode="normal" in2="shape" result="effect1_innerShadow_106_97"/>
</filter>
<filter id="filter3_di_106_97" x="74.73" y="0" width="16.5" height="41.84" filterUnits="userSpaceOnUse" color-interpolation-filters="sRGB">
<feFlood flood-opacity="0" result="BackgroundImageFix"/>
<feColorMatrix in="SourceAlpha" type="matrix" values="0 0 0 0 0 0 0 0 0 0 0 0 0 0 0 0 0 0 127 0" result="hardAlpha"/>
<feOffset/>
<feGaussianBlur stdDeviation="3"/>
<feComposite in2="hardAlpha" operator="out"/>
<feColorMatrix type="matrix" values="0 0 0 0 0 0 0 0 0 0 0 0 0 0 0 0 0 0 1 0"/>
<feBlend mode="normal" in2="BackgroundImageFix" result="effect1_dropShadow_106_97"/>
<feBlend mode="normal" in="SourceGraphic" in2="effect1_dropShadow_106_97" result="shape"/>
<feColorMatrix in="SourceAlpha" type="matrix" values="0 0 0 0 0 0 0 0 0 0 0 0 0 0 0 0 0 0 127 0" result="hardAlpha"/>
<feOffset/>
<feGaussianBlur stdDeviation="1"/>
<feComposite in2="hardAlpha" operator="arithmetic" k2="-1" k3="1"/>
<feColorMatrix type="matrix" values="0 0 0 0 1 0 0 0 0 1 0 0 0 0 1 0 0 0 1 0"/>
<feBlend mode="normal" in2="shape" result="effect2_innerShadow_106_97"/>
</filter>
<filter id="filter4_i_106_97" x="0" y="6" width="82.78" height="29.84" filterUnits="userSpaceOnUse" color-interpolation-filters="sRGB">
<feFlood flood-opacity="0" result="BackgroundImageFix"/>
<feBlend mode="normal" in="SourceGraphic" in2="BackgroundImageFix" result="shape"/>
<feColorMatrix in="SourceAlpha" type="matrix" values="0 0 0 0 0 0 0 0 0 0 0 0 0 0 0 0 0 0 127 0" result="hardAlpha"/>
<feOffset/>
<feGaussianBlur stdDeviation="1"/>
<feComposite in2="hardAlpha" operator="arithmetic" k2="-1" k3="1"/>
<feColorMatrix type="matrix" values="0 0 0 0 1 0 0 0 0 1 0 0 0 0 1 0 0 0 1 0"/>
<feBlend mode="normal" in2="shape" result="effect1_innerShadow_106_97"/>
</filter>
<linearGradient id="paint0_linear_106_97" x1="243.29" y1="147.77" x2="76.1703" y2="-11.3301" gradientUnits="userSpaceOnUse">
<stop stop-opacity="0.6"/>
<stop offset="1" stop-opacity="0.6"/>
</linearGradient>
<linearGradient id="paint1_linear_106_97" x1="103.43" y1="35.88" x2="103.43" y2="6" gradientUnits="userSpaceOnUse">
<stop offset="0.15" stop-color="#2A2F32"/>
<stop offset="0.83" stop-color="#3E4346"/>
</linearGradient>
<linearGradient id="paint2_linear_106_97" x1="93.34" y1="33.32" x2="93.34" y2="29.12" gradientUnits="userSpaceOnUse">
<stop stop-color="#7E7E7E"/>
<stop offset="0.75"/>
</linearGradient>
<radialGradient id="paint3_radial_106_97" cx="0" cy="0" r="1" gradientUnits="userSpaceOnUse" gradientTransform="translate(93.3402 31.22) scale(1.65 1.65001)">
<stop stop-color="#454545"/>
<stop offset="0.27" stop-color="#222222"/>
<stop offset="0.47" stop-color="#0D0D0D"/>
<stop offset="0.5" stop-color="#1B1B1B"/>
<stop offset="0.56" stop-color="#373737"/>
<stop offset="0.63" stop-color="#4C4C4C"/>
<stop offset="0.7" stop-color="#585858"/>
<stop offset="0.77" stop-color="#5C5C5C"/>
<stop offset="0.89" stop-color="#1A1A1A"/>
<stop offset="0.95"/>
</radialGradient>
<linearGradient id="paint4_linear_106_97" x1="93.3401" y1="31.7299" x2="93.3401" y2="30.71" gradientUnits="userSpaceOnUse">
<stop offset="0.43" stop-color="#363636"/>
<stop offset="0.76" stop-color="#232323"/>
<stop offset="1" stop-color="#1A1A1A"/>
</linearGradient>
<linearGradient id="paint5_linear_106_97" x1="93.3399" y1="32" x2="93.3399" y2="30.45" gradientUnits="userSpaceOnUse">
<stop stop-color="#363636"/>
<stop offset="0.28" stop-color="#232323"/>
<stop offset="0.5" stop-color="#1A1A1A"/>
<stop offset="1"/>
</linearGradient>
<linearGradient id="paint6_linear_106_97" x1="178.95" y1="6.00001" x2="178.95" y2="35.87" gradientUnits="userSpaceOnUse">
<stop offset="0.17" stop-color="#3E4346"/>
<stop offset="0.85" stop-color="#2A2F32"/>
</linearGradient>
<linearGradient id="paint7_linear_106_97" x1="193.34" y1="11.56" x2="193.34" y2="8.10998" gradientUnits="userSpaceOnUse">
<stop stop-color="#7E7E7E"/>
<stop offset="0.75"/>
</linearGradient>
<radialGradient id="paint8_radial_106_97" cx="0" cy="0" r="1" gradientUnits="userSpaceOnUse" gradientTransform="translate(193.34 9.83997) scale(1.36)">
<stop stop-color="#454545"/>
<stop offset="0.27" stop-color="#222222"/>
<stop offset="0.47" stop-color="#0D0D0D"/>
<stop offset="0.5" stop-color="#1B1B1B"/>
<stop offset="0.56" stop-color="#373737"/>
<stop offset="0.63" stop-color="#4C4C4C"/>
<stop offset="0.7" stop-color="#585858"/>
<stop offset="0.77" stop-color="#5C5C5C"/>
<stop offset="0.89" stop-color="#1A1A1A"/>
<stop offset="0.95"/>
</radialGradient>
<linearGradient id="paint9_linear_106_97" x1="193.34" y1="10.26" x2="193.34" y2="9.41997" gradientUnits="userSpaceOnUse">
<stop offset="0.43" stop-color="#363636"/>
<stop offset="0.76" stop-color="#232323"/>
<stop offset="1" stop-color="#1A1A1A"/>
</linearGradient>
<linearGradient id="paint10_linear_106_97" x1="193.34" y1="10.47" x2="193.34" y2="9.19995" gradientUnits="userSpaceOnUse">
<stop stop-color="#363636"/>
<stop offset="0.28" stop-color="#232323"/>
<stop offset="0.5" stop-color="#1A1A1A"/>
<stop offset="1"/>
</linearGradient>
<linearGradient id="paint11_linear_106_97" x1="82.98" y1="35.84" x2="82.98" y2="6" gradientUnits="userSpaceOnUse">
<stop offset="0.15" stop-color="#2A2F32"/>
<stop offset="0.88" stop-color="#595D60"/>
</linearGradient>
<linearGradient id="paint12_linear_106_97" x1="41.39" y1="35.84" x2="41.39" y2="6" gradientUnits="userSpaceOnUse">
<stop offset="0.15" stop-color="#2A2F32"/>
<stop offset="0.83" stop-color="#3E4346"/>
</linearGradient>
</defs>
</svg>
