<svg width="161" height="151" viewBox="0 0 161 151" fill="none" xmlns="http://www.w3.org/2000/svg">
<g filter="url(#filter0_d_106_60)">
<path d="M52.1299 147.18C37.656 141.539 25.2222 131.66 16.4561 118.836C7.69 106.011 3 90.8392 3 75.305C3 59.7708 7.69 44.5985 16.4561 31.7741C25.2222 18.9496 37.656 9.07057 52.1299 3.43L53.2299 3L59.7399 9.33L62.1499 8.64C73.8801 5.49985 86.2298 5.49985 97.9599 8.64H98.0199L98.6199 8.82L100.44 9.33L106.98 3L108.08 3.43C122.554 9.07057 134.988 18.9496 143.754 31.7741C152.52 44.5985 157.21 59.7708 157.21 75.305C157.21 90.8392 152.52 106.011 143.754 118.836C134.988 131.66 122.554 141.539 108.08 147.18L106.98 147.61L100.44 141.28L98.6099 141.79L97.9599 141.98C86.2509 145.1 73.929 145.1 62.2199 141.98L61.5699 141.79L59.7499 141.28L53.2099 147.61L52.1299 147.18ZM51.7399 7.57C38.3976 13.1704 27.0063 22.5865 18.9956 34.6368C10.9848 46.6871 6.71127 60.8349 6.71127 75.305C6.71127 89.7751 10.9848 103.923 18.9956 115.973C27.0063 128.024 38.3976 137.44 51.7399 143.04L52.4099 143.32L58.7599 137.17L62.6199 138.25L63.2399 138.43C74.3148 141.37 85.965 141.37 97.0399 138.43L97.6799 138.24L101.55 137.16L107.9 143.31L108.57 143.03C121.909 137.426 133.296 128.009 141.303 115.959C149.311 103.909 153.583 89.763 153.583 75.295C153.583 60.827 149.311 46.6811 141.303 34.6312C133.296 22.5813 121.909 13.1639 108.57 7.56L107.9 7.28L101.55 13.42L97.6899 12.35L97.0699 12.17C85.9841 9.21005 74.3158 9.21005 63.2299 12.17L62.6199 12.35L58.7399 13.43L52.3799 7.28L51.7399 7.57Z" fill="#3AE998"/>
</g>
<defs>
<filter id="filter0_d_106_60" x="0" y="0" width="160.21" height="150.61" filterUnits="userSpaceOnUse" color-interpolation-filters="sRGB">
<feFlood flood-opacity="0" result="BackgroundImageFix"/>
<feColorMatrix in="SourceAlpha" type="matrix" values="0 0 0 0 0 0 0 0 0 0 0 0 0 0 0 0 0 0 127 0" result="hardAlpha"/>
<feOffset/>
<feGaussianBlur stdDeviation="1.5"/>
<feComposite in2="hardAlpha" operator="out"/>
<feColorMatrix type="matrix" values="0 0 0 0 0.227451 0 0 0 0 0.913725 0 0 0 0 0.596078 0 0 0 1 0"/>
<feBlend mode="normal" in2="BackgroundImageFix" result="effect1_dropShadow_106_60"/>
<feBlend mode="normal" in="SourceGraphic" in2="effect1_dropShadow_106_60" result="shape"/>
</filter>
</defs>
</svg>
