<svg width="107" height="42" viewBox="0 0 107 42" fill="none" xmlns="http://www.w3.org/2000/svg">
<g filter="url(#filter0_i_106_199)">
<path d="M22.57 8.14001H105.07L106.89 9.96001V31.59L105.09 33.43H22.57L20.75 31.6V9.96001L22.57 8.14001Z" fill="url(#paint0_linear_106_199)"/>
</g>
<g filter="url(#filter1_i_106_199)">
<path d="M22.3501 8.14001H42.9501V21.26L50.7201 29.79H56.1301L58.0601 31.72H65.9801L68.8401 33.42H22.3501L20.8501 31.92V9.64001L22.3501 8.14001Z" fill="url(#paint1_linear_106_199)"/>
</g>
<path d="M44.8098 31.26C45.7928 31.26 46.5898 30.4631 46.5898 29.48C46.5898 28.4969 45.7928 27.7 44.8098 27.7C43.8267 27.7 43.0298 28.4969 43.0298 29.48C43.0298 30.4631 43.8267 31.26 44.8098 31.26Z" fill="url(#paint2_linear_106_199)"/>
<path d="M44.8101 30.88C45.5833 30.88 46.2101 30.2532 46.2101 29.48C46.2101 28.7068 45.5833 28.08 44.8101 28.08C44.0369 28.08 43.4102 28.7068 43.4102 29.48C43.4102 30.2532 44.0369 30.88 44.8101 30.88Z" fill="url(#paint3_radial_106_199)"/>
<path d="M44.8099 29.91C45.0474 29.91 45.2399 29.7175 45.2399 29.48C45.2399 29.2425 45.0474 29.05 44.8099 29.05C44.5724 29.05 44.3799 29.2425 44.3799 29.48C44.3799 29.7175 44.5724 29.91 44.8099 29.91Z" fill="url(#paint4_linear_106_199)"/>
<path d="M44.1602 29.48C44.1601 29.6533 44.2283 29.8197 44.3499 29.9432C44.4715 30.0667 44.6368 30.1374 44.8101 30.14C44.9852 30.14 45.153 30.0705 45.2768 29.9467C45.4006 29.8229 45.4702 29.6551 45.4702 29.48C45.4702 29.305 45.4006 29.1371 45.2768 29.0133C45.153 28.8895 44.9852 28.82 44.8101 28.82C44.6368 28.8226 44.4715 28.8933 44.3499 29.0168C44.2283 29.1403 44.1601 29.3067 44.1602 29.48ZM44.3801 29.48C44.3801 29.395 44.4053 29.3118 44.4526 29.2411C44.4998 29.1704 44.567 29.1153 44.6456 29.0827C44.7241 29.0502 44.8106 29.0417 44.894 29.0583C44.9775 29.0749 45.0541 29.1158 45.1142 29.1759C45.1743 29.2361 45.2153 29.3127 45.2319 29.3961C45.2485 29.4795 45.2399 29.566 45.2074 29.6446C45.1749 29.7231 45.1197 29.7903 45.049 29.8375C44.9783 29.8848 44.8952 29.91 44.8101 29.91C44.6961 29.91 44.5867 29.8647 44.5061 29.7841C44.4255 29.7034 44.3801 29.5941 44.3801 29.48Z" fill="url(#paint5_linear_106_199)"/>
<g filter="url(#filter2_i_106_199)">
<path d="M105.41 33.43H101.81V20.3L94.0399 11.77H88.6299L86.7 9.84001H78.78L75.9199 8.14001H105.41L106.91 9.64001V31.92L105.41 33.43Z" fill="url(#paint6_linear_106_199)"/>
</g>
<path d="M103.59 12.84C104.396 12.84 105.05 12.1863 105.05 11.38C105.05 10.5737 104.396 9.91998 103.59 9.91998C102.784 9.91998 102.13 10.5737 102.13 11.38C102.13 12.1863 102.784 12.84 103.59 12.84Z" fill="url(#paint7_linear_106_199)"/>
<path d="M103.59 12.53C104.225 12.53 104.74 12.0151 104.74 11.38C104.74 10.7448 104.225 10.23 103.59 10.23C102.955 10.23 102.44 10.7448 102.44 11.38C102.44 12.0151 102.955 12.53 103.59 12.53Z" fill="url(#paint8_radial_106_199)"/>
<path d="M103.59 11.73C103.783 11.73 103.94 11.5733 103.94 11.38C103.94 11.1867 103.783 11.03 103.59 11.03C103.396 11.03 103.24 11.1867 103.24 11.38C103.24 11.5733 103.396 11.73 103.59 11.73Z" fill="url(#paint9_linear_106_199)"/>
<path d="M103.05 11.43C103.05 11.5368 103.081 11.6412 103.141 11.73C103.2 11.8188 103.285 11.888 103.383 11.9289C103.482 11.9698 103.59 11.9805 103.695 11.9596C103.8 11.9388 103.896 11.8874 103.972 11.8118C104.047 11.7363 104.099 11.6401 104.119 11.5354C104.14 11.4306 104.13 11.322 104.089 11.2234C104.048 11.1247 103.979 11.0404 103.89 10.981C103.801 10.9217 103.697 10.89 103.59 10.89C103.447 10.89 103.309 10.9469 103.208 11.0482C103.107 11.1494 103.05 11.2868 103.05 11.43ZM103.23 11.43C103.23 11.3832 103.239 11.3368 103.257 11.2937C103.276 11.2506 103.302 11.2115 103.336 11.1789C103.369 11.1463 103.409 11.1207 103.453 11.1037C103.496 11.0867 103.543 11.0787 103.59 11.08C103.683 11.08 103.772 11.1169 103.837 11.1825C103.903 11.2482 103.94 11.3372 103.94 11.43C103.94 11.5228 103.903 11.6119 103.837 11.6775C103.772 11.7431 103.683 11.78 103.59 11.78C103.543 11.7814 103.496 11.7733 103.453 11.7563C103.409 11.7393 103.369 11.7137 103.336 11.6811C103.302 11.6485 103.276 11.6094 103.257 11.5663C103.239 11.5232 103.23 11.4768 103.23 11.43Z" fill="url(#paint10_linear_106_199)"/>
<path d="M20.7799 37.72C17.4294 37.72 14.1543 36.7264 11.3685 34.8651C8.58273 33.0037 6.41148 30.358 5.12934 27.2626C3.84719 24.1672 3.51171 20.7612 4.16535 17.4751C4.81898 14.1891 6.43235 11.1707 8.80146 8.80158C11.1706 6.43248 14.189 4.81911 17.475 4.16547C20.7611 3.51184 24.1671 3.8473 27.2625 5.12945C30.3579 6.4116 33.0036 8.58284 34.865 11.3686C36.7264 14.1544 37.7199 17.4296 37.7199 20.78C37.7041 25.2679 35.9142 29.5675 32.7408 32.7409C29.5673 35.9143 25.2678 37.7042 20.7799 37.72Z" fill="#0A0A0A"/>
<path d="M20.78 4.42998C24.0058 4.42998 27.1592 5.38655 29.8413 7.17871C32.5235 8.97088 34.614 11.5182 35.8485 14.4984C37.0829 17.4787 37.4059 20.7581 36.7766 23.9219C36.1472 27.0857 34.5939 29.9919 32.3129 32.2729C30.0319 34.5539 27.1257 36.1073 23.9619 36.7366C20.7981 37.3659 17.5187 37.0429 14.5384 35.8085C11.5582 34.574 9.01088 32.4835 7.21871 29.8013C5.42654 27.1192 4.46996 23.9658 4.46996 20.74C4.47525 16.4159 6.19532 12.2705 9.25289 9.21291C12.3105 6.15533 16.4559 4.43527 20.78 4.42998ZM20.78 3.16998C17.3049 3.16998 13.908 4.20044 11.0186 6.13106C8.12924 8.06167 5.87725 10.8057 4.54742 14.0162C3.21758 17.2267 2.86963 20.7595 3.54757 24.1677C4.22551 27.576 5.89889 30.7066 8.3561 33.1638C10.8133 35.6211 13.944 37.2944 17.3522 37.9724C20.7605 38.6503 24.2932 38.3024 27.5037 36.9725C30.7142 35.6427 33.4583 33.3907 35.3889 30.5013C37.3195 27.612 38.35 24.215 38.35 20.74C38.3447 16.0817 36.4918 11.6158 33.198 8.32196C29.9041 5.02809 25.4382 3.17528 20.78 3.16998Z" fill="#565656"/>
<g filter="url(#filter3_di_106_199)">
<path d="M20.78 35.56C28.9428 35.56 35.56 28.9428 35.56 20.78C35.56 12.6172 28.9428 6 20.78 6C12.6172 6 6 12.6172 6 20.78C6 28.9428 12.6172 35.56 20.78 35.56Z" fill="url(#paint11_linear_106_199)" shape-rendering="crispEdges"/>
</g>
<g filter="url(#filter4_i_106_199)">
<path d="M11.27 22.5C11.3255 22.3578 11.4286 22.2392 11.5617 22.1644C11.6948 22.0897 11.8497 22.0633 12 22.09H12.57L14.45 17.46L14.3 17.36C14.0678 17.2145 13.8763 17.0126 13.7434 16.773C13.6105 16.5334 13.5405 16.264 13.54 15.99C13.536 15.9174 13.5466 15.8448 13.5713 15.7764C13.596 15.7081 13.6342 15.6454 13.6837 15.5922C13.7332 15.539 13.7929 15.4963 13.8593 15.4667C13.9257 15.4371 13.9973 15.4212 14.07 15.42C14.1423 15.4159 14.2146 15.4262 14.2829 15.4501C14.3512 15.4741 14.414 15.5113 14.4679 15.5596C14.5218 15.6079 14.5656 15.6664 14.5969 15.7316C14.6281 15.7969 14.6462 15.8677 14.65 15.94C14.6508 16.0489 14.6813 16.1556 14.7381 16.2486C14.7949 16.3416 14.876 16.4173 14.9727 16.4677C15.0693 16.518 15.1778 16.5411 15.2866 16.5345C15.3953 16.5279 15.5002 16.4917 15.59 16.43C15.7497 16.3255 15.9033 16.212 16.05 16.09C16.4489 15.7594 16.9266 15.5378 17.4365 15.4467C17.9465 15.3555 18.4714 15.398 18.96 15.57C19.1797 15.6442 19.3908 15.7414 19.59 15.86C19.77 15.76 19.95 15.66 20.13 15.54C20.1527 15.5246 20.171 15.5036 20.1833 15.4791C20.1955 15.4546 20.2013 15.4274 20.2 15.4C20.1924 15.3716 20.1786 15.3451 20.1595 15.3227C20.1405 15.3002 20.1168 15.2822 20.09 15.27C19.7821 15.1428 19.521 14.9239 19.342 14.6429C19.1631 14.362 19.0751 14.0327 19.09 13.7C19.1041 13.4312 19.1757 13.1687 19.3 12.93C19.61 12.33 19.94 11.74 20.3 11.17C20.3493 11.0957 20.4161 11.0348 20.4947 10.9927C20.5732 10.9505 20.6609 10.9285 20.75 10.9285C20.8391 10.9285 20.9269 10.9505 21.0054 10.9927C21.0839 11.0348 21.1508 11.0957 21.2 11.17C21.6719 11.8055 22.0492 12.5062 22.32 13.25C22.4561 13.6291 22.4442 14.0457 22.2867 14.4164C22.1291 14.7872 21.8374 15.0848 21.47 15.25C21.34 15.31 21.27 15.38 21.32 15.5L21.94 15.88C22.3193 15.6334 22.7505 15.4781 23.1998 15.426C23.6491 15.374 24.1044 15.4267 24.53 15.58C24.864 15.7196 25.1824 15.8939 25.48 16.1C25.64 16.2 25.78 16.35 25.94 16.44C26.0289 16.5055 26.1344 16.5448 26.2445 16.5534C26.3547 16.5619 26.465 16.5394 26.5629 16.4883C26.6609 16.4373 26.7425 16.3597 26.7986 16.2646C26.8546 16.1694 26.8828 16.0604 26.88 15.95C26.8852 15.8059 26.9468 15.6696 27.0516 15.5704C27.1563 15.4713 27.2958 15.4173 27.44 15.42C27.5877 15.4252 27.7276 15.4875 27.8302 15.5938C27.9328 15.7002 27.9901 15.8422 27.99 15.99C27.9892 16.2664 27.9181 16.5381 27.7834 16.7795C27.6487 17.0209 27.4548 17.2241 27.22 17.37C27.1731 17.4078 27.1229 17.4412 27.07 17.47L27.52 18.57L28.88 21.93C28.94 22.06 29 22.11 29.14 22.1H29.64C29.722 22.0923 29.8047 22.1027 29.8823 22.1307C29.9598 22.1586 30.0302 22.2033 30.0884 22.2615C30.1467 22.3198 30.1914 22.3902 30.2193 22.4677C30.2473 22.5452 30.2577 22.6279 30.25 22.71C30.2343 23.3639 29.9894 23.9915 29.5581 24.4832C29.1267 24.9749 28.5363 25.2994 27.89 25.4H27.41H25.17C24.4508 25.3924 23.7628 25.1053 23.2515 24.5996C22.7401 24.0938 22.4455 23.409 22.43 22.69C22.4207 22.6072 22.43 22.5233 22.4572 22.4445C22.4844 22.3658 22.5289 22.2941 22.5873 22.2347C22.6458 22.1753 22.7167 22.1297 22.795 22.1012C22.8734 22.0727 22.9571 22.062 23.04 22.07H23.72L25.55 17.49L24.71 16.88C24.447 16.6877 24.1409 16.5626 23.8185 16.5155C23.4961 16.4684 23.167 16.5009 22.86 16.61C22.7324 16.6435 22.6197 16.7189 22.5399 16.824C22.4601 16.9292 22.4179 17.058 22.42 17.19C22.398 17.4902 22.2928 17.7783 22.1161 18.0221C21.9395 18.2659 21.6985 18.4556 21.42 18.57C21.33 18.57 21.28 18.64 21.28 18.76V26.58C21.28 26.58 21.28 26.63 21.28 26.65C21.5656 26.7573 21.8173 26.9391 22.0089 27.1765C22.2006 27.4138 22.3253 27.6982 22.37 28C22.37 28.07 22.37 28.14 22.37 28.22C22.37 28.2944 22.3848 28.368 22.4136 28.4366C22.4423 28.5052 22.4845 28.5674 22.5375 28.6195C22.5906 28.6717 22.6535 28.7127 22.7226 28.7402C22.7917 28.7678 22.8656 28.7813 22.94 28.78H23.94C24.079 28.7664 24.2183 28.8034 24.3322 28.8842C24.4461 28.9651 24.5269 29.0843 24.56 29.22C24.5861 29.3547 24.5618 29.4943 24.4917 29.6122C24.4217 29.7302 24.3107 29.8184 24.18 29.86H17.18C17.0498 29.8183 16.9399 29.7297 16.8715 29.6114C16.8031 29.4931 16.7811 29.3535 16.81 29.22C16.8411 29.0832 16.9216 28.9627 17.0359 28.8815C17.1503 28.8003 17.2906 28.7642 17.43 28.78H18.43C18.5074 28.7827 18.5845 28.7696 18.6566 28.7416C18.7288 28.7135 18.7945 28.6711 18.8497 28.6168C18.9049 28.5625 18.9485 28.4976 18.9778 28.4259C19.007 28.3543 19.0214 28.2774 19.02 28.2C19.0301 28.0587 19.0501 27.9184 19.08 27.78C19.1485 27.5274 19.2743 27.2939 19.4478 27.0979C19.6212 26.9019 19.8376 26.7486 20.08 26.65V18.65C19.7773 18.543 19.5127 18.3495 19.3189 18.0935C19.1252 17.8376 19.0108 17.5303 18.99 17.21C18.9899 17.0797 18.9466 16.9532 18.867 16.8501C18.7874 16.747 18.676 16.6731 18.55 16.64C18.264 16.5314 17.9564 16.492 17.6522 16.5251C17.3481 16.5581 17.0561 16.6626 16.8 16.83C16.48 17.04 16.18 17.28 15.86 17.51L15.92 17.68C16.48 19.07 17.04 20.45 17.58 21.84C17.66 22.04 17.76 22.12 17.97 22.09C18.1031 22.08 18.2368 22.08 18.37 22.09C18.452 22.0823 18.5348 22.0927 18.6123 22.1207C18.6898 22.1486 18.7602 22.1933 18.8185 22.2515C18.8767 22.3098 18.9214 22.3802 18.9493 22.4577C18.9772 22.5352 18.9877 22.618 18.98 22.7C18.9664 23.3994 18.6906 24.0681 18.2072 24.5738C17.7238 25.0794 17.0681 25.385 16.37 25.43H13.99C13.3748 25.4172 12.7813 25.1999 12.3033 24.8124C11.8252 24.4249 11.4898 23.8893 11.35 23.29C11.35 23.19 11.35 23.09 11.27 22.99V22.5ZM24.93 22.07H27.76L26.33 18.58L24.93 22.07ZM15.21 18.58L13.77 22.08H16.57L15.21 18.58Z" fill="url(#paint12_linear_106_199)"/>
</g>
<defs>
<filter id="filter0_i_106_199" x="20.75" y="8.14001" width="86.1401" height="25.29" filterUnits="userSpaceOnUse" color-interpolation-filters="sRGB">
<feFlood flood-opacity="0" result="BackgroundImageFix"/>
<feBlend mode="normal" in="SourceGraphic" in2="BackgroundImageFix" result="shape"/>
<feColorMatrix in="SourceAlpha" type="matrix" values="0 0 0 0 0 0 0 0 0 0 0 0 0 0 0 0 0 0 127 0" result="hardAlpha"/>
<feOffset/>
<feGaussianBlur stdDeviation="3"/>
<feComposite in2="hardAlpha" operator="arithmetic" k2="-1" k3="1"/>
<feColorMatrix type="matrix" values="0 0 0 0 0.227451 0 0 0 0 0.913725 0 0 0 0 0.596078 0 0 0 1 0"/>
<feBlend mode="normal" in2="shape" result="effect1_innerShadow_106_199"/>
</filter>
<filter id="filter1_i_106_199" x="20.8501" y="8.14001" width="47.9902" height="25.28" filterUnits="userSpaceOnUse" color-interpolation-filters="sRGB">
<feFlood flood-opacity="0" result="BackgroundImageFix"/>
<feBlend mode="normal" in="SourceGraphic" in2="BackgroundImageFix" result="shape"/>
<feColorMatrix in="SourceAlpha" type="matrix" values="0 0 0 0 0 0 0 0 0 0 0 0 0 0 0 0 0 0 127 0" result="hardAlpha"/>
<feOffset/>
<feGaussianBlur stdDeviation="1"/>
<feComposite in2="hardAlpha" operator="arithmetic" k2="-1" k3="1"/>
<feColorMatrix type="matrix" values="0 0 0 0 1 0 0 0 0 1 0 0 0 0 1 0 0 0 1 0"/>
<feBlend mode="normal" in2="shape" result="effect1_innerShadow_106_199"/>
</filter>
<filter id="filter2_i_106_199" x="75.9199" y="8.14001" width="30.9902" height="25.29" filterUnits="userSpaceOnUse" color-interpolation-filters="sRGB">
<feFlood flood-opacity="0" result="BackgroundImageFix"/>
<feBlend mode="normal" in="SourceGraphic" in2="BackgroundImageFix" result="shape"/>
<feColorMatrix in="SourceAlpha" type="matrix" values="0 0 0 0 0 0 0 0 0 0 0 0 0 0 0 0 0 0 127 0" result="hardAlpha"/>
<feOffset/>
<feGaussianBlur stdDeviation="1"/>
<feComposite in2="hardAlpha" operator="arithmetic" k2="-1" k3="1"/>
<feColorMatrix type="matrix" values="0 0 0 0 1 0 0 0 0 1 0 0 0 0 1 0 0 0 1 0"/>
<feBlend mode="normal" in2="shape" result="effect1_innerShadow_106_199"/>
</filter>
<filter id="filter3_di_106_199" x="0" y="0" width="41.5601" height="41.56" filterUnits="userSpaceOnUse" color-interpolation-filters="sRGB">
<feFlood flood-opacity="0" result="BackgroundImageFix"/>
<feColorMatrix in="SourceAlpha" type="matrix" values="0 0 0 0 0 0 0 0 0 0 0 0 0 0 0 0 0 0 127 0" result="hardAlpha"/>
<feOffset/>
<feGaussianBlur stdDeviation="3"/>
<feComposite in2="hardAlpha" operator="out"/>
<feColorMatrix type="matrix" values="0 0 0 0 0 0 0 0 0 0 0 0 0 0 0 0 0 0 1 0"/>
<feBlend mode="normal" in2="BackgroundImageFix" result="effect1_dropShadow_106_199"/>
<feBlend mode="normal" in="SourceGraphic" in2="effect1_dropShadow_106_199" result="shape"/>
<feColorMatrix in="SourceAlpha" type="matrix" values="0 0 0 0 0 0 0 0 0 0 0 0 0 0 0 0 0 0 127 0" result="hardAlpha"/>
<feOffset/>
<feGaussianBlur stdDeviation="2"/>
<feComposite in2="hardAlpha" operator="arithmetic" k2="-1" k3="1"/>
<feColorMatrix type="matrix" values="0 0 0 0 1 0 0 0 0 1 0 0 0 0 1 0 0 0 0.4 0"/>
<feBlend mode="normal" in2="shape" result="effect2_innerShadow_106_199"/>
</filter>
<filter id="filter4_i_106_199" x="11.27" y="10.9285" width="18.9824" height="18.9315" filterUnits="userSpaceOnUse" color-interpolation-filters="sRGB">
<feFlood flood-opacity="0" result="BackgroundImageFix"/>
<feBlend mode="normal" in="SourceGraphic" in2="BackgroundImageFix" result="shape"/>
<feColorMatrix in="SourceAlpha" type="matrix" values="0 0 0 0 0 0 0 0 0 0 0 0 0 0 0 0 0 0 127 0" result="hardAlpha"/>
<feOffset/>
<feGaussianBlur stdDeviation="2.5"/>
<feComposite in2="hardAlpha" operator="arithmetic" k2="-1" k3="1"/>
<feColorMatrix type="matrix" values="0 0 0 0 1 0 0 0 0 1 0 0 0 0 1 0 0 0 1 0"/>
<feBlend mode="normal" in2="shape" result="effect1_innerShadow_106_199"/>
</filter>
<linearGradient id="paint0_linear_106_199" x1="135.35" y1="88.87" x2="45.67" y2="3.48998" gradientUnits="userSpaceOnUse">
<stop offset="0.16" stop-opacity="0.6"/>
<stop offset="1" stop-opacity="0.6"/>
</linearGradient>
<linearGradient id="paint1_linear_106_199" x1="44.8501" y1="33.42" x2="44.8501" y2="8.14001" gradientUnits="userSpaceOnUse">
<stop offset="0.15" stop-color="#2A2F32"/>
<stop offset="0.83" stop-color="#3E4346"/>
</linearGradient>
<linearGradient id="paint2_linear_106_199" x1="44.8098" y1="31.26" x2="44.8098" y2="27.7" gradientUnits="userSpaceOnUse">
<stop stop-color="#7E7E7E"/>
<stop offset="0.75"/>
</linearGradient>
<radialGradient id="paint3_radial_106_199" cx="0" cy="0" r="1" gradientUnits="userSpaceOnUse" gradientTransform="translate(44.8102 29.48) scale(1.39999 1.4)">
<stop stop-color="#454545"/>
<stop offset="0.27" stop-color="#222222"/>
<stop offset="0.47" stop-color="#0D0D0D"/>
<stop offset="0.5" stop-color="#1B1B1B"/>
<stop offset="0.56" stop-color="#373737"/>
<stop offset="0.63" stop-color="#4C4C4C"/>
<stop offset="0.7" stop-color="#585858"/>
<stop offset="0.77" stop-color="#5C5C5C"/>
<stop offset="0.89" stop-color="#1A1A1A"/>
<stop offset="0.95"/>
</radialGradient>
<linearGradient id="paint4_linear_106_199" x1="44.8099" y1="29.91" x2="44.8099" y2="29.04" gradientUnits="userSpaceOnUse">
<stop offset="0.43" stop-color="#363636"/>
<stop offset="0.76" stop-color="#232323"/>
<stop offset="1" stop-color="#1A1A1A"/>
</linearGradient>
<linearGradient id="paint5_linear_106_199" x1="44.8102" y1="30.14" x2="44.8102" y2="28.82" gradientUnits="userSpaceOnUse">
<stop stop-color="#363636"/>
<stop offset="0.28" stop-color="#232323"/>
<stop offset="0.5" stop-color="#1A1A1A"/>
<stop offset="1"/>
</linearGradient>
<linearGradient id="paint6_linear_106_199" x1="91.4099" y1="8.14001" x2="91.4099" y2="33.42" gradientUnits="userSpaceOnUse">
<stop offset="0.17" stop-color="#3E4346"/>
<stop offset="0.85" stop-color="#2A2F32"/>
</linearGradient>
<linearGradient id="paint7_linear_106_199" x1="103.59" y1="12.84" x2="103.59" y2="9.91998" gradientUnits="userSpaceOnUse">
<stop stop-color="#7E7E7E"/>
<stop offset="0.75"/>
</linearGradient>
<radialGradient id="paint8_radial_106_199" cx="0" cy="0" r="1" gradientUnits="userSpaceOnUse" gradientTransform="translate(103.59 11.38) scale(1.14999)">
<stop stop-color="#454545"/>
<stop offset="0.27" stop-color="#222222"/>
<stop offset="0.47" stop-color="#0D0D0D"/>
<stop offset="0.5" stop-color="#1B1B1B"/>
<stop offset="0.56" stop-color="#373737"/>
<stop offset="0.63" stop-color="#4C4C4C"/>
<stop offset="0.7" stop-color="#585858"/>
<stop offset="0.77" stop-color="#5C5C5C"/>
<stop offset="0.89" stop-color="#1A1A1A"/>
<stop offset="0.95"/>
</radialGradient>
<linearGradient id="paint9_linear_106_199" x1="103.59" y1="11.74" x2="103.59" y2="11.03" gradientUnits="userSpaceOnUse">
<stop offset="0.43" stop-color="#363636"/>
<stop offset="0.76" stop-color="#232323"/>
<stop offset="1" stop-color="#1A1A1A"/>
</linearGradient>
<linearGradient id="paint10_linear_106_199" x1="103.59" y1="11.92" x2="103.59" y2="10.84" gradientUnits="userSpaceOnUse">
<stop stop-color="#363636"/>
<stop offset="0.28" stop-color="#232323"/>
<stop offset="0.5" stop-color="#1A1A1A"/>
<stop offset="1"/>
</linearGradient>
<linearGradient id="paint11_linear_106_199" x1="-6.56" y1="-5.25001" x2="27.73" y2="27.4" gradientUnits="userSpaceOnUse">
<stop offset="0.16" stop-opacity="0.2"/>
<stop offset="1" stop-opacity="0.2"/>
</linearGradient>
<linearGradient id="paint12_linear_106_199" x1="20.77" y1="29.91" x2="20.77" y2="10.92" gradientUnits="userSpaceOnUse">
<stop offset="0.15" stop-color="#2A2F32"/>
<stop offset="0.88" stop-color="#595D60"/>
</linearGradient>
</defs>
</svg>
