<svg width="60" height="274" viewBox="0 0 60 274" fill="none" xmlns="http://www.w3.org/2000/svg">
<g filter="url(#filter0_d_77_10391)">
<path d="M6.31982 17.26V256.21" stroke="#3AE998" stroke-miterlimit="10" stroke-linecap="round"/>
</g>
<g filter="url(#filter1_d_77_10391)">
<path d="M7.64 16H5V18.64H7.64V16Z" fill="#3AE998"/>
</g>
<g filter="url(#filter2_d_77_10391)">
<path d="M7.64 254.83H5V257.47H7.64V254.83Z" fill="#3AE998"/>
</g>
<g filter="url(#filter3_di_77_10391)">
<path d="M20.6701 233.24V183.53L32.0601 172.53V100.9L20.6701 89.9V40.22L38.3101 22.58L20.6701 6L11.8101 16V257.47L20.6701 267.47L38.3201 250.89C31.4201 244 27.5601 240.14 20.6701 233.24Z" fill="url(#paint0_linear_77_10391)"/>
</g>
<path d="M24.5501 27.55C27.2949 27.55 29.5201 25.3248 29.5201 22.58C29.5201 19.8351 27.2949 17.61 24.5501 17.61C21.8052 17.61 19.5801 19.8351 19.5801 22.58C19.5801 25.3248 21.8052 27.55 24.5501 27.55Z" fill="url(#paint1_linear_77_10391)"/>
<path d="M24.5501 26.4799C26.7041 26.4799 28.4501 24.7338 28.4501 22.5799C28.4501 20.426 26.7041 18.6799 24.5501 18.6799C22.3962 18.6799 20.6501 20.426 20.6501 22.5799C20.6501 24.7338 22.3962 26.4799 24.5501 26.4799Z" fill="url(#paint2_radial_77_10391)"/>
<path d="M24.5501 23.79C25.2184 23.79 25.7601 23.2483 25.7601 22.58C25.7601 21.9117 25.2184 21.37 24.5501 21.37C23.8818 21.37 23.3401 21.9117 23.3401 22.58C23.3401 23.2483 23.8818 23.79 24.5501 23.79Z" fill="url(#paint3_linear_77_10391)"/>
<path d="M22.7202 22.57C22.7183 22.9348 22.8248 23.2919 23.0262 23.596C23.2276 23.9001 23.5149 24.1375 23.8515 24.278C24.1881 24.4185 24.5589 24.4558 24.9167 24.3851C25.2746 24.3144 25.6034 24.139 25.8613 23.8811C26.1192 23.6231 26.2947 23.2944 26.3653 22.9365C26.436 22.5787 26.3987 22.2079 26.2582 21.8712C26.1177 21.5346 25.8804 21.2474 25.5762 21.0459C25.2721 20.8445 24.915 20.738 24.5502 20.74C24.3099 20.74 24.072 20.7874 23.8499 20.8793C23.6279 20.9713 23.4262 21.1061 23.2562 21.276C23.0863 21.4459 22.9515 21.6477 22.8595 21.8697C22.7676 22.0917 22.7202 22.3297 22.7202 22.57ZM23.3502 22.57C23.3503 22.3303 23.4215 22.0959 23.5549 21.8967C23.6883 21.6976 23.8779 21.5425 24.0995 21.4512C24.3212 21.3599 24.565 21.3365 24.8 21.3841C25.035 21.4316 25.2506 21.5478 25.4194 21.718C25.5882 21.8882 25.7026 22.1048 25.7482 22.3401C25.7938 22.5755 25.7684 22.8191 25.6752 23.04C25.5821 23.261 25.4255 23.4492 25.2252 23.581C25.0249 23.7127 24.79 23.782 24.5502 23.78C24.3918 23.78 24.2349 23.7487 24.0887 23.6877C23.9425 23.6268 23.8097 23.5375 23.6982 23.425C23.5866 23.3125 23.4984 23.1791 23.4387 23.0323C23.379 22.8856 23.3489 22.7284 23.3502 22.57Z" fill="url(#paint4_linear_77_10391)"/>
<path d="M24.5501 255.87C27.2949 255.87 29.5201 253.645 29.5201 250.9C29.5201 248.155 27.2949 245.93 24.5501 245.93C21.8052 245.93 19.5801 248.155 19.5801 250.9C19.5801 253.645 21.8052 255.87 24.5501 255.87Z" fill="url(#paint5_linear_77_10391)"/>
<path d="M24.5501 254.8C26.7041 254.8 28.4501 253.054 28.4501 250.9C28.4501 248.746 26.7041 247 24.5501 247C22.3962 247 20.6501 248.746 20.6501 250.9C20.6501 253.054 22.3962 254.8 24.5501 254.8Z" fill="url(#paint6_radial_77_10391)"/>
<path d="M24.5501 252.11C25.2184 252.11 25.7601 251.568 25.7601 250.9C25.7601 250.232 25.2184 249.69 24.5501 249.69C23.8818 249.69 23.3401 250.232 23.3401 250.9C23.3401 251.568 23.8818 252.11 24.5501 252.11Z" fill="url(#paint7_linear_77_10391)"/>
<path d="M22.7202 250.9C22.7202 251.264 22.8284 251.62 23.031 251.923C23.2337 252.226 23.5216 252.462 23.8584 252.601C24.1952 252.74 24.5657 252.776 24.9229 252.704C25.2801 252.632 25.6079 252.456 25.8649 252.197C26.1218 251.939 26.2962 251.61 26.3661 251.253C26.436 250.895 26.3981 250.525 26.2573 250.189C26.1165 249.853 25.8791 249.566 25.5752 249.365C25.2713 249.164 24.9146 249.058 24.5502 249.06C24.3091 249.06 24.0703 249.108 23.8476 249.2C23.6249 249.293 23.4228 249.428 23.2527 249.599C23.0826 249.77 22.948 249.973 22.8567 250.197C22.7653 250.42 22.7189 250.659 22.7202 250.9ZM23.3502 250.9C23.3483 250.66 23.4178 250.425 23.55 250.224C23.6822 250.023 23.8711 249.867 24.0926 249.774C24.3141 249.681 24.5582 249.656 24.7938 249.703C25.0295 249.749 25.246 249.865 25.4158 250.034C25.5856 250.204 25.7011 250.421 25.7474 250.656C25.7938 250.892 25.769 251.136 25.6762 251.358C25.5834 251.579 25.4267 251.768 25.2262 251.9C25.0257 252.032 24.7904 252.102 24.5502 252.1C24.2328 252.097 23.9291 251.97 23.7046 251.746C23.4801 251.521 23.3529 251.217 23.3502 250.9Z" fill="url(#paint8_linear_77_10391)"/>
<g filter="url(#filter4_d_77_10391)">
<path d="M54.89 6H29.02L41.95 18.94L54.89 6Z" fill="#3AE998"/>
</g>
<g filter="url(#filter5_d_77_10391)">
<path d="M29.02 267.47H54.89L41.95 254.53L29.02 267.47Z" fill="#3AE998"/>
</g>
<defs>
<filter id="filter0_d_77_10391" x="0.819824" y="11.76" width="11" height="249.95" filterUnits="userSpaceOnUse" color-interpolation-filters="sRGB">
<feFlood flood-opacity="0" result="BackgroundImageFix"/>
<feColorMatrix in="SourceAlpha" type="matrix" values="0 0 0 0 0 0 0 0 0 0 0 0 0 0 0 0 0 0 127 0" result="hardAlpha"/>
<feOffset/>
<feGaussianBlur stdDeviation="2.5"/>
<feComposite in2="hardAlpha" operator="out"/>
<feColorMatrix type="matrix" values="0 0 0 0 0.227451 0 0 0 0 0.913725 0 0 0 0 0.596078 0 0 0 1 0"/>
<feBlend mode="normal" in2="BackgroundImageFix" result="effect1_dropShadow_77_10391"/>
<feBlend mode="normal" in="SourceGraphic" in2="effect1_dropShadow_77_10391" result="shape"/>
</filter>
<filter id="filter1_d_77_10391" x="0" y="11" width="12.6399" height="12.64" filterUnits="userSpaceOnUse" color-interpolation-filters="sRGB">
<feFlood flood-opacity="0" result="BackgroundImageFix"/>
<feColorMatrix in="SourceAlpha" type="matrix" values="0 0 0 0 0 0 0 0 0 0 0 0 0 0 0 0 0 0 127 0" result="hardAlpha"/>
<feOffset/>
<feGaussianBlur stdDeviation="2.5"/>
<feComposite in2="hardAlpha" operator="out"/>
<feColorMatrix type="matrix" values="0 0 0 0 0.227451 0 0 0 0 0.913725 0 0 0 0 0.596078 0 0 0 1 0"/>
<feBlend mode="normal" in2="BackgroundImageFix" result="effect1_dropShadow_77_10391"/>
<feBlend mode="normal" in="SourceGraphic" in2="effect1_dropShadow_77_10391" result="shape"/>
</filter>
<filter id="filter2_d_77_10391" x="0" y="249.83" width="12.6399" height="12.64" filterUnits="userSpaceOnUse" color-interpolation-filters="sRGB">
<feFlood flood-opacity="0" result="BackgroundImageFix"/>
<feColorMatrix in="SourceAlpha" type="matrix" values="0 0 0 0 0 0 0 0 0 0 0 0 0 0 0 0 0 0 127 0" result="hardAlpha"/>
<feOffset/>
<feGaussianBlur stdDeviation="2.5"/>
<feComposite in2="hardAlpha" operator="out"/>
<feColorMatrix type="matrix" values="0 0 0 0 0.227451 0 0 0 0 0.913725 0 0 0 0 0.596078 0 0 0 1 0"/>
<feBlend mode="normal" in2="BackgroundImageFix" result="effect1_dropShadow_77_10391"/>
<feBlend mode="normal" in="SourceGraphic" in2="effect1_dropShadow_77_10391" result="shape"/>
</filter>
<filter id="filter3_di_77_10391" x="5.81006" y="0" width="38.51" height="273.47" filterUnits="userSpaceOnUse" color-interpolation-filters="sRGB">
<feFlood flood-opacity="0" result="BackgroundImageFix"/>
<feColorMatrix in="SourceAlpha" type="matrix" values="0 0 0 0 0 0 0 0 0 0 0 0 0 0 0 0 0 0 127 0" result="hardAlpha"/>
<feOffset/>
<feGaussianBlur stdDeviation="3"/>
<feComposite in2="hardAlpha" operator="out"/>
<feColorMatrix type="matrix" values="0 0 0 0 0 0 0 0 0 0 0 0 0 0 0 0 0 0 1 0"/>
<feBlend mode="normal" in2="BackgroundImageFix" result="effect1_dropShadow_77_10391"/>
<feBlend mode="normal" in="SourceGraphic" in2="effect1_dropShadow_77_10391" result="shape"/>
<feColorMatrix in="SourceAlpha" type="matrix" values="0 0 0 0 0 0 0 0 0 0 0 0 0 0 0 0 0 0 127 0" result="hardAlpha"/>
<feOffset/>
<feGaussianBlur stdDeviation="1"/>
<feComposite in2="hardAlpha" operator="arithmetic" k2="-1" k3="1"/>
<feColorMatrix type="matrix" values="0 0 0 0 1 0 0 0 0 1 0 0 0 0 1 0 0 0 1 0"/>
<feBlend mode="normal" in2="shape" result="effect2_innerShadow_77_10391"/>
</filter>
<filter id="filter4_d_77_10391" x="24.02" y="1" width="35.8701" height="22.9399" filterUnits="userSpaceOnUse" color-interpolation-filters="sRGB">
<feFlood flood-opacity="0" result="BackgroundImageFix"/>
<feColorMatrix in="SourceAlpha" type="matrix" values="0 0 0 0 0 0 0 0 0 0 0 0 0 0 0 0 0 0 127 0" result="hardAlpha"/>
<feOffset/>
<feGaussianBlur stdDeviation="2.5"/>
<feComposite in2="hardAlpha" operator="out"/>
<feColorMatrix type="matrix" values="0 0 0 0 0.227451 0 0 0 0 0.913725 0 0 0 0 0.596078 0 0 0 1 0"/>
<feBlend mode="normal" in2="BackgroundImageFix" result="effect1_dropShadow_77_10391"/>
<feBlend mode="normal" in="SourceGraphic" in2="effect1_dropShadow_77_10391" result="shape"/>
</filter>
<filter id="filter5_d_77_10391" x="24.02" y="249.53" width="35.8701" height="22.9399" filterUnits="userSpaceOnUse" color-interpolation-filters="sRGB">
<feFlood flood-opacity="0" result="BackgroundImageFix"/>
<feColorMatrix in="SourceAlpha" type="matrix" values="0 0 0 0 0 0 0 0 0 0 0 0 0 0 0 0 0 0 127 0" result="hardAlpha"/>
<feOffset/>
<feGaussianBlur stdDeviation="2.5"/>
<feComposite in2="hardAlpha" operator="out"/>
<feColorMatrix type="matrix" values="0 0 0 0 0.227451 0 0 0 0 0.913725 0 0 0 0 0.596078 0 0 0 1 0"/>
<feBlend mode="normal" in2="BackgroundImageFix" result="effect1_dropShadow_77_10391"/>
<feBlend mode="normal" in="SourceGraphic" in2="effect1_dropShadow_77_10391" result="shape"/>
</filter>
<linearGradient id="paint0_linear_77_10391" x1="25.0601" y1="267.47" x2="25.0601" y2="6" gradientUnits="userSpaceOnUse">
<stop offset="0.15" stop-color="#2A2F32"/>
<stop offset="0.83" stop-color="#3E4346"/>
</linearGradient>
<linearGradient id="paint1_linear_77_10391" x1="24.5601" y1="27.55" x2="24.5601" y2="17.61" gradientUnits="userSpaceOnUse">
<stop stop-color="#7E7E7E"/>
<stop offset="0.75"/>
</linearGradient>
<radialGradient id="paint2_radial_77_10391" cx="0" cy="0" r="1" gradientUnits="userSpaceOnUse" gradientTransform="translate(24.5601 22.5699) scale(3.9)">
<stop stop-color="#454545"/>
<stop offset="0.27" stop-color="#222222"/>
<stop offset="0.47" stop-color="#0D0D0D"/>
<stop offset="0.5" stop-color="#1B1B1B"/>
<stop offset="0.56" stop-color="#373737"/>
<stop offset="0.63" stop-color="#4C4C4C"/>
<stop offset="0.7" stop-color="#585858"/>
<stop offset="0.77" stop-color="#5C5C5C"/>
<stop offset="0.89" stop-color="#1A1A1A"/>
<stop offset="0.95"/>
</radialGradient>
<linearGradient id="paint3_linear_77_10391" x1="24.5601" y1="23.78" x2="24.5601" y2="21.37" gradientUnits="userSpaceOnUse">
<stop offset="0.43" stop-color="#363636"/>
<stop offset="0.76" stop-color="#232323"/>
<stop offset="1" stop-color="#1A1A1A"/>
</linearGradient>
<linearGradient id="paint4_linear_77_10391" x1="24.5602" y1="24.41" x2="24.5602" y2="20.75" gradientUnits="userSpaceOnUse">
<stop stop-color="#363636"/>
<stop offset="0.28" stop-color="#232323"/>
<stop offset="0.5" stop-color="#1A1A1A"/>
<stop offset="1"/>
</linearGradient>
<linearGradient id="paint5_linear_77_10391" x1="24.5601" y1="255.87" x2="24.5601" y2="245.93" gradientUnits="userSpaceOnUse">
<stop stop-color="#7E7E7E"/>
<stop offset="0.75"/>
</linearGradient>
<radialGradient id="paint6_radial_77_10391" cx="0" cy="0" r="1" gradientUnits="userSpaceOnUse" gradientTransform="translate(24.5601 250.89) scale(3.9 3.90001)">
<stop stop-color="#454545"/>
<stop offset="0.27" stop-color="#222222"/>
<stop offset="0.47" stop-color="#0D0D0D"/>
<stop offset="0.5" stop-color="#1B1B1B"/>
<stop offset="0.56" stop-color="#373737"/>
<stop offset="0.63" stop-color="#4C4C4C"/>
<stop offset="0.7" stop-color="#585858"/>
<stop offset="0.77" stop-color="#5C5C5C"/>
<stop offset="0.89" stop-color="#1A1A1A"/>
<stop offset="0.95"/>
</radialGradient>
<linearGradient id="paint7_linear_77_10391" x1="24.5601" y1="252.1" x2="24.5601" y2="249.69" gradientUnits="userSpaceOnUse">
<stop offset="0.43" stop-color="#363636"/>
<stop offset="0.76" stop-color="#232323"/>
<stop offset="1" stop-color="#1A1A1A"/>
</linearGradient>
<linearGradient id="paint8_linear_77_10391" x1="24.5602" y1="252.73" x2="24.5602" y2="249.07" gradientUnits="userSpaceOnUse">
<stop stop-color="#363636"/>
<stop offset="0.28" stop-color="#232323"/>
<stop offset="0.5" stop-color="#1A1A1A"/>
<stop offset="1"/>
</linearGradient>
</defs>
</svg>
