<svg width="60" height="274" viewBox="0 0 60 274" fill="none" xmlns="http://www.w3.org/2000/svg">
<g filter="url(#filter0_d_77_10410)">
<path d="M53.5698 17.26V256.21" stroke="#3AE998" stroke-miterlimit="10" stroke-linecap="round"/>
</g>
<g filter="url(#filter1_d_77_10410)">
<path d="M54.89 16H52.25V18.64H54.89V16Z" fill="#3AE998"/>
</g>
<g filter="url(#filter2_d_77_10410)">
<path d="M54.89 254.83H52.25V257.47H54.89V254.83Z" fill="#3AE998"/>
</g>
<g filter="url(#filter3_di_77_10410)">
<path d="M39.22 6L21.5801 22.58L39.22 40.22V89.9L27.8401 100.9V172.53L39.22 183.53V233.24L21.5801 250.89L39.22 267.47L48.0901 257.47V16L39.22 6Z" fill="url(#paint0_linear_77_10410)"/>
</g>
<path d="M35.3401 27.55C38.085 27.55 40.3101 25.3248 40.3101 22.58C40.3101 19.8351 38.085 17.61 35.3401 17.61C32.5953 17.61 30.3701 19.8351 30.3701 22.58C30.3701 25.3248 32.5953 27.55 35.3401 27.55Z" fill="url(#paint1_linear_77_10410)"/>
<path d="M35.34 26.4799C37.4939 26.4799 39.2399 24.7338 39.2399 22.5799C39.2399 20.426 37.4939 18.6799 35.34 18.6799C33.1861 18.6799 31.4399 20.426 31.4399 22.5799C31.4399 24.7338 33.1861 26.4799 35.34 26.4799Z" fill="url(#paint2_radial_77_10410)"/>
<path d="M35.3404 23.79C36.0087 23.79 36.5504 23.2483 36.5504 22.58C36.5504 21.9117 36.0087 21.37 35.3404 21.37C34.6721 21.37 34.1304 21.9117 34.1304 22.58C34.1304 23.2483 34.6721 23.79 35.3404 23.79Z" fill="url(#paint3_linear_77_10410)"/>
<path d="M33.5103 22.57C33.5103 22.9319 33.6176 23.2857 33.8187 23.5867C34.0197 23.8876 34.3056 24.1222 34.64 24.2607C34.9743 24.3992 35.3423 24.4354 35.6973 24.3648C36.0523 24.2942 36.3783 24.1199 36.6343 23.864C36.8902 23.6081 37.0645 23.282 37.1351 22.927C37.2057 22.572 37.1695 22.2041 37.0309 21.8697C36.8924 21.5353 36.6579 21.2495 36.3569 21.0484C36.056 20.8473 35.7022 20.74 35.3403 20.74C34.8549 20.74 34.3895 20.9328 34.0463 21.276C33.7031 21.6192 33.5103 22.0846 33.5103 22.57ZM34.1403 22.57C34.1403 22.3303 34.2114 22.0959 34.3448 21.8967C34.4783 21.6975 34.6678 21.5425 34.8895 21.4512C35.1112 21.3599 35.355 21.3365 35.59 21.384C35.825 21.4315 36.0406 21.5478 36.2094 21.718C36.3782 21.8882 36.4927 22.1047 36.5382 22.3401C36.5838 22.5755 36.5583 22.8191 36.4652 23.04C36.3721 23.2609 36.2155 23.4492 36.0152 23.5809C35.8149 23.7127 35.58 23.782 35.3403 23.78C35.1818 23.78 35.025 23.7486 34.8787 23.6877C34.7325 23.6268 34.5997 23.5375 34.4882 23.425C34.3766 23.3125 34.2884 23.179 34.2287 23.0323C34.169 22.8855 34.1389 22.7284 34.1403 22.57Z" fill="url(#paint4_linear_77_10410)"/>
<path d="M35.3404 252.11C36.0087 252.11 36.5504 251.568 36.5504 250.9C36.5504 250.232 36.0087 249.69 35.3404 249.69C34.6721 249.69 34.1304 250.232 34.1304 250.9C34.1304 251.568 34.6721 252.11 35.3404 252.11Z" fill="url(#paint5_linear_77_10410)"/>
<path d="M35.3401 255.87C38.085 255.87 40.3101 253.645 40.3101 250.9C40.3101 248.155 38.085 245.93 35.3401 245.93C32.5953 245.93 30.3701 248.155 30.3701 250.9C30.3701 253.645 32.5953 255.87 35.3401 255.87Z" fill="url(#paint6_linear_77_10410)"/>
<path d="M35.34 254.8C37.4939 254.8 39.2399 253.054 39.2399 250.9C39.2399 248.746 37.4939 247 35.34 247C33.1861 247 31.4399 248.746 31.4399 250.9C31.4399 253.054 33.1861 254.8 35.34 254.8Z" fill="url(#paint7_radial_77_10410)"/>
<path d="M33.5103 250.9C33.5123 251.261 33.6212 251.614 33.8235 251.914C34.0258 252.214 34.3123 252.447 34.6469 252.583C34.9814 252.72 35.3491 252.755 35.7034 252.684C36.0577 252.612 36.3829 252.437 36.6378 252.18C36.8927 251.924 37.066 251.598 37.1358 251.243C37.2056 250.889 37.1688 250.521 37.03 250.187C36.8912 249.854 36.6566 249.568 36.3559 249.368C36.0552 249.167 35.7018 249.06 35.3403 249.06C35.0991 249.06 34.8603 249.108 34.6377 249.2C34.415 249.293 34.2128 249.428 34.0427 249.599C33.8726 249.77 33.7381 249.973 33.6467 250.197C33.5553 250.42 33.509 250.659 33.5103 250.9ZM34.1403 250.9C34.1383 250.66 34.2078 250.424 34.34 250.224C34.4722 250.023 34.6611 249.867 34.8826 249.774C35.1041 249.681 35.3482 249.656 35.5838 249.703C35.8195 249.749 36.036 249.865 36.2058 250.034C36.3757 250.204 36.4911 250.421 36.5374 250.656C36.5838 250.892 36.559 251.136 36.4662 251.358C36.3734 251.579 36.2168 251.768 36.0163 251.9C35.8158 252.032 35.5805 252.102 35.3403 252.1C35.0228 252.097 34.7191 251.97 34.4947 251.746C34.2702 251.521 34.1429 251.217 34.1403 250.9Z" fill="url(#paint8_linear_77_10410)"/>
<g filter="url(#filter4_d_77_10410)">
<path d="M30.88 6H5L17.94 18.94L30.88 6Z" fill="#3AE998"/>
</g>
<g filter="url(#filter5_d_77_10410)">
<path d="M5 267.47H30.88L17.94 254.53L5 267.47Z" fill="#3AE998"/>
</g>
<defs>
<filter id="filter0_d_77_10410" x="48.0698" y="11.76" width="11" height="249.95" filterUnits="userSpaceOnUse" color-interpolation-filters="sRGB">
<feFlood flood-opacity="0" result="BackgroundImageFix"/>
<feColorMatrix in="SourceAlpha" type="matrix" values="0 0 0 0 0 0 0 0 0 0 0 0 0 0 0 0 0 0 127 0" result="hardAlpha"/>
<feOffset/>
<feGaussianBlur stdDeviation="2.5"/>
<feComposite in2="hardAlpha" operator="out"/>
<feColorMatrix type="matrix" values="0 0 0 0 0.227451 0 0 0 0 0.913725 0 0 0 0 0.596078 0 0 0 1 0"/>
<feBlend mode="normal" in2="BackgroundImageFix" result="effect1_dropShadow_77_10410"/>
<feBlend mode="normal" in="SourceGraphic" in2="effect1_dropShadow_77_10410" result="shape"/>
</filter>
<filter id="filter1_d_77_10410" x="47.25" y="11" width="12.6401" height="12.64" filterUnits="userSpaceOnUse" color-interpolation-filters="sRGB">
<feFlood flood-opacity="0" result="BackgroundImageFix"/>
<feColorMatrix in="SourceAlpha" type="matrix" values="0 0 0 0 0 0 0 0 0 0 0 0 0 0 0 0 0 0 127 0" result="hardAlpha"/>
<feOffset/>
<feGaussianBlur stdDeviation="2.5"/>
<feComposite in2="hardAlpha" operator="out"/>
<feColorMatrix type="matrix" values="0 0 0 0 0.227451 0 0 0 0 0.913725 0 0 0 0 0.596078 0 0 0 1 0"/>
<feBlend mode="normal" in2="BackgroundImageFix" result="effect1_dropShadow_77_10410"/>
<feBlend mode="normal" in="SourceGraphic" in2="effect1_dropShadow_77_10410" result="shape"/>
</filter>
<filter id="filter2_d_77_10410" x="47.25" y="249.83" width="12.6401" height="12.64" filterUnits="userSpaceOnUse" color-interpolation-filters="sRGB">
<feFlood flood-opacity="0" result="BackgroundImageFix"/>
<feColorMatrix in="SourceAlpha" type="matrix" values="0 0 0 0 0 0 0 0 0 0 0 0 0 0 0 0 0 0 127 0" result="hardAlpha"/>
<feOffset/>
<feGaussianBlur stdDeviation="2.5"/>
<feComposite in2="hardAlpha" operator="out"/>
<feColorMatrix type="matrix" values="0 0 0 0 0.227451 0 0 0 0 0.913725 0 0 0 0 0.596078 0 0 0 1 0"/>
<feBlend mode="normal" in2="BackgroundImageFix" result="effect1_dropShadow_77_10410"/>
<feBlend mode="normal" in="SourceGraphic" in2="effect1_dropShadow_77_10410" result="shape"/>
</filter>
<filter id="filter3_di_77_10410" x="15.5801" y="0" width="38.5103" height="273.47" filterUnits="userSpaceOnUse" color-interpolation-filters="sRGB">
<feFlood flood-opacity="0" result="BackgroundImageFix"/>
<feColorMatrix in="SourceAlpha" type="matrix" values="0 0 0 0 0 0 0 0 0 0 0 0 0 0 0 0 0 0 127 0" result="hardAlpha"/>
<feOffset/>
<feGaussianBlur stdDeviation="3"/>
<feComposite in2="hardAlpha" operator="out"/>
<feColorMatrix type="matrix" values="0 0 0 0 0 0 0 0 0 0 0 0 0 0 0 0 0 0 1 0"/>
<feBlend mode="normal" in2="BackgroundImageFix" result="effect1_dropShadow_77_10410"/>
<feBlend mode="normal" in="SourceGraphic" in2="effect1_dropShadow_77_10410" result="shape"/>
<feColorMatrix in="SourceAlpha" type="matrix" values="0 0 0 0 0 0 0 0 0 0 0 0 0 0 0 0 0 0 127 0" result="hardAlpha"/>
<feOffset/>
<feGaussianBlur stdDeviation="1"/>
<feComposite in2="hardAlpha" operator="arithmetic" k2="-1" k3="1"/>
<feColorMatrix type="matrix" values="0 0 0 0 1 0 0 0 0 1 0 0 0 0 1 0 0 0 1 0"/>
<feBlend mode="normal" in2="shape" result="effect2_innerShadow_77_10410"/>
</filter>
<filter id="filter4_d_77_10410" x="0" y="1" width="35.8799" height="22.9399" filterUnits="userSpaceOnUse" color-interpolation-filters="sRGB">
<feFlood flood-opacity="0" result="BackgroundImageFix"/>
<feColorMatrix in="SourceAlpha" type="matrix" values="0 0 0 0 0 0 0 0 0 0 0 0 0 0 0 0 0 0 127 0" result="hardAlpha"/>
<feOffset/>
<feGaussianBlur stdDeviation="2.5"/>
<feComposite in2="hardAlpha" operator="out"/>
<feColorMatrix type="matrix" values="0 0 0 0 0.227451 0 0 0 0 0.913725 0 0 0 0 0.596078 0 0 0 1 0"/>
<feBlend mode="normal" in2="BackgroundImageFix" result="effect1_dropShadow_77_10410"/>
<feBlend mode="normal" in="SourceGraphic" in2="effect1_dropShadow_77_10410" result="shape"/>
</filter>
<filter id="filter5_d_77_10410" x="0" y="249.53" width="35.8799" height="22.9399" filterUnits="userSpaceOnUse" color-interpolation-filters="sRGB">
<feFlood flood-opacity="0" result="BackgroundImageFix"/>
<feColorMatrix in="SourceAlpha" type="matrix" values="0 0 0 0 0 0 0 0 0 0 0 0 0 0 0 0 0 0 127 0" result="hardAlpha"/>
<feOffset/>
<feGaussianBlur stdDeviation="2.5"/>
<feComposite in2="hardAlpha" operator="out"/>
<feColorMatrix type="matrix" values="0 0 0 0 0.227451 0 0 0 0 0.913725 0 0 0 0 0.596078 0 0 0 1 0"/>
<feBlend mode="normal" in2="BackgroundImageFix" result="effect1_dropShadow_77_10410"/>
<feBlend mode="normal" in="SourceGraphic" in2="effect1_dropShadow_77_10410" result="shape"/>
</filter>
<linearGradient id="paint0_linear_77_10410" x1="34.8301" y1="267.47" x2="34.8301" y2="6" gradientUnits="userSpaceOnUse">
<stop offset="0.15" stop-color="#2A2F32"/>
<stop offset="0.83" stop-color="#3E4346"/>
</linearGradient>
<linearGradient id="paint1_linear_77_10410" x1="35.3501" y1="27.55" x2="35.3501" y2="17.61" gradientUnits="userSpaceOnUse">
<stop stop-color="#7E7E7E"/>
<stop offset="0.75"/>
</linearGradient>
<radialGradient id="paint2_radial_77_10410" cx="0" cy="0" r="1" gradientUnits="userSpaceOnUse" gradientTransform="translate(35.3499 22.5699) scale(3.89999 3.9)">
<stop stop-color="#454545"/>
<stop offset="0.27" stop-color="#222222"/>
<stop offset="0.47" stop-color="#0D0D0D"/>
<stop offset="0.5" stop-color="#1B1B1B"/>
<stop offset="0.56" stop-color="#373737"/>
<stop offset="0.63" stop-color="#4C4C4C"/>
<stop offset="0.7" stop-color="#585858"/>
<stop offset="0.77" stop-color="#5C5C5C"/>
<stop offset="0.89" stop-color="#1A1A1A"/>
<stop offset="0.95"/>
</radialGradient>
<linearGradient id="paint3_linear_77_10410" x1="35.3404" y1="23.78" x2="35.3404" y2="21.37" gradientUnits="userSpaceOnUse">
<stop offset="0.43" stop-color="#363636"/>
<stop offset="0.76" stop-color="#232323"/>
<stop offset="1" stop-color="#1A1A1A"/>
</linearGradient>
<linearGradient id="paint4_linear_77_10410" x1="35.3502" y1="24.41" x2="35.3502" y2="20.75" gradientUnits="userSpaceOnUse">
<stop stop-color="#363636"/>
<stop offset="0.28" stop-color="#232323"/>
<stop offset="0.5" stop-color="#1A1A1A"/>
<stop offset="1"/>
</linearGradient>
<linearGradient id="paint5_linear_77_10410" x1="35.3404" y1="252.1" x2="35.3404" y2="249.69" gradientUnits="userSpaceOnUse">
<stop offset="0.43" stop-color="#363636"/>
<stop offset="0.76" stop-color="#232323"/>
<stop offset="1" stop-color="#1A1A1A"/>
</linearGradient>
<linearGradient id="paint6_linear_77_10410" x1="35.3501" y1="255.87" x2="35.3501" y2="245.93" gradientUnits="userSpaceOnUse">
<stop stop-color="#7E7E7E"/>
<stop offset="0.75"/>
</linearGradient>
<radialGradient id="paint7_radial_77_10410" cx="0" cy="0" r="1" gradientUnits="userSpaceOnUse" gradientTransform="translate(35.3499 250.89) scale(3.89999 3.90001)">
<stop stop-color="#454545"/>
<stop offset="0.27" stop-color="#222222"/>
<stop offset="0.47" stop-color="#0D0D0D"/>
<stop offset="0.5" stop-color="#1B1B1B"/>
<stop offset="0.56" stop-color="#373737"/>
<stop offset="0.63" stop-color="#4C4C4C"/>
<stop offset="0.7" stop-color="#585858"/>
<stop offset="0.77" stop-color="#5C5C5C"/>
<stop offset="0.89" stop-color="#1A1A1A"/>
<stop offset="0.95"/>
</radialGradient>
<linearGradient id="paint8_linear_77_10410" x1="35.3503" y1="252.73" x2="35.3503" y2="249.07" gradientUnits="userSpaceOnUse">
<stop stop-color="#363636"/>
<stop offset="0.28" stop-color="#232323"/>
<stop offset="0.5" stop-color="#1A1A1A"/>
<stop offset="1"/>
</linearGradient>
</defs>
</svg>
