<svg width="587" height="228" viewBox="0 0 587 228" fill="none" xmlns="http://www.w3.org/2000/svg">
<g filter="url(#filter0_i_113_464)">
<path d="M550.22 0H36.62L0 36.18V227.13H586.83V36.18L550.22 0Z" fill="url(#paint0_linear_113_464)"/>
</g>
<path d="M552.97 31.68L537.56 16.39H181.87L197.27 31.68H552.97Z" fill="url(#paint1_linear_113_464)"/>
<path d="M576.25 58.04L554 35.95H469.97L492.22 58.04H576.25Z" fill="url(#paint2_linear_113_464)"/>
<path d="M581.89 84.51L566.49 69.23H509.18L524.59 84.51H581.89Z" fill="url(#paint3_linear_113_464)"/>
<g filter="url(#filter1_d_113_464)">
<path d="M172.916 15.1565C173.112 14.9613 173.428 14.9613 173.623 15.1565L194.117 35.6497H463.107L489.517 62.0598H567.3C567.576 62.06 567.8 62.2839 567.8 62.5598C567.8 62.8359 567.576 63.0597 567.3 63.0598H489.103L462.693 36.6497H193.703L172.916 15.8635C172.721 15.6683 172.721 15.3518 172.916 15.1565Z" fill="#3AE998"/>
</g>
<g filter="url(#filter2_d_113_464)">
<path d="M568.55 61.2401H565.91V63.8801H568.55V61.2401Z" fill="#3AE998"/>
</g>
<g filter="url(#filter3_d_113_464)">
<path d="M173.319 13.6866L171.452 15.5534L173.319 17.4202L175.186 15.5534L173.319 13.6866Z" fill="#3AE998"/>
</g>
<path d="M508.27 76.87L518.83 68.37L508.27 76.87Z" fill="#2C7A52"/>
<path d="M204.92 121.83L198.55 125.51C196.021 142.269 188.288 157.809 176.444 169.932C164.601 182.056 149.246 190.15 132.55 193.07L137.71 198.07C155.511 194.051 171.589 184.518 183.656 170.829C195.724 157.141 203.165 139.994 204.92 121.83Z" fill="url(#paint4_linear_113_464)"/>
<path d="M118.42 194.95H118.74C119.526 194.95 120.28 195.258 120.841 195.807C121.402 196.357 121.725 197.105 121.74 197.89C121.743 198.275 121.67 198.657 121.524 199.014C121.378 199.37 121.164 199.694 120.892 199.968C120.621 200.241 120.298 200.458 119.943 200.606C119.587 200.754 119.206 200.83 118.82 200.83H118.42C117.641 200.83 116.893 200.52 116.342 199.969C115.79 199.417 115.48 198.67 115.48 197.89C115.48 197.11 115.79 196.362 116.342 195.811C116.893 195.26 117.641 194.95 118.42 194.95Z" fill="url(#paint5_linear_113_464)"/>
<path d="M128.18 194.21H128.5C129.286 194.21 130.04 194.518 130.601 195.067C131.162 195.617 131.484 196.365 131.5 197.15C131.503 197.535 131.429 197.917 131.284 198.274C131.138 198.63 130.923 198.954 130.652 199.228C130.381 199.501 130.058 199.718 129.702 199.866C129.347 200.014 128.965 200.09 128.58 200.09H128.2C127.449 200.046 126.743 199.717 126.226 199.169C125.71 198.622 125.422 197.898 125.422 197.145C125.422 196.392 125.71 195.668 126.226 195.121C126.743 194.573 127.449 194.244 128.2 194.2L128.18 194.21Z" fill="url(#paint6_linear_113_464)"/>
<path d="M108.71 194.21H109.03C109.816 194.21 110.57 194.518 111.131 195.067C111.692 195.617 112.015 196.365 112.03 197.15C112.033 197.535 111.96 197.917 111.814 198.274C111.668 198.63 111.454 198.954 111.182 199.228C110.911 199.501 110.588 199.718 110.233 199.866C109.877 200.014 109.496 200.09 109.11 200.09H108.73C107.979 200.046 107.273 199.717 106.756 199.169C106.24 198.622 105.952 197.898 105.952 197.145C105.952 196.392 106.24 195.668 106.756 195.121C107.273 194.573 107.979 194.244 108.73 194.2L108.71 194.21Z" fill="url(#paint7_linear_113_464)"/>
<path opacity="0.8" d="M202.33 116.86C201.94 116.859 201.554 116.78 201.195 116.628C200.836 116.475 200.511 116.253 200.24 115.974C199.968 115.694 199.754 115.363 199.612 115C199.469 114.637 199.401 114.25 199.41 113.86V113.58C199.41 112.795 199.718 112.041 200.267 111.48C200.817 110.919 201.565 110.596 202.35 110.58C202.735 110.576 203.116 110.648 203.473 110.793C203.829 110.937 204.154 111.151 204.427 111.422C204.701 111.692 204.918 112.014 205.066 112.369C205.214 112.724 205.29 113.105 205.29 113.49V113.87C205.297 114.262 205.225 114.651 205.079 115.015C204.933 115.379 204.716 115.71 204.44 115.988C204.164 116.267 203.835 116.488 203.473 116.637C203.111 116.787 202.722 116.863 202.33 116.86Z" fill="#3AE998"/>
<path opacity="0.8" d="M35.2603 116.58C34.4823 116.58 33.736 116.272 33.1849 115.722C32.6339 115.173 32.323 114.428 32.3203 113.65V113.26C32.3256 112.484 32.6377 111.741 33.1885 111.194C33.7392 110.647 34.484 110.34 35.2603 110.34C35.6498 110.343 36.0349 110.422 36.3933 110.575C36.7516 110.728 37.076 110.95 37.3477 111.229C37.6194 111.508 37.8329 111.839 37.9758 112.201C38.1188 112.563 38.1883 112.951 38.1803 113.34V113.66C38.1601 114.428 37.846 115.159 37.3027 115.702C36.7594 116.246 36.0284 116.56 35.2603 116.58Z" fill="#3AE998"/>
<path d="M124.42 35.61C122.57 35.48 120.69 35.4 118.8 35.4C116.91 35.4 115.04 35.48 113.18 35.61C106.844 36.0603 100.588 37.2861 94.5503 39.26L99.1903 43.75L99.3903 43.95L100.07 43.75C112.345 40.4699 125.266 40.4699 137.54 43.75L138.21 43.95L138.42 43.75L143.06 39.26C137.02 37.2852 130.76 36.0594 124.42 35.61Z" fill="url(#paint8_linear_113_464)"/>
<path d="M90.8101 185.5C76.3362 179.859 63.9024 169.98 55.1363 157.156C46.3702 144.331 41.6802 129.159 41.6802 113.625C41.6802 98.0908 46.3702 82.9185 55.1363 70.094C63.9024 57.2696 76.3362 47.3905 90.8101 41.7499L91.9101 41.3199L98.4201 47.6499L100.83 46.9599C112.56 43.8198 124.91 43.8198 136.64 46.9599H136.7L137.3 47.1399L139.12 47.6499L145.66 41.3199L146.76 41.7499C161.234 47.3905 173.668 57.2696 182.434 70.094C191.2 82.9185 195.89 98.0908 195.89 113.625C195.89 129.159 191.2 144.331 182.434 157.156C173.668 169.98 161.234 179.859 146.76 185.5L145.66 185.93L139.12 179.6L137.29 180.11L136.64 180.3C124.931 183.42 112.609 183.42 100.9 180.3L100.25 180.11L98.4301 179.6L91.8901 185.93L90.8101 185.5ZM90.4201 45.8899C77.0777 51.4903 65.6865 60.9064 57.6757 72.9567C49.6649 85.0071 45.3914 99.1549 45.3914 113.625C45.3914 128.095 49.6649 142.243 57.6757 154.293C65.6865 166.343 77.0777 175.76 90.4201 181.36L91.0901 181.64L97.4401 175.49L101.3 176.57L101.92 176.75C112.995 179.69 124.645 179.69 135.72 176.75L136.36 176.56L140.23 175.48L146.58 181.63L147.25 181.35C160.589 175.746 171.976 166.329 179.984 154.279C187.991 142.229 192.263 128.083 192.263 113.615C192.263 99.147 187.991 85.001 179.984 72.9511C171.976 60.9012 160.589 51.4838 147.25 45.8799L146.58 45.5999L140.23 51.7399L136.37 50.6699L135.75 50.4899C124.664 47.53 112.996 47.53 101.91 50.4899L101.3 50.6699L97.4201 51.7499L91.0601 45.5999L90.4201 45.8899Z" fill="#3AE998"/>
<path d="M104.81 33.9399L99.9104 29.1899C82.1061 33.2031 66.0221 42.7318 53.949 56.419C41.876 70.1062 34.4296 87.2539 32.6704 105.42L39.0404 101.73C41.57 84.9723 49.3035 69.4338 61.1473 57.3118C72.9912 45.1898 88.3459 37.0978 105.04 34.1799L104.79 33.9399H104.81Z" fill="url(#paint9_linear_113_464)"/>
<path d="M137.68 29.1899L132.52 34.1899C149.215 37.1078 164.57 45.1998 176.413 57.3218C188.257 69.4438 195.991 84.9823 198.52 101.74L204.89 105.43C203.135 87.2662 195.694 70.1192 183.626 56.4305C171.559 42.7418 155.481 33.2092 137.68 29.1899Z" fill="url(#paint10_linear_113_464)"/>
<path d="M119.11 32.3H118.79C117.995 32.3 117.232 31.9839 116.669 31.4213C116.106 30.8587 115.79 30.0956 115.79 29.3C115.789 28.9152 115.863 28.5339 116.01 28.178C116.156 27.822 116.37 27.4982 116.641 27.2252C116.913 26.9522 117.235 26.7353 117.59 26.5868C117.945 26.4384 118.326 26.3613 118.71 26.36H119.09C119.842 26.4038 120.548 26.7331 121.064 27.2806C121.581 27.8281 121.869 28.5523 121.869 29.305C121.869 30.0577 121.581 30.7819 121.064 31.3293C120.548 31.8768 119.842 32.2062 119.09 32.25L119.11 32.3Z" fill="url(#paint11_linear_113_464)"/>
<path d="M109.42 33.02H109.1C108.315 33.0201 107.561 32.7123 107 32.1626C106.439 31.6129 106.116 30.8652 106.1 30.08C106.098 29.6948 106.171 29.313 106.317 28.9564C106.462 28.5998 106.677 28.2755 106.948 28.0023C107.22 27.729 107.543 27.5121 107.898 27.3641C108.254 27.2161 108.635 27.1399 109.02 27.14H109.42C110.2 27.14 110.948 27.4497 111.499 28.0011C112.05 28.5524 112.36 29.3002 112.36 30.08C112.36 30.8597 112.05 31.6075 111.499 32.1588C110.948 32.7102 110.2 33.02 109.42 33.02Z" fill="url(#paint12_linear_113_464)"/>
<path d="M128.85 33.02H128.53C127.745 33.0201 126.991 32.7123 126.43 32.1626C125.869 31.6129 125.546 30.8652 125.53 30.08C125.529 29.6952 125.603 29.3139 125.749 28.9579C125.896 28.6019 126.11 28.2782 126.381 28.0052C126.653 27.7322 126.975 27.5153 127.33 27.3668C127.685 27.2184 128.066 27.1413 128.45 27.14H128.84C129.62 27.14 130.368 27.4497 130.919 28.0011C131.471 28.5524 131.78 29.3002 131.78 30.08C131.78 30.8597 131.471 31.6075 130.919 32.1588C130.368 32.7102 129.62 33.02 128.84 33.02H128.85Z" fill="url(#paint13_linear_113_464)"/>
<path d="M138.42 183.49L138.21 183.3L137.54 183.49C125.267 186.783 112.343 186.783 100.07 183.49L99.3903 183.3L94.5403 188.02C100.577 189.995 106.834 191.221 113.17 191.67C115.03 191.8 116.9 191.87 118.79 191.87C120.68 191.87 122.56 191.8 124.42 191.67C130.756 191.22 137.013 189.994 143.05 188.02L138.42 183.49Z" fill="url(#paint14_linear_113_464)"/>
<path d="M104.81 193.31L105.06 193.07C88.3652 190.15 73.0101 182.056 61.1664 169.932C49.3226 157.809 41.5895 142.269 39.0604 125.51L32.6904 121.83C34.4564 139.986 41.9034 157.123 53.972 170.802C66.0405 184.481 82.1158 194.005 99.9104 198.02L104.81 193.27V193.31Z" fill="url(#paint15_linear_113_464)"/>
<g filter="url(#filter4_d_113_464)">
<path d="M17.7 182.05V41.5725L44.116 15.1565C44.3112 14.9613 44.6287 14.9613 44.824 15.1565C45.0189 15.3517 45.0189 15.6684 44.824 15.8635L18.7 41.9876V182.05C18.6999 182.326 18.4761 182.55 18.2 182.55C17.9238 182.55 17.7 182.326 17.7 182.05Z" fill="#3AE998"/>
</g>
<g filter="url(#filter5_d_113_464)">
<path d="M44.4127 13.6827L42.5459 15.5494L44.4127 17.4162L46.2794 15.5494L44.4127 13.6827Z" fill="#3AE998"/>
</g>
<g filter="url(#filter6_d_113_464)">
<path d="M19.5199 180.66H16.8799V183.3H19.5199V180.66Z" fill="#3AE998"/>
</g>
<g filter="url(#filter7_d_113_464)">
<path d="M17.8464 145.387C18.0417 145.191 18.3582 145.191 18.5534 145.387L29.4001 156.233V196.363L49.1638 216.127C49.3587 216.322 49.3589 216.639 49.1638 216.834C48.9686 217.029 48.652 217.029 48.4567 216.834L28.4001 196.777V156.647L17.8464 146.094C17.6511 145.898 17.6511 145.582 17.8464 145.387Z" fill="#3AE998"/>
</g>
<g filter="url(#filter8_d_113_464)">
<path d="M48.7552 214.567L46.8884 216.434L48.7552 218.301L50.622 216.434L48.7552 214.567Z" fill="#3AE998"/>
</g>
<path d="M61.2801 10.54L26.1401 45.69V67.31L82.9001 10.54H61.2801Z" fill="url(#paint16_linear_113_464)"/>
<path d="M34.03 171.41V193.14L49.32 208.43V171.58L34.03 171.41Z" fill="url(#paint17_linear_113_464)"/>
<path d="M30.08 218.62L6.75 195.3V220.38H31.83L30.08 218.62Z" fill="url(#paint18_linear_113_464)"/>
<defs>
<filter id="filter0_i_113_464" x="0" y="0" width="586.83" height="227.13" filterUnits="userSpaceOnUse" color-interpolation-filters="sRGB">
<feFlood flood-opacity="0" result="BackgroundImageFix"/>
<feBlend mode="normal" in="SourceGraphic" in2="BackgroundImageFix" result="shape"/>
<feColorMatrix in="SourceAlpha" type="matrix" values="0 0 0 0 0 0 0 0 0 0 0 0 0 0 0 0 0 0 127 0" result="hardAlpha"/>
<feOffset/>
<feGaussianBlur stdDeviation="5"/>
<feComposite in2="hardAlpha" operator="arithmetic" k2="-1" k3="1"/>
<feColorMatrix type="matrix" values="0 0 0 0 0.227451 0 0 0 0 0.913725 0 0 0 0 0.596078 0 0 0 1 0"/>
<feBlend mode="normal" in2="shape" result="effect1_innerShadow_113_464"/>
</filter>
<filter id="filter1_d_113_464" x="167.77" y="10.0101" width="405.03" height="58.0498" filterUnits="userSpaceOnUse" color-interpolation-filters="sRGB">
<feFlood flood-opacity="0" result="BackgroundImageFix"/>
<feColorMatrix in="SourceAlpha" type="matrix" values="0 0 0 0 0 0 0 0 0 0 0 0 0 0 0 0 0 0 127 0" result="hardAlpha"/>
<feOffset/>
<feGaussianBlur stdDeviation="2.5"/>
<feComposite in2="hardAlpha" operator="out"/>
<feColorMatrix type="matrix" values="0 0 0 0 0.227451 0 0 0 0 0.913725 0 0 0 0 0.596078 0 0 0 1 0"/>
<feBlend mode="normal" in2="BackgroundImageFix" result="effect1_dropShadow_113_464"/>
<feBlend mode="normal" in="SourceGraphic" in2="effect1_dropShadow_113_464" result="shape"/>
</filter>
<filter id="filter2_d_113_464" x="560.91" y="56.2401" width="12.6401" height="12.64" filterUnits="userSpaceOnUse" color-interpolation-filters="sRGB">
<feFlood flood-opacity="0" result="BackgroundImageFix"/>
<feColorMatrix in="SourceAlpha" type="matrix" values="0 0 0 0 0 0 0 0 0 0 0 0 0 0 0 0 0 0 127 0" result="hardAlpha"/>
<feOffset/>
<feGaussianBlur stdDeviation="2.5"/>
<feComposite in2="hardAlpha" operator="out"/>
<feColorMatrix type="matrix" values="0 0 0 0 0.227451 0 0 0 0 0.913725 0 0 0 0 0.596078 0 0 0 1 0"/>
<feBlend mode="normal" in2="BackgroundImageFix" result="effect1_dropShadow_113_464"/>
<feBlend mode="normal" in="SourceGraphic" in2="effect1_dropShadow_113_464" result="shape"/>
</filter>
<filter id="filter3_d_113_464" x="166.452" y="8.68665" width="13.7336" height="13.7335" filterUnits="userSpaceOnUse" color-interpolation-filters="sRGB">
<feFlood flood-opacity="0" result="BackgroundImageFix"/>
<feColorMatrix in="SourceAlpha" type="matrix" values="0 0 0 0 0 0 0 0 0 0 0 0 0 0 0 0 0 0 127 0" result="hardAlpha"/>
<feOffset/>
<feGaussianBlur stdDeviation="2.5"/>
<feComposite in2="hardAlpha" operator="out"/>
<feColorMatrix type="matrix" values="0 0 0 0 0.227451 0 0 0 0 0.913725 0 0 0 0 0.596078 0 0 0 1 0"/>
<feBlend mode="normal" in2="BackgroundImageFix" result="effect1_dropShadow_113_464"/>
<feBlend mode="normal" in="SourceGraphic" in2="effect1_dropShadow_113_464" result="shape"/>
</filter>
<filter id="filter4_d_113_464" x="12.7" y="10.0101" width="37.2703" height="177.54" filterUnits="userSpaceOnUse" color-interpolation-filters="sRGB">
<feFlood flood-opacity="0" result="BackgroundImageFix"/>
<feColorMatrix in="SourceAlpha" type="matrix" values="0 0 0 0 0 0 0 0 0 0 0 0 0 0 0 0 0 0 127 0" result="hardAlpha"/>
<feOffset/>
<feGaussianBlur stdDeviation="2.5"/>
<feComposite in2="hardAlpha" operator="out"/>
<feColorMatrix type="matrix" values="0 0 0 0 0.227451 0 0 0 0 0.913725 0 0 0 0 0.596078 0 0 0 1 0"/>
<feBlend mode="normal" in2="BackgroundImageFix" result="effect1_dropShadow_113_464"/>
<feBlend mode="normal" in="SourceGraphic" in2="effect1_dropShadow_113_464" result="shape"/>
</filter>
<filter id="filter5_d_113_464" x="37.5459" y="8.68268" width="13.7336" height="13.7335" filterUnits="userSpaceOnUse" color-interpolation-filters="sRGB">
<feFlood flood-opacity="0" result="BackgroundImageFix"/>
<feColorMatrix in="SourceAlpha" type="matrix" values="0 0 0 0 0 0 0 0 0 0 0 0 0 0 0 0 0 0 127 0" result="hardAlpha"/>
<feOffset/>
<feGaussianBlur stdDeviation="2.5"/>
<feComposite in2="hardAlpha" operator="out"/>
<feColorMatrix type="matrix" values="0 0 0 0 0.227451 0 0 0 0 0.913725 0 0 0 0 0.596078 0 0 0 1 0"/>
<feBlend mode="normal" in2="BackgroundImageFix" result="effect1_dropShadow_113_464"/>
<feBlend mode="normal" in="SourceGraphic" in2="effect1_dropShadow_113_464" result="shape"/>
</filter>
<filter id="filter6_d_113_464" x="11.8799" y="175.66" width="12.6399" height="12.64" filterUnits="userSpaceOnUse" color-interpolation-filters="sRGB">
<feFlood flood-opacity="0" result="BackgroundImageFix"/>
<feColorMatrix in="SourceAlpha" type="matrix" values="0 0 0 0 0 0 0 0 0 0 0 0 0 0 0 0 0 0 127 0" result="hardAlpha"/>
<feOffset/>
<feGaussianBlur stdDeviation="2.5"/>
<feComposite in2="hardAlpha" operator="out"/>
<feColorMatrix type="matrix" values="0 0 0 0 0.227451 0 0 0 0 0.913725 0 0 0 0 0.596078 0 0 0 1 0"/>
<feBlend mode="normal" in2="BackgroundImageFix" result="effect1_dropShadow_113_464"/>
<feBlend mode="normal" in="SourceGraphic" in2="effect1_dropShadow_113_464" result="shape"/>
</filter>
<filter id="filter7_d_113_464" x="12.7" y="140.24" width="41.6101" height="81.74" filterUnits="userSpaceOnUse" color-interpolation-filters="sRGB">
<feFlood flood-opacity="0" result="BackgroundImageFix"/>
<feColorMatrix in="SourceAlpha" type="matrix" values="0 0 0 0 0 0 0 0 0 0 0 0 0 0 0 0 0 0 127 0" result="hardAlpha"/>
<feOffset/>
<feGaussianBlur stdDeviation="2.5"/>
<feComposite in2="hardAlpha" operator="out"/>
<feColorMatrix type="matrix" values="0 0 0 0 0.227451 0 0 0 0 0.913725 0 0 0 0 0.596078 0 0 0 1 0"/>
<feBlend mode="normal" in2="BackgroundImageFix" result="effect1_dropShadow_113_464"/>
<feBlend mode="normal" in="SourceGraphic" in2="effect1_dropShadow_113_464" result="shape"/>
</filter>
<filter id="filter8_d_113_464" x="41.8884" y="209.567" width="13.7336" height="13.7335" filterUnits="userSpaceOnUse" color-interpolation-filters="sRGB">
<feFlood flood-opacity="0" result="BackgroundImageFix"/>
<feColorMatrix in="SourceAlpha" type="matrix" values="0 0 0 0 0 0 0 0 0 0 0 0 0 0 0 0 0 0 127 0" result="hardAlpha"/>
<feOffset/>
<feGaussianBlur stdDeviation="2.5"/>
<feComposite in2="hardAlpha" operator="out"/>
<feColorMatrix type="matrix" values="0 0 0 0 0.227451 0 0 0 0 0.913725 0 0 0 0 0.596078 0 0 0 1 0"/>
<feBlend mode="normal" in2="BackgroundImageFix" result="effect1_dropShadow_113_464"/>
<feBlend mode="normal" in="SourceGraphic" in2="effect1_dropShadow_113_464" result="shape"/>
</filter>
<linearGradient id="paint0_linear_113_464" x1="-221.89" y1="621.6" x2="423.89" y2="6.78" gradientUnits="userSpaceOnUse">
<stop stop-color="#3AE998" stop-opacity="0.6"/>
<stop offset="0.846154" stop-opacity="0.8"/>
</linearGradient>
<linearGradient id="paint1_linear_113_464" x1="181.87" y1="24.04" x2="564.77" y2="24.04" gradientUnits="userSpaceOnUse">
<stop offset="0.26" stop-color="#3AE998" stop-opacity="0.61"/>
<stop offset="0.31" stop-color="#3AE998" stop-opacity="0.53"/>
<stop offset="0.45" stop-color="#3AE998" stop-opacity="0.34"/>
<stop offset="0.59" stop-color="#3AE998" stop-opacity="0.19"/>
<stop offset="0.72" stop-color="#3AE998" stop-opacity="0.09"/>
<stop offset="0.84" stop-color="#3AE998" stop-opacity="0.02"/>
<stop offset="0.94" stop-color="#3AE998" stop-opacity="0"/>
</linearGradient>
<linearGradient id="paint2_linear_113_464" x1="469.97" y1="46.99" x2="579.64" y2="46.99" gradientUnits="userSpaceOnUse">
<stop stop-color="#3AE998" stop-opacity="0.6"/>
<stop offset="0.18" stop-color="#3AE998" stop-opacity="0.48"/>
<stop offset="0.7" stop-color="#3AE998" stop-opacity="0.13"/>
<stop offset="0.94" stop-color="#3AE998" stop-opacity="0"/>
</linearGradient>
<linearGradient id="paint3_linear_113_464" x1="509.19" y1="76.87" x2="584.21" y2="76.87" gradientUnits="userSpaceOnUse">
<stop stop-color="#3AE998" stop-opacity="0.6"/>
<stop offset="0.14" stop-color="#3AE998" stop-opacity="0.48"/>
<stop offset="0.55" stop-color="#3AE998" stop-opacity="0.13"/>
<stop offset="0.74" stop-color="#3AE998" stop-opacity="0"/>
</linearGradient>
<linearGradient id="paint4_linear_113_464" x1="132.52" y1="159.94" x2="204.92" y2="159.94" gradientUnits="userSpaceOnUse">
<stop stop-color="#3AE998" stop-opacity="0"/>
<stop offset="1" stop-color="#3AE998" stop-opacity="0.5"/>
</linearGradient>
<linearGradient id="paint5_linear_113_464" x1="101.09" y1="197.89" x2="139.321" y2="197.89" gradientUnits="userSpaceOnUse">
<stop stop-color="#3AE998"/>
<stop offset="1" stop-color="#3AE998" stop-opacity="0"/>
</linearGradient>
<linearGradient id="paint6_linear_113_464" x1="102.33" y1="197.16" x2="138.6" y2="197.16" gradientUnits="userSpaceOnUse">
<stop stop-color="#3AE998"/>
<stop offset="1" stop-color="#3AE998" stop-opacity="0"/>
</linearGradient>
<linearGradient id="paint7_linear_113_464" x1="101.33" y1="197.16" x2="137.6" y2="197.16" gradientUnits="userSpaceOnUse">
<stop stop-color="#3AE998"/>
<stop offset="1" stop-color="#3AE998" stop-opacity="0"/>
</linearGradient>
<linearGradient id="paint8_linear_113_464" x1="94.5403" y1="39.68" x2="143.05" y2="39.68" gradientUnits="userSpaceOnUse">
<stop stop-color="#3AE998" stop-opacity="0.3"/>
<stop offset="1" stop-color="#3AE998" stop-opacity="0.3"/>
</linearGradient>
<linearGradient id="paint9_linear_113_464" x1="32.6704" y1="67.3099" x2="105.06" y2="67.3099" gradientUnits="userSpaceOnUse">
<stop stop-color="#3AE998" stop-opacity="0.5"/>
<stop offset="1" stop-color="#3AE998" stop-opacity="0"/>
</linearGradient>
<linearGradient id="paint10_linear_113_464" x1="132.52" y1="67.3099" x2="204.92" y2="67.3099" gradientUnits="userSpaceOnUse">
<stop stop-color="#3AE998" stop-opacity="0.5"/>
<stop offset="1" stop-color="#3AE998" stop-opacity="0"/>
</linearGradient>
<linearGradient id="paint11_linear_113_464" x1="136.47" y1="29.35" x2="98.2403" y2="29.35" gradientUnits="userSpaceOnUse">
<stop stop-color="#3AE998"/>
<stop offset="1" stop-color="#3AE998" stop-opacity="0"/>
</linearGradient>
<linearGradient id="paint12_linear_113_464" x1="135.23" y1="30.09" x2="98.9602" y2="30.09" gradientUnits="userSpaceOnUse">
<stop stop-color="#3AE998"/>
<stop offset="1" stop-color="#3AE998" stop-opacity="0"/>
</linearGradient>
<linearGradient id="paint13_linear_113_464" x1="136.23" y1="30.09" x2="99.9603" y2="30.09" gradientUnits="userSpaceOnUse">
<stop stop-color="#3AE998"/>
<stop offset="1" stop-color="#3AE998" stop-opacity="0"/>
</linearGradient>
<linearGradient id="paint14_linear_113_464" x1="94.5403" y1="187.57" x2="143.05" y2="187.57" gradientUnits="userSpaceOnUse">
<stop stop-color="#3AE998" stop-opacity="0.3"/>
<stop offset="1" stop-color="#3AE998" stop-opacity="0.3"/>
</linearGradient>
<linearGradient id="paint15_linear_113_464" x1="32.6704" y1="159.94" x2="105.06" y2="159.94" gradientUnits="userSpaceOnUse">
<stop stop-color="#3AE998" stop-opacity="0"/>
<stop offset="1" stop-color="#3AE998" stop-opacity="0.5"/>
</linearGradient>
<linearGradient id="paint16_linear_113_464" x1="20.7285" y1="61.8985" x2="84.9267" y2="-2.29976" gradientUnits="userSpaceOnUse">
<stop stop-color="#3AE998" stop-opacity="0.6"/>
<stop offset="0.13" stop-color="#3AE998" stop-opacity="0.48"/>
<stop offset="0.51" stop-color="#3AE998" stop-opacity="0.13"/>
<stop offset="0.68" stop-color="#3AE998" stop-opacity="0"/>
</linearGradient>
<linearGradient id="paint17_linear_113_464" x1="41.68" y1="208.42" x2="41.68" y2="166.56" gradientUnits="userSpaceOnUse">
<stop stop-color="#3AE998" stop-opacity="0.6"/>
<stop offset="0.13" stop-color="#3AE998" stop-opacity="0.48"/>
<stop offset="0.51" stop-color="#3AE998" stop-opacity="0.13"/>
<stop offset="0.68" stop-color="#3AE998" stop-opacity="0"/>
</linearGradient>
<linearGradient id="paint18_linear_113_464" x1="-11.48" y1="207.84" x2="38.34" y2="207.84" gradientUnits="userSpaceOnUse">
<stop offset="0.24" stop-color="#3AE998"/>
<stop offset="0.34" stop-color="#3AE998" stop-opacity="0.76"/>
<stop offset="0.45" stop-color="#3AE998" stop-opacity="0.53"/>
<stop offset="0.57" stop-color="#3AE998" stop-opacity="0.34"/>
<stop offset="0.67" stop-color="#3AE998" stop-opacity="0.19"/>
<stop offset="0.77" stop-color="#3AE998" stop-opacity="0.09"/>
<stop offset="0.86" stop-color="#3AE998" stop-opacity="0.02"/>
<stop offset="0.94" stop-color="#3AE998" stop-opacity="0"/>
</linearGradient>
</defs>
</svg>
