<svg width="107" height="42" viewBox="0 0 107 42" fill="none" xmlns="http://www.w3.org/2000/svg">
<g filter="url(#filter0_i_106_181)">
<path d="M22.59 8.14001H105.09L106.91 9.96001V31.59L105.09 33.43H22.59L20.77 31.6V9.96001L22.59 8.14001Z" fill="url(#paint0_linear_106_181)"/>
</g>
<g filter="url(#filter1_i_106_181)">
<path d="M22.3501 8.14001H42.9501V21.26L50.7201 29.79H56.1301L58.0601 31.72H65.9801L68.8401 33.42H22.3501L20.8501 31.92V9.64001L22.3501 8.14001Z" fill="url(#paint1_linear_106_181)"/>
</g>
<path d="M44.8098 31.26C45.7929 31.26 46.5898 30.4631 46.5898 29.48C46.5898 28.4969 45.7929 27.7 44.8098 27.7C43.8267 27.7 43.0298 28.4969 43.0298 29.48C43.0298 30.4631 43.8267 31.26 44.8098 31.26Z" fill="url(#paint2_linear_106_181)"/>
<path d="M44.8097 30.88C45.5829 30.88 46.2097 30.2532 46.2097 29.48C46.2097 28.7068 45.5829 28.08 44.8097 28.08C44.0365 28.08 43.4097 28.7068 43.4097 29.48C43.4097 30.2532 44.0365 30.88 44.8097 30.88Z" fill="url(#paint3_radial_106_181)"/>
<path d="M44.8099 29.91C45.0474 29.91 45.2399 29.7175 45.2399 29.48C45.2399 29.2425 45.0474 29.05 44.8099 29.05C44.5724 29.05 44.3799 29.2425 44.3799 29.48C44.3799 29.7175 44.5724 29.91 44.8099 29.91Z" fill="url(#paint4_linear_106_181)"/>
<path d="M44.1597 29.48C44.1596 29.6533 44.2278 29.8197 44.3494 29.9432C44.471 30.0667 44.6364 30.1374 44.8097 30.14C44.9847 30.14 45.1526 30.0705 45.2764 29.9467C45.4001 29.8229 45.4697 29.6551 45.4697 29.48C45.4697 29.305 45.4001 29.1371 45.2764 29.0133C45.1526 28.8895 44.9847 28.82 44.8097 28.82C44.6364 28.8226 44.471 28.8933 44.3494 29.0168C44.2278 29.1403 44.1596 29.3067 44.1597 29.48ZM44.3797 29.48C44.3797 29.395 44.4049 29.3118 44.4521 29.2411C44.4994 29.1704 44.5665 29.1153 44.6451 29.0827C44.7237 29.0502 44.8101 29.0417 44.8936 29.0583C44.977 29.0749 45.0536 29.1158 45.1137 29.1759C45.1739 29.2361 45.2148 29.3127 45.2314 29.3961C45.248 29.4795 45.2395 29.566 45.2069 29.6446C45.1744 29.7231 45.1193 29.7903 45.0486 29.8375C44.9779 29.8848 44.8947 29.91 44.8097 29.91C44.6956 29.91 44.5863 29.8647 44.5056 29.7841C44.425 29.7034 44.3797 29.5941 44.3797 29.48Z" fill="url(#paint5_linear_106_181)"/>
<g filter="url(#filter2_i_106_181)">
<path d="M105.41 33.43H101.81V20.3L94.0399 11.77H88.6299L86.6999 9.84001H78.7799L75.9199 8.14001H105.41C106 8.72001 106.33 9.05001 106.91 9.64001V31.92L105.41 33.43Z" fill="url(#paint6_linear_106_181)"/>
</g>
<path d="M103.59 12.84C104.396 12.84 105.05 12.1863 105.05 11.38C105.05 10.5737 104.396 9.91998 103.59 9.91998C102.784 9.91998 102.13 10.5737 102.13 11.38C102.13 12.1863 102.784 12.84 103.59 12.84Z" fill="url(#paint7_linear_106_181)"/>
<path d="M103.59 12.53C104.225 12.53 104.74 12.0151 104.74 11.38C104.74 10.7448 104.225 10.23 103.59 10.23C102.955 10.23 102.44 10.7448 102.44 11.38C102.44 12.0151 102.955 12.53 103.59 12.53Z" fill="url(#paint8_radial_106_181)"/>
<path d="M103.59 11.73C103.783 11.73 103.94 11.5733 103.94 11.38C103.94 11.1867 103.783 11.03 103.59 11.03C103.396 11.03 103.24 11.1867 103.24 11.38C103.24 11.5733 103.396 11.73 103.59 11.73Z" fill="url(#paint9_linear_106_181)"/>
<path d="M103.05 11.43C103.05 11.5368 103.081 11.6412 103.141 11.73C103.2 11.8188 103.284 11.888 103.383 11.9289C103.482 11.9698 103.59 11.9805 103.695 11.9596C103.8 11.9388 103.896 11.8874 103.972 11.8118C104.047 11.7363 104.099 11.6401 104.119 11.5354C104.14 11.4306 104.13 11.322 104.089 11.2234C104.048 11.1247 103.979 11.0404 103.89 10.981C103.801 10.9217 103.697 10.89 103.59 10.89C103.447 10.89 103.309 10.9469 103.208 11.0482C103.107 11.1494 103.05 11.2868 103.05 11.43ZM103.23 11.43C103.23 11.3832 103.239 11.3368 103.257 11.2937C103.276 11.2506 103.302 11.2115 103.336 11.1789C103.369 11.1463 103.409 11.1207 103.453 11.1037C103.496 11.0867 103.543 11.0787 103.59 11.08C103.683 11.08 103.772 11.1169 103.837 11.1825C103.903 11.2482 103.94 11.3372 103.94 11.43C103.94 11.5228 103.903 11.6119 103.837 11.6775C103.772 11.7431 103.683 11.78 103.59 11.78C103.543 11.7814 103.496 11.7733 103.453 11.7563C103.409 11.7393 103.369 11.7137 103.336 11.6811C103.302 11.6485 103.276 11.6094 103.257 11.5663C103.239 11.5232 103.23 11.4768 103.23 11.43Z" fill="url(#paint10_linear_106_181)"/>
<path d="M20.7798 37.72C17.4286 37.7239 14.1514 36.7338 11.363 34.8748C8.57465 33.0158 6.40028 30.3715 5.11506 27.2765C3.82985 24.1815 3.49152 20.7748 4.14289 17.4874C4.79427 14.2001 6.40606 11.1798 8.77436 8.80868C11.1427 6.43757 14.1611 4.82219 17.4476 4.16694C20.7342 3.51168 24.1413 3.84598 27.2379 5.12754C30.3344 6.4091 32.9813 8.58034 34.8435 11.3665C36.7058 14.1527 37.6998 17.4287 37.6998 20.78C37.6841 25.2644 35.897 29.561 32.7279 32.7339C29.5587 35.9067 25.2643 37.6989 20.7798 37.72Z" fill="#101010"/>
<path d="M20.78 4.42998C24.0058 4.42998 27.1592 5.38655 29.8413 7.17871C32.5235 8.97088 34.614 11.5182 35.8484 14.4984C37.0829 17.4787 37.4059 20.7581 36.7766 23.9219C36.1472 27.0857 34.5939 29.9919 32.3129 32.2729C30.0319 34.5539 27.1257 36.1073 23.9619 36.7366C20.7981 37.3659 17.5187 37.0429 14.5384 35.8085C11.5582 34.574 9.01088 32.4835 7.21871 29.8013C5.42654 27.1192 4.46996 23.9658 4.46996 20.74C4.47525 16.4159 6.19535 12.2705 9.25292 9.21291C12.3105 6.15533 16.4559 4.43527 20.78 4.42998ZM20.78 3.16998C17.3049 3.16998 13.908 4.20044 11.0186 6.13106C8.12924 8.06167 5.87725 10.8057 4.54742 14.0162C3.21758 17.2267 2.86963 20.7595 3.54757 24.1677C4.22551 27.576 5.89889 30.7066 8.3561 33.1638C10.8133 35.6211 13.944 37.2944 17.3522 37.9724C20.7605 38.6503 24.2932 38.3024 27.5037 36.9725C30.7142 35.6427 33.4583 33.3907 35.3889 30.5013C37.3195 27.612 38.35 24.215 38.35 20.74C38.3447 16.0817 36.4919 11.6158 33.198 8.32196C29.9041 5.02809 25.4382 3.17528 20.78 3.16998Z" fill="#696969"/>
<g filter="url(#filter3_di_106_181)">
<path d="M20.78 35.56C28.9428 35.56 35.56 28.9428 35.56 20.78C35.56 12.6172 28.9428 6 20.78 6C12.6172 6 6 12.6172 6 20.78C6 28.9428 12.6172 35.56 20.78 35.56Z" fill="url(#paint11_linear_106_181)" shape-rendering="crispEdges"/>
</g>
<g filter="url(#filter4_i_106_181)">
<path d="M22.3599 23.85C22.6099 23.66 22.8199 23.52 23.0099 23.36C23.5044 22.9867 23.9162 22.515 24.2191 21.9745C24.5221 21.434 24.7096 20.8366 24.7699 20.22C24.8345 19.7473 24.7346 19.2667 24.487 18.8589C24.2394 18.451 23.8591 18.1407 23.4099 17.98C23.0007 17.8222 22.551 17.8032 22.13 17.9261C21.7089 18.049 21.34 18.3068 21.0799 18.66L20.8799 18.91L20.7199 18.71C20.4873 18.4119 20.1792 18.1815 19.8275 18.0426C19.4758 17.9037 19.0934 17.8614 18.7199 17.92C18.351 17.9777 18.0056 18.1375 17.7228 18.3814C17.44 18.6253 17.2312 18.9435 17.1199 19.3C16.9974 19.682 16.9581 20.0858 17.0047 20.4842C17.0513 20.8827 17.1826 21.2665 17.3899 21.61C17.6501 22.1076 18.0363 22.5283 18.5099 22.83C19.5599 23.48 20.6299 24.1 21.6799 24.75C22.1299 25.02 22.5699 25.32 23.0099 25.62C23.4437 25.9364 23.7433 26.4037 23.8499 26.93C23.9732 27.3329 23.9662 27.7645 23.8297 28.1631C23.6932 28.5618 23.4343 28.9072 23.0899 29.15C22.625 29.5743 22.0482 29.8564 21.4278 29.9627C20.8074 30.0691 20.1696 29.9953 19.5899 29.75C19.1275 29.5934 18.7224 29.3022 18.4267 28.9137C18.1309 28.5253 17.9579 28.0574 17.9299 27.57C17.8499 26.67 17.9299 25.77 17.9299 24.87C17.9299 24.66 17.9299 24.45 17.9299 24.24C17.9299 24.03 17.8599 23.87 17.5599 23.87C17.0499 23.87 16.5599 23.87 16.0399 23.87C15.3321 23.8802 14.6243 23.8501 13.9199 23.78C13.5351 23.7323 13.1705 23.5804 12.8657 23.3407C12.5608 23.101 12.3271 22.7827 12.1899 22.42C11.8941 21.8271 11.7763 21.1612 11.8509 20.5028C11.9254 19.8444 12.189 19.2217 12.6099 18.71C12.8311 18.4119 13.1382 18.1886 13.4899 18.07C14.1155 17.8842 14.7682 17.8064 15.4199 17.84C16.1899 17.84 16.9599 17.84 17.7299 17.84C17.8999 17.84 17.8999 17.72 17.8999 17.6C17.8999 16.79 17.8999 15.98 17.8999 15.17C17.8999 14.81 17.9599 14.44 17.9899 14.07C18.0146 13.7063 18.1289 13.3544 18.3225 13.0455C18.5162 12.7367 18.7833 12.4806 19.0999 12.3C19.7422 11.8822 20.507 11.6943 21.2697 11.767C22.0324 11.8396 22.7481 12.1685 23.2999 12.7C23.5135 12.9486 23.6674 13.2428 23.7499 13.56C23.9747 14.4922 24.0457 15.4549 23.9599 16.41C23.9599 16.77 23.9599 17.13 23.9599 17.48C23.9599 17.83 24.0499 17.81 24.2699 17.82C24.7399 17.82 25.1999 17.82 25.6699 17.82C26.1399 17.82 26.6699 17.82 27.1699 17.82C27.8212 17.786 28.4615 17.9971 28.965 18.4117C29.4684 18.8263 29.7983 19.4143 29.8899 20.06C30.0491 20.6239 30.0464 21.2212 29.8819 21.7836C29.7174 22.346 29.3979 22.8507 28.9599 23.24C28.5827 23.6037 28.0836 23.814 27.5599 23.83L22.6499 23.89L22.3599 23.85Z" fill="url(#paint12_linear_106_181)"/>
</g>
<defs>
<filter id="filter0_i_106_181" x="20.77" y="8.14001" width="86.1401" height="25.29" filterUnits="userSpaceOnUse" color-interpolation-filters="sRGB">
<feFlood flood-opacity="0" result="BackgroundImageFix"/>
<feBlend mode="normal" in="SourceGraphic" in2="BackgroundImageFix" result="shape"/>
<feColorMatrix in="SourceAlpha" type="matrix" values="0 0 0 0 0 0 0 0 0 0 0 0 0 0 0 0 0 0 127 0" result="hardAlpha"/>
<feOffset/>
<feGaussianBlur stdDeviation="3"/>
<feComposite in2="hardAlpha" operator="arithmetic" k2="-1" k3="1"/>
<feColorMatrix type="matrix" values="0 0 0 0 0.227451 0 0 0 0 0.913725 0 0 0 0 0.596078 0 0 0 1 0"/>
<feBlend mode="normal" in2="shape" result="effect1_innerShadow_106_181"/>
</filter>
<filter id="filter1_i_106_181" x="20.8501" y="8.14001" width="47.9902" height="25.28" filterUnits="userSpaceOnUse" color-interpolation-filters="sRGB">
<feFlood flood-opacity="0" result="BackgroundImageFix"/>
<feBlend mode="normal" in="SourceGraphic" in2="BackgroundImageFix" result="shape"/>
<feColorMatrix in="SourceAlpha" type="matrix" values="0 0 0 0 0 0 0 0 0 0 0 0 0 0 0 0 0 0 127 0" result="hardAlpha"/>
<feOffset/>
<feGaussianBlur stdDeviation="1"/>
<feComposite in2="hardAlpha" operator="arithmetic" k2="-1" k3="1"/>
<feColorMatrix type="matrix" values="0 0 0 0 1 0 0 0 0 1 0 0 0 0 1 0 0 0 1 0"/>
<feBlend mode="normal" in2="shape" result="effect1_innerShadow_106_181"/>
</filter>
<filter id="filter2_i_106_181" x="75.9199" y="8.14001" width="30.9897" height="25.29" filterUnits="userSpaceOnUse" color-interpolation-filters="sRGB">
<feFlood flood-opacity="0" result="BackgroundImageFix"/>
<feBlend mode="normal" in="SourceGraphic" in2="BackgroundImageFix" result="shape"/>
<feColorMatrix in="SourceAlpha" type="matrix" values="0 0 0 0 0 0 0 0 0 0 0 0 0 0 0 0 0 0 127 0" result="hardAlpha"/>
<feOffset/>
<feGaussianBlur stdDeviation="1"/>
<feComposite in2="hardAlpha" operator="arithmetic" k2="-1" k3="1"/>
<feColorMatrix type="matrix" values="0 0 0 0 1 0 0 0 0 1 0 0 0 0 1 0 0 0 1 0"/>
<feBlend mode="normal" in2="shape" result="effect1_innerShadow_106_181"/>
</filter>
<filter id="filter3_di_106_181" x="0" y="0" width="41.5601" height="41.56" filterUnits="userSpaceOnUse" color-interpolation-filters="sRGB">
<feFlood flood-opacity="0" result="BackgroundImageFix"/>
<feColorMatrix in="SourceAlpha" type="matrix" values="0 0 0 0 0 0 0 0 0 0 0 0 0 0 0 0 0 0 127 0" result="hardAlpha"/>
<feOffset/>
<feGaussianBlur stdDeviation="3"/>
<feComposite in2="hardAlpha" operator="out"/>
<feColorMatrix type="matrix" values="0 0 0 0 0 0 0 0 0 0 0 0 0 0 0 0 0 0 1 0"/>
<feBlend mode="normal" in2="BackgroundImageFix" result="effect1_dropShadow_106_181"/>
<feBlend mode="normal" in="SourceGraphic" in2="effect1_dropShadow_106_181" result="shape"/>
<feColorMatrix in="SourceAlpha" type="matrix" values="0 0 0 0 0 0 0 0 0 0 0 0 0 0 0 0 0 0 127 0" result="hardAlpha"/>
<feOffset/>
<feGaussianBlur stdDeviation="2"/>
<feComposite in2="hardAlpha" operator="arithmetic" k2="-1" k3="1"/>
<feColorMatrix type="matrix" values="0 0 0 0 1 0 0 0 0 1 0 0 0 0 1 0 0 0 0.4 0"/>
<feBlend mode="normal" in2="shape" result="effect2_innerShadow_106_181"/>
</filter>
<filter id="filter4_i_106_181" x="11.8291" y="11.7517" width="18.1782" height="18.2584" filterUnits="userSpaceOnUse" color-interpolation-filters="sRGB">
<feFlood flood-opacity="0" result="BackgroundImageFix"/>
<feBlend mode="normal" in="SourceGraphic" in2="BackgroundImageFix" result="shape"/>
<feColorMatrix in="SourceAlpha" type="matrix" values="0 0 0 0 0 0 0 0 0 0 0 0 0 0 0 0 0 0 127 0" result="hardAlpha"/>
<feOffset/>
<feGaussianBlur stdDeviation="2.5"/>
<feComposite in2="hardAlpha" operator="arithmetic" k2="-1" k3="1"/>
<feColorMatrix type="matrix" values="0 0 0 0 1 0 0 0 0 1 0 0 0 0 1 0 0 0 1 0"/>
<feBlend mode="normal" in2="shape" result="effect1_innerShadow_106_181"/>
</filter>
<linearGradient id="paint0_linear_106_181" x1="135.35" y1="88.87" x2="45.67" y2="3.49001" gradientUnits="userSpaceOnUse">
<stop offset="0.16" stop-opacity="0.6"/>
<stop offset="1" stop-opacity="0.6"/>
</linearGradient>
<linearGradient id="paint1_linear_106_181" x1="44.8501" y1="33.42" x2="44.8501" y2="8.14001" gradientUnits="userSpaceOnUse">
<stop offset="0.15" stop-color="#2A2F32"/>
<stop offset="0.83" stop-color="#3E4346"/>
</linearGradient>
<linearGradient id="paint2_linear_106_181" x1="44.8098" y1="31.26" x2="44.8098" y2="27.7" gradientUnits="userSpaceOnUse">
<stop stop-color="#7E7E7E"/>
<stop offset="0.75"/>
</linearGradient>
<radialGradient id="paint3_radial_106_181" cx="0" cy="0" r="1" gradientUnits="userSpaceOnUse" gradientTransform="translate(44.8097 29.48) scale(1.40001 1.4)">
<stop stop-color="#454545"/>
<stop offset="0.27" stop-color="#222222"/>
<stop offset="0.47" stop-color="#0D0D0D"/>
<stop offset="0.5" stop-color="#1B1B1B"/>
<stop offset="0.56" stop-color="#373737"/>
<stop offset="0.63" stop-color="#4C4C4C"/>
<stop offset="0.7" stop-color="#585858"/>
<stop offset="0.77" stop-color="#5C5C5C"/>
<stop offset="0.89" stop-color="#1A1A1A"/>
<stop offset="0.95"/>
</radialGradient>
<linearGradient id="paint4_linear_106_181" x1="44.8099" y1="29.91" x2="44.8099" y2="29.04" gradientUnits="userSpaceOnUse">
<stop offset="0.43" stop-color="#363636"/>
<stop offset="0.76" stop-color="#232323"/>
<stop offset="1" stop-color="#1A1A1A"/>
</linearGradient>
<linearGradient id="paint5_linear_106_181" x1="44.8097" y1="30.14" x2="44.8097" y2="28.82" gradientUnits="userSpaceOnUse">
<stop stop-color="#363636"/>
<stop offset="0.28" stop-color="#232323"/>
<stop offset="0.5" stop-color="#1A1A1A"/>
<stop offset="1"/>
</linearGradient>
<linearGradient id="paint6_linear_106_181" x1="91.4099" y1="8.14001" x2="91.4099" y2="33.42" gradientUnits="userSpaceOnUse">
<stop offset="0.17" stop-color="#3E4346"/>
<stop offset="0.85" stop-color="#2A2F32"/>
</linearGradient>
<linearGradient id="paint7_linear_106_181" x1="103.59" y1="12.84" x2="103.59" y2="9.91998" gradientUnits="userSpaceOnUse">
<stop stop-color="#7E7E7E"/>
<stop offset="0.75"/>
</linearGradient>
<radialGradient id="paint8_radial_106_181" cx="0" cy="0" r="1" gradientUnits="userSpaceOnUse" gradientTransform="translate(103.59 11.38) scale(1.15001 1.14999)">
<stop stop-color="#454545"/>
<stop offset="0.27" stop-color="#222222"/>
<stop offset="0.47" stop-color="#0D0D0D"/>
<stop offset="0.5" stop-color="#1B1B1B"/>
<stop offset="0.56" stop-color="#373737"/>
<stop offset="0.63" stop-color="#4C4C4C"/>
<stop offset="0.7" stop-color="#585858"/>
<stop offset="0.77" stop-color="#5C5C5C"/>
<stop offset="0.89" stop-color="#1A1A1A"/>
<stop offset="0.95"/>
</radialGradient>
<linearGradient id="paint9_linear_106_181" x1="103.59" y1="11.74" x2="103.59" y2="11.03" gradientUnits="userSpaceOnUse">
<stop offset="0.43" stop-color="#363636"/>
<stop offset="0.76" stop-color="#232323"/>
<stop offset="1" stop-color="#1A1A1A"/>
</linearGradient>
<linearGradient id="paint10_linear_106_181" x1="103.59" y1="11.92" x2="103.59" y2="10.84" gradientUnits="userSpaceOnUse">
<stop stop-color="#363636"/>
<stop offset="0.28" stop-color="#232323"/>
<stop offset="0.5" stop-color="#1A1A1A"/>
<stop offset="1"/>
</linearGradient>
<linearGradient id="paint11_linear_106_181" x1="-6.56" y1="-5.25001" x2="27.73" y2="27.4" gradientUnits="userSpaceOnUse">
<stop offset="0.16" stop-opacity="0.2"/>
<stop offset="1" stop-opacity="0.2"/>
</linearGradient>
<linearGradient id="paint12_linear_106_181" x1="20.8499" y1="30.01" x2="20.8499" y2="11.74" gradientUnits="userSpaceOnUse">
<stop offset="0.15" stop-color="#2A2F32"/>
<stop offset="0.88" stop-color="#595D60"/>
</linearGradient>
</defs>
</svg>
