<svg width="138" height="30" viewBox="0 0 138 30" fill="none" xmlns="http://www.w3.org/2000/svg">
<g filter="url(#filter0_i_106_120)">
<path d="M2.14999 0H135.63L137.78 2.15001V27.6L135.63 29.75H2.14999L0 27.6V2.15001L2.14999 0Z" fill="url(#paint0_linear_106_120)"/>
</g>
<g filter="url(#filter1_i_106_120)">
<path d="M1.76999 0H31.53V29.75H1.76999L0 27.98V1.77L1.76999 0Z" fill="url(#paint1_linear_106_120)"/>
</g>
<g filter="url(#filter2_di_106_120)">
<path d="M12.1897 13.25L12.6697 13.11C13.7697 12.77 13.7997 12.7 13.6197 11.58C13.4397 10.46 13.1797 9.17003 13.0597 7.96003C12.9897 7.27003 12.6497 7.09002 12.0597 7.06002C11.6584 7.03296 11.2557 7.0869 10.8756 7.21863C10.4955 7.35036 10.1457 7.55719 9.84721 7.82682C9.54866 8.09644 9.30741 8.42334 9.13776 8.78809C8.96812 9.15284 8.87356 9.548 8.85972 9.95003C8.83295 10.7932 8.88653 11.637 9.01972 12.47C9.50688 15.3354 10.9938 17.9353 13.2163 19.8082C15.4389 21.6811 18.2533 22.7057 21.1597 22.7C21.5906 22.7033 22.0175 22.6162 22.4126 22.4442C22.8077 22.2722 23.1623 22.0193 23.4536 21.7016C23.7448 21.384 23.9661 21.0088 24.1033 20.6003C24.2404 20.1918 24.2903 19.759 24.2497 19.33C24.2497 18.79 24.0397 18.49 23.4397 18.42C22.3397 18.3 21.2597 18.09 20.1597 17.94C18.6497 17.73 18.7397 17.37 18.1597 19.1C18.1597 19.15 18.0797 19.18 17.9997 19.25C16.6363 18.7619 15.4033 17.9671 14.3959 16.9267C13.3885 15.8864 12.6337 14.6284 12.1897 13.25Z" fill="url(#paint2_linear_106_120)"/>
</g>
<path d="M2.99979 27.98C3.94972 27.98 4.71976 27.2099 4.71976 26.26C4.71976 25.31 3.94972 24.54 2.99979 24.54C2.04986 24.54 1.27979 25.31 1.27979 26.26C1.27979 27.2099 2.04986 27.98 2.99979 27.98Z" fill="url(#paint3_linear_106_120)"/>
<path d="M2.99991 27.61C3.74549 27.61 4.34988 27.0056 4.34988 26.26C4.34988 25.5144 3.74549 24.91 2.99991 24.91C2.25432 24.91 1.6499 25.5144 1.6499 26.26C1.6499 27.0056 2.25432 27.61 2.99991 27.61Z" fill="url(#paint4_radial_106_120)"/>
<path d="M3.00009 26.68C3.23205 26.68 3.42007 26.492 3.42007 26.26C3.42007 26.0281 3.23205 25.84 3.00009 25.84C2.76813 25.84 2.58008 26.0281 2.58008 26.26C2.58008 26.492 2.76813 26.68 3.00009 26.68Z" fill="url(#paint5_linear_106_120)"/>
<path d="M2.35986 26.26C2.35986 26.4271 2.42622 26.5873 2.54437 26.7055C2.66252 26.8236 2.82278 26.89 2.98987 26.89C3.0726 26.89 3.15452 26.8737 3.23096 26.8421C3.30739 26.8104 3.37683 26.764 3.43533 26.7055C3.49383 26.647 3.54024 26.5775 3.5719 26.5011C3.60356 26.4247 3.61987 26.3427 3.61987 26.26C3.61987 26.1773 3.60356 26.0954 3.5719 26.0189C3.54024 25.9425 3.49383 25.873 3.43533 25.8145C3.37683 25.756 3.30739 25.7096 3.23096 25.678C3.15452 25.6463 3.0726 25.63 2.98987 25.63C2.82278 25.63 2.66252 25.6964 2.54437 25.8145C2.42622 25.9327 2.35986 26.0929 2.35986 26.26ZM2.57986 26.26C2.57853 26.2053 2.58815 26.1509 2.60815 26.1C2.62816 26.0491 2.65814 26.0027 2.69635 25.9636C2.73456 25.9245 2.78022 25.8934 2.83063 25.8721C2.88103 25.8509 2.93517 25.84 2.98987 25.84C3.10126 25.84 3.20807 25.8842 3.28683 25.963C3.3656 26.0418 3.40985 26.1486 3.40985 26.26C3.40985 26.3714 3.3656 26.4782 3.28683 26.557C3.20807 26.6358 3.10126 26.68 2.98987 26.68C2.93602 26.6787 2.88296 26.6668 2.83371 26.645C2.78446 26.6232 2.74 26.5919 2.70285 26.5529C2.6657 26.5139 2.6366 26.4679 2.61722 26.4177C2.59783 26.3674 2.58854 26.3139 2.58987 26.26H2.57986Z" fill="url(#paint6_linear_106_120)"/>
<path d="M2.99979 5.21002C3.94972 5.21002 4.71976 4.43995 4.71976 3.49002C4.71976 2.54009 3.94972 1.77002 2.99979 1.77002C2.04986 1.77002 1.27979 2.54009 1.27979 3.49002C1.27979 4.43995 2.04986 5.21002 2.99979 5.21002Z" fill="url(#paint7_linear_106_120)"/>
<path d="M2.99991 4.84001C3.74549 4.84001 4.34988 4.23561 4.34988 3.49002C4.34988 2.74444 3.74549 2.14001 2.99991 2.14001C2.25432 2.14001 1.6499 2.74444 1.6499 3.49002C1.6499 4.23561 2.25432 4.84001 2.99991 4.84001Z" fill="url(#paint8_radial_106_120)"/>
<path d="M3.00009 3.91C3.23205 3.91 3.42007 3.72197 3.42007 3.49001C3.42007 3.25805 3.23205 3.07001 3.00009 3.07001C2.76813 3.07001 2.58008 3.25805 2.58008 3.49001C2.58008 3.72197 2.76813 3.91 3.00009 3.91Z" fill="url(#paint9_linear_106_120)"/>
<path d="M2.35986 3.48999C2.35984 3.65801 2.42589 3.8193 2.54376 3.93904C2.66163 4.05878 2.82187 4.12736 2.98987 4.12999C3.15961 4.12999 3.32239 4.06256 3.44241 3.94254C3.56244 3.82251 3.62985 3.65973 3.62985 3.48999C3.62723 3.32199 3.55864 3.16177 3.4389 3.0439C3.31916 2.92603 3.15789 2.85996 2.98987 2.85999C2.82278 2.85999 2.66252 2.92636 2.54437 3.04451C2.42622 3.16266 2.35986 3.3229 2.35986 3.48999ZM2.57986 3.48999C2.57853 3.43531 2.58815 3.38092 2.60815 3.33002C2.62816 3.27911 2.65814 3.23273 2.69635 3.19359C2.73456 3.15445 2.78022 3.12335 2.83063 3.10213C2.88103 3.0809 2.93517 3.06998 2.98987 3.06999C3.10126 3.06999 3.20807 3.11424 3.28683 3.19301C3.3656 3.27177 3.40985 3.3786 3.40985 3.48999C3.40985 3.60138 3.3656 3.70821 3.28683 3.78697C3.20807 3.86574 3.10126 3.90999 2.98987 3.90999C2.93602 3.90869 2.88296 3.8968 2.83371 3.87498C2.78446 3.85317 2.74 3.82187 2.70285 3.78287C2.6657 3.74386 2.6366 3.69793 2.61722 3.64767C2.59783 3.59742 2.58854 3.54384 2.58987 3.48999H2.57986Z" fill="url(#paint10_linear_106_120)"/>
<g filter="url(#filter3_i_106_120)">
<path d="M136.01 0H131.78V29.75H136.01L137.78 27.98V1.77L136.01 0Z" fill="url(#paint11_linear_106_120)"/>
</g>
<path d="M134.78 27.98C135.73 27.98 136.5 27.2099 136.5 26.26C136.5 25.31 135.73 24.54 134.78 24.54C133.83 24.54 133.06 25.31 133.06 26.26C133.06 27.2099 133.83 27.98 134.78 27.98Z" fill="url(#paint12_linear_106_120)"/>
<path d="M134.78 27.61C135.526 27.61 136.13 27.0056 136.13 26.26C136.13 25.5144 135.526 24.91 134.78 24.91C134.035 24.91 133.43 25.5144 133.43 26.26C133.43 27.0056 134.035 27.61 134.78 27.61Z" fill="url(#paint13_radial_106_120)"/>
<path d="M134.78 26.68C135.012 26.68 135.2 26.492 135.2 26.26C135.2 26.0281 135.012 25.84 134.78 25.84C134.548 25.84 134.36 26.0281 134.36 26.26C134.36 26.492 134.548 26.68 134.78 26.68Z" fill="url(#paint14_linear_106_120)"/>
<path d="M134.78 25.63C134.655 25.63 134.533 25.667 134.43 25.7362C134.326 25.8054 134.246 25.9038 134.198 26.0189C134.15 26.134 134.138 26.2607 134.162 26.3829C134.186 26.5051 134.246 26.6174 134.334 26.7055C134.423 26.7936 134.535 26.8536 134.657 26.8779C134.779 26.9022 134.906 26.8897 135.021 26.8421C135.136 26.7944 135.235 26.7136 135.304 26.61C135.373 26.5064 135.41 26.3846 135.41 26.26C135.41 26.0929 135.344 25.9327 135.225 25.8145C135.107 25.6964 134.947 25.63 134.78 25.63ZM134.78 26.68C134.697 26.68 134.616 26.6554 134.547 26.6092C134.477 26.5631 134.424 26.4975 134.392 26.4207C134.36 26.344 134.352 26.2595 134.368 26.1781C134.384 26.0966 134.424 26.0218 134.483 25.963C134.542 25.9043 134.617 25.8643 134.698 25.8481C134.779 25.8319 134.864 25.8402 134.941 25.872C135.017 25.9038 135.083 25.9576 135.129 26.0267C135.175 26.0957 135.2 26.1769 135.2 26.26C135.2 26.3714 135.156 26.4782 135.077 26.557C134.998 26.6358 134.891 26.68 134.78 26.68Z" fill="url(#paint15_linear_106_120)"/>
<path d="M134.78 5.21002C135.73 5.21002 136.5 4.43995 136.5 3.49002C136.5 2.54009 135.73 1.77002 134.78 1.77002C133.83 1.77002 133.06 2.54009 133.06 3.49002C133.06 4.43995 133.83 5.21002 134.78 5.21002Z" fill="url(#paint16_linear_106_120)"/>
<path d="M134.78 4.84001C135.526 4.84001 136.13 4.23561 136.13 3.49002C136.13 2.74444 135.526 2.14001 134.78 2.14001C134.035 2.14001 133.43 2.74444 133.43 3.49002C133.43 4.23561 134.035 4.84001 134.78 4.84001Z" fill="url(#paint17_radial_106_120)"/>
<path d="M134.78 3.91C135.012 3.91 135.2 3.72197 135.2 3.49001C135.2 3.25805 135.012 3.07001 134.78 3.07001C134.548 3.07001 134.36 3.25805 134.36 3.49001C134.36 3.72197 134.548 3.91 134.78 3.91Z" fill="url(#paint18_linear_106_120)"/>
<path d="M134.78 2.88C134.613 2.88 134.453 2.94638 134.334 3.06453C134.216 3.18268 134.15 3.34292 134.15 3.51001C134.15 3.6771 134.216 3.83733 134.334 3.95547C134.453 4.07362 134.613 4.14 134.78 4.14C134.947 4.14 135.107 4.07362 135.225 3.95547C135.344 3.83733 135.41 3.6771 135.41 3.51001C135.41 3.34292 135.344 3.18268 135.225 3.06453C135.107 2.94638 134.947 2.88 134.78 2.88ZM134.78 3.93001C134.697 3.93001 134.616 3.90537 134.547 3.85922C134.477 3.81307 134.424 3.74748 134.392 3.67073C134.36 3.59399 134.352 3.50954 134.368 3.42807C134.384 3.3466 134.424 3.27175 134.483 3.21301C134.542 3.15427 134.616 3.11427 134.698 3.09807C134.779 3.08186 134.864 3.09019 134.941 3.12198C135.017 3.15377 135.083 3.2076 135.129 3.27667C135.175 3.34574 135.2 3.42694 135.2 3.51001C135.188 3.61252 135.138 3.70691 135.061 3.77516C134.983 3.84341 134.883 3.88074 134.78 3.88V3.93001Z" fill="url(#paint19_linear_106_120)"/>
<defs>
<filter id="filter0_i_106_120" x="0" y="0" width="137.78" height="29.75" filterUnits="userSpaceOnUse" color-interpolation-filters="sRGB">
<feFlood flood-opacity="0" result="BackgroundImageFix"/>
<feBlend mode="normal" in="SourceGraphic" in2="BackgroundImageFix" result="shape"/>
<feColorMatrix in="SourceAlpha" type="matrix" values="0 0 0 0 0 0 0 0 0 0 0 0 0 0 0 0 0 0 127 0" result="hardAlpha"/>
<feOffset/>
<feGaussianBlur stdDeviation="3"/>
<feComposite in2="hardAlpha" operator="arithmetic" k2="-1" k3="1"/>
<feColorMatrix type="matrix" values="0 0 0 0 0.227451 0 0 0 0 0.913725 0 0 0 0 0.596078 0 0 0 1 0"/>
<feBlend mode="normal" in2="shape" result="effect1_innerShadow_106_120"/>
</filter>
<filter id="filter1_i_106_120" x="0" y="0" width="31.5298" height="29.75" filterUnits="userSpaceOnUse" color-interpolation-filters="sRGB">
<feFlood flood-opacity="0" result="BackgroundImageFix"/>
<feBlend mode="normal" in="SourceGraphic" in2="BackgroundImageFix" result="shape"/>
<feColorMatrix in="SourceAlpha" type="matrix" values="0 0 0 0 0 0 0 0 0 0 0 0 0 0 0 0 0 0 127 0" result="hardAlpha"/>
<feOffset/>
<feGaussianBlur stdDeviation="1"/>
<feComposite in2="hardAlpha" operator="arithmetic" k2="-1" k3="1"/>
<feColorMatrix type="matrix" values="0 0 0 0 1 0 0 0 0 1 0 0 0 0 1 0 0 0 1 0"/>
<feBlend mode="normal" in2="shape" result="effect1_innerShadow_106_120"/>
</filter>
<filter id="filter2_di_106_120" x="2.85303" y="1.05322" width="27.4102" height="27.6469" filterUnits="userSpaceOnUse" color-interpolation-filters="sRGB">
<feFlood flood-opacity="0" result="BackgroundImageFix"/>
<feColorMatrix in="SourceAlpha" type="matrix" values="0 0 0 0 0 0 0 0 0 0 0 0 0 0 0 0 0 0 127 0" result="hardAlpha"/>
<feOffset/>
<feGaussianBlur stdDeviation="3"/>
<feComposite in2="hardAlpha" operator="out"/>
<feColorMatrix type="matrix" values="0 0 0 0 0 0 0 0 0 0 0 0 0 0 0 0 0 0 1 0"/>
<feBlend mode="normal" in2="BackgroundImageFix" result="effect1_dropShadow_106_120"/>
<feBlend mode="normal" in="SourceGraphic" in2="effect1_dropShadow_106_120" result="shape"/>
<feColorMatrix in="SourceAlpha" type="matrix" values="0 0 0 0 0 0 0 0 0 0 0 0 0 0 0 0 0 0 127 0" result="hardAlpha"/>
<feOffset/>
<feGaussianBlur stdDeviation="2.5"/>
<feComposite in2="hardAlpha" operator="arithmetic" k2="-1" k3="1"/>
<feColorMatrix type="matrix" values="0 0 0 0 1 0 0 0 0 1 0 0 0 0 1 0 0 0 1 0"/>
<feBlend mode="normal" in2="shape" result="effect2_innerShadow_106_120"/>
</filter>
<filter id="filter3_i_106_120" x="131.78" y="0" width="6" height="29.75" filterUnits="userSpaceOnUse" color-interpolation-filters="sRGB">
<feFlood flood-opacity="0" result="BackgroundImageFix"/>
<feBlend mode="normal" in="SourceGraphic" in2="BackgroundImageFix" result="shape"/>
<feColorMatrix in="SourceAlpha" type="matrix" values="0 0 0 0 0 0 0 0 0 0 0 0 0 0 0 0 0 0 127 0" result="hardAlpha"/>
<feOffset/>
<feGaussianBlur stdDeviation="1"/>
<feComposite in2="hardAlpha" operator="arithmetic" k2="-1" k3="1"/>
<feColorMatrix type="matrix" values="0 0 0 0 1 0 0 0 0 1 0 0 0 0 1 0 0 0 1 0"/>
<feBlend mode="normal" in2="shape" result="effect1_innerShadow_106_120"/>
</filter>
<linearGradient id="paint0_linear_106_120" x1="177.43" y1="118.22" x2="41.32" y2="-11.37" gradientUnits="userSpaceOnUse">
<stop offset="0.16" stop-opacity="0.6"/>
<stop offset="1" stop-opacity="0.6"/>
</linearGradient>
<linearGradient id="paint1_linear_106_120" x1="15.77" y1="29.74" x2="15.77" y2="0" gradientUnits="userSpaceOnUse">
<stop offset="0.15" stop-color="#2A2F32"/>
<stop offset="0.83" stop-color="#3E4346"/>
</linearGradient>
<linearGradient id="paint2_linear_106_120" x1="16.5497" y1="22.7" x2="16.5497" y2="7.05002" gradientUnits="userSpaceOnUse">
<stop offset="0.15" stop-color="#2A2F32"/>
<stop offset="0.88" stop-color="#595D60"/>
</linearGradient>
<linearGradient id="paint3_linear_106_120" x1="3.00977" y1="27.98" x2="3.00977" y2="24.54" gradientUnits="userSpaceOnUse">
<stop stop-color="#7E7E7E"/>
<stop offset="0.75"/>
</linearGradient>
<radialGradient id="paint4_radial_106_120" cx="0" cy="0" r="1" gradientUnits="userSpaceOnUse" gradientTransform="translate(2.99989 26.26) scale(1.34999 1.35)">
<stop stop-color="#454545"/>
<stop offset="0.27" stop-color="#222222"/>
<stop offset="0.47" stop-color="#0D0D0D"/>
<stop offset="0.5" stop-color="#1B1B1B"/>
<stop offset="0.56" stop-color="#373737"/>
<stop offset="0.63" stop-color="#4C4C4C"/>
<stop offset="0.7" stop-color="#585858"/>
<stop offset="0.77" stop-color="#5C5C5C"/>
<stop offset="0.89" stop-color="#1A1A1A"/>
<stop offset="0.95"/>
</radialGradient>
<linearGradient id="paint5_linear_106_120" x1="3.00008" y1="26.67" x2="3.00008" y2="25.84" gradientUnits="userSpaceOnUse">
<stop offset="0.43" stop-color="#363636"/>
<stop offset="0.76" stop-color="#232323"/>
<stop offset="1" stop-color="#1A1A1A"/>
</linearGradient>
<linearGradient id="paint6_linear_106_120" x1="3.00987" y1="26.89" x2="3.00987" y2="25.63" gradientUnits="userSpaceOnUse">
<stop stop-color="#363636"/>
<stop offset="0.28" stop-color="#232323"/>
<stop offset="0.5" stop-color="#1A1A1A"/>
<stop offset="1"/>
</linearGradient>
<linearGradient id="paint7_linear_106_120" x1="3.00977" y1="5.21002" x2="3.00977" y2="1.77002" gradientUnits="userSpaceOnUse">
<stop stop-color="#7E7E7E"/>
<stop offset="0.75"/>
</linearGradient>
<radialGradient id="paint8_radial_106_120" cx="0" cy="0" r="1" gradientUnits="userSpaceOnUse" gradientTransform="translate(2.99989 3.49001) scale(1.34999 1.35)">
<stop stop-color="#454545"/>
<stop offset="0.27" stop-color="#222222"/>
<stop offset="0.47" stop-color="#0D0D0D"/>
<stop offset="0.5" stop-color="#1B1B1B"/>
<stop offset="0.56" stop-color="#373737"/>
<stop offset="0.63" stop-color="#4C4C4C"/>
<stop offset="0.7" stop-color="#585858"/>
<stop offset="0.77" stop-color="#5C5C5C"/>
<stop offset="0.89" stop-color="#1A1A1A"/>
<stop offset="0.95"/>
</radialGradient>
<linearGradient id="paint9_linear_106_120" x1="3.00008" y1="3.91" x2="3.00008" y2="3.07001" gradientUnits="userSpaceOnUse">
<stop offset="0.43" stop-color="#363636"/>
<stop offset="0.76" stop-color="#232323"/>
<stop offset="1" stop-color="#1A1A1A"/>
</linearGradient>
<linearGradient id="paint10_linear_106_120" x1="3.00986" y1="4.12999" x2="3.00986" y2="2.85999" gradientUnits="userSpaceOnUse">
<stop stop-color="#363636"/>
<stop offset="0.28" stop-color="#232323"/>
<stop offset="0.5" stop-color="#1A1A1A"/>
<stop offset="1"/>
</linearGradient>
<linearGradient id="paint11_linear_106_120" x1="134.78" y1="29.74" x2="134.78" y2="0" gradientUnits="userSpaceOnUse">
<stop offset="0.15" stop-color="#2A2F32"/>
<stop offset="0.83" stop-color="#3E4346"/>
</linearGradient>
<linearGradient id="paint12_linear_106_120" x1="134.78" y1="27.98" x2="134.78" y2="24.54" gradientUnits="userSpaceOnUse">
<stop stop-color="#7E7E7E"/>
<stop offset="0.75"/>
</linearGradient>
<radialGradient id="paint13_radial_106_120" cx="0" cy="0" r="1" gradientUnits="userSpaceOnUse" gradientTransform="translate(134.78 26.26) rotate(180) scale(1.34999 1.35)">
<stop stop-color="#454545"/>
<stop offset="0.27" stop-color="#222222"/>
<stop offset="0.47" stop-color="#0D0D0D"/>
<stop offset="0.5" stop-color="#1B1B1B"/>
<stop offset="0.56" stop-color="#373737"/>
<stop offset="0.63" stop-color="#4C4C4C"/>
<stop offset="0.7" stop-color="#585858"/>
<stop offset="0.77" stop-color="#5C5C5C"/>
<stop offset="0.89" stop-color="#1A1A1A"/>
<stop offset="0.95"/>
</radialGradient>
<linearGradient id="paint14_linear_106_120" x1="134.78" y1="26.67" x2="134.78" y2="25.84" gradientUnits="userSpaceOnUse">
<stop offset="0.43" stop-color="#363636"/>
<stop offset="0.76" stop-color="#232323"/>
<stop offset="1" stop-color="#1A1A1A"/>
</linearGradient>
<linearGradient id="paint15_linear_106_120" x1="134.78" y1="26.89" x2="134.78" y2="25.63" gradientUnits="userSpaceOnUse">
<stop stop-color="#363636"/>
<stop offset="0.28" stop-color="#232323"/>
<stop offset="0.5" stop-color="#1A1A1A"/>
<stop offset="1"/>
</linearGradient>
<linearGradient id="paint16_linear_106_120" x1="134.78" y1="5.21002" x2="134.78" y2="1.77002" gradientUnits="userSpaceOnUse">
<stop stop-color="#7E7E7E"/>
<stop offset="0.75"/>
</linearGradient>
<radialGradient id="paint17_radial_106_120" cx="0" cy="0" r="1" gradientUnits="userSpaceOnUse" gradientTransform="translate(134.78 3.49001) rotate(180) scale(1.34999 1.35)">
<stop stop-color="#454545"/>
<stop offset="0.27" stop-color="#222222"/>
<stop offset="0.47" stop-color="#0D0D0D"/>
<stop offset="0.5" stop-color="#1B1B1B"/>
<stop offset="0.56" stop-color="#373737"/>
<stop offset="0.63" stop-color="#4C4C4C"/>
<stop offset="0.7" stop-color="#585858"/>
<stop offset="0.77" stop-color="#5C5C5C"/>
<stop offset="0.89" stop-color="#1A1A1A"/>
<stop offset="0.95"/>
</radialGradient>
<linearGradient id="paint18_linear_106_120" x1="134.78" y1="3.91" x2="134.78" y2="3.07001" gradientUnits="userSpaceOnUse">
<stop offset="0.43" stop-color="#363636"/>
<stop offset="0.76" stop-color="#232323"/>
<stop offset="1" stop-color="#1A1A1A"/>
</linearGradient>
<linearGradient id="paint19_linear_106_120" x1="134.78" y1="4.13" x2="134.78" y2="2.86" gradientUnits="userSpaceOnUse">
<stop stop-color="#363636"/>
<stop offset="0.28" stop-color="#232323"/>
<stop offset="0.5" stop-color="#1A1A1A"/>
<stop offset="1"/>
</linearGradient>
</defs>
</svg>
