<svg width="139" height="30" viewBox="0 0 139 30" fill="none" xmlns="http://www.w3.org/2000/svg">
<g filter="url(#filter0_i_106_142)">
<path d="M2.55966 0H136.04L138.19 2.15001V27.6L136.04 29.75H2.55966L0.409668 27.6V2.15001L2.55966 0Z" fill="url(#paint0_linear_106_142)"/>
</g>
<g filter="url(#filter1_i_106_142)">
<path d="M2.17966 0H31.9397V29.75H2.17966L0.409668 27.98V1.77L2.17966 0Z" fill="url(#paint1_linear_106_142)"/>
</g>
<g filter="url(#filter2_di_106_142)">
<path d="M19.73 21.81H13.73C13.16 21.81 13.09 21.74 13.11 21.18C13.173 19.84 13.6392 18.5503 14.4474 17.4797C15.2557 16.4091 16.3685 15.6075 17.64 15.18C18.9193 14.7542 20.2985 14.7311 21.5913 15.1138C22.8842 15.4965 24.0285 16.2665 24.87 17.32C25.7751 18.4333 26.2851 19.8156 26.32 21.25C26.32 21.7 26.25 21.77 25.8 21.77L19.73 21.81ZM14.73 16.15L14.56 16.01C13.5024 15.131 12.1397 14.7067 10.77 14.83C9.49448 14.9508 8.3067 15.5322 7.42877 16.4653C6.55084 17.3985 6.04291 18.6195 6 19.9C6 20.23 6.13 20.38 6.47 20.37C8.4 20.37 10.34 20.37 12.27 20.37C12.56 20.37 12.65 20.27 12.71 20C12.8496 19.1814 13.1597 18.4012 13.62 17.71C13.97 17.19 14.37 16.71 14.75 16.2C14.7466 16.1802 14.7359 16.1623 14.72 16.15H14.73ZM22.96 11.15C22.9646 10.7311 22.8866 10.3154 22.7306 9.92657C22.5745 9.53778 22.3434 9.18354 22.0504 8.88407C21.7574 8.5846 21.4084 8.34578 21.0231 8.18122C20.6378 8.01666 20.2239 7.92959 19.805 7.925C19.3861 7.9204 18.9704 7.99836 18.5816 8.15443C18.1928 8.31049 17.8386 8.5416 17.5391 8.83457C17.2396 9.12754 17.0008 9.47663 16.8362 9.8619C16.6717 10.2472 16.5846 10.6611 16.58 11.08C16.5707 11.926 16.8979 12.7411 17.4896 13.3459C18.0813 13.9507 18.889 14.2957 19.735 14.305C20.5811 14.3143 21.3961 13.9871 22.0009 13.3954C22.6057 12.8037 22.9507 11.996 22.96 11.15ZM8.69 11.85C8.67788 12.1906 8.73469 12.5301 8.85703 12.8482C8.97936 13.1663 9.1647 13.4564 9.40192 13.7011C9.63913 13.9457 9.92332 14.14 10.2375 14.2721C10.5516 14.4043 10.8892 14.4716 11.23 14.47C11.579 14.4918 11.9287 14.442 12.2577 14.3234C12.5866 14.2049 12.8878 14.0203 13.1427 13.7809C13.3975 13.5415 13.6006 13.2524 13.7395 12.9315C13.8783 12.6106 13.9499 12.2647 13.9499 11.915C13.9499 11.5653 13.8783 11.2194 13.7395 10.8985C13.6006 10.5776 13.3975 10.2885 13.1427 10.0491C12.8878 9.80973 12.5866 9.62508 12.2577 9.50655C11.9287 9.38803 11.579 9.33815 11.23 9.35999C10.8966 9.35602 10.5657 9.41828 10.2564 9.54315C9.94723 9.66801 9.66587 9.853 9.42868 10.0874C9.19149 10.3218 9.00318 10.6009 8.87466 10.9087C8.74615 11.2164 8.67997 11.5465 8.67999 11.88L8.69 11.85Z" fill="url(#paint2_linear_106_142)"/>
</g>
<path d="M3.40945 27.98C4.35938 27.98 5.12946 27.2099 5.12946 26.26C5.12946 25.31 4.35938 24.54 3.40945 24.54C2.45952 24.54 1.68945 25.31 1.68945 26.26C1.68945 27.2099 2.45952 27.98 3.40945 27.98Z" fill="url(#paint3_linear_106_142)"/>
<path d="M3.40958 27.61C4.15516 27.61 4.75958 27.0056 4.75958 26.26C4.75958 25.5144 4.15516 24.91 3.40958 24.91C2.66399 24.91 2.05957 25.5144 2.05957 26.26C2.05957 27.0056 2.66399 27.61 3.40958 27.61Z" fill="url(#paint4_radial_106_142)"/>
<path d="M3.40976 26.68C3.64172 26.68 3.82977 26.492 3.82977 26.26C3.82977 26.0281 3.64172 25.84 3.40976 25.84C3.1778 25.84 2.98975 26.0281 2.98975 26.26C2.98975 26.492 3.1778 26.68 3.40976 26.68Z" fill="url(#paint5_linear_106_142)"/>
<path d="M2.77937 26.26C2.7774 26.3874 2.81352 26.5125 2.88307 26.6193C2.95263 26.7261 3.05247 26.8096 3.16982 26.8593C3.28716 26.909 3.41666 26.9225 3.54173 26.8981C3.66681 26.8738 3.78174 26.8126 3.87184 26.7225C3.96195 26.6324 4.0231 26.5174 4.04747 26.3924C4.07185 26.2673 4.05833 26.1378 4.00865 26.0204C3.95898 25.9031 3.87543 25.8033 3.76866 25.7337C3.6619 25.6641 3.53679 25.628 3.40938 25.63C3.24229 25.63 3.08206 25.6964 2.96391 25.8145C2.84577 25.9327 2.77937 26.0929 2.77937 26.26ZM2.99938 26.26C2.9994 26.1765 3.0243 26.0949 3.07091 26.0257C3.11752 25.9564 3.1837 25.9026 3.26103 25.8711C3.33836 25.8397 3.42332 25.8319 3.50505 25.849C3.58678 25.866 3.66161 25.907 3.71993 25.9668C3.77825 26.0265 3.81742 26.1023 3.83247 26.1844C3.84753 26.2665 3.83779 26.3512 3.80446 26.4278C3.77113 26.5043 3.71574 26.5692 3.64537 26.6142C3.575 26.6591 3.49284 26.682 3.40938 26.68C3.35468 26.68 3.30054 26.6691 3.25014 26.6479C3.19973 26.6267 3.15407 26.5956 3.11586 26.5564C3.07765 26.5173 3.04767 26.4709 3.02766 26.42C3.00766 26.3691 2.99804 26.3147 2.99938 26.26Z" fill="url(#paint6_linear_106_142)"/>
<path d="M3.40945 5.21002C4.35938 5.21002 5.12946 4.43995 5.12946 3.49002C5.12946 2.54009 4.35938 1.77002 3.40945 1.77002C2.45952 1.77002 1.68945 2.54009 1.68945 3.49002C1.68945 4.43995 2.45952 5.21002 3.40945 5.21002Z" fill="url(#paint7_linear_106_142)"/>
<path d="M3.40958 4.84001C4.15516 4.84001 4.75958 4.23561 4.75958 3.49002C4.75958 2.74444 4.15516 2.14001 3.40958 2.14001C2.66399 2.14001 2.05957 2.74444 2.05957 3.49002C2.05957 4.23561 2.66399 4.84001 3.40958 4.84001Z" fill="url(#paint8_radial_106_142)"/>
<path d="M3.40976 3.91C3.64172 3.91 3.82977 3.72197 3.82977 3.49001C3.82977 3.25805 3.64172 3.07001 3.40976 3.07001C3.1778 3.07001 2.98975 3.25805 2.98975 3.49001C2.98975 3.72197 3.1778 3.91 3.40976 3.91Z" fill="url(#paint9_linear_106_142)"/>
<path d="M2.77937 3.49001C2.7774 3.61742 2.81352 3.74251 2.88307 3.84927C2.95263 3.95604 3.05247 4.03962 3.16982 4.0893C3.28716 4.13897 3.41666 4.15249 3.54173 4.12811C3.66681 4.10374 3.78174 4.04257 3.87184 3.95247C3.96195 3.86237 4.0231 3.74742 4.04747 3.62235C4.07185 3.49727 4.05833 3.36777 4.00865 3.25043C3.95898 3.13308 3.87543 3.03324 3.76866 2.96368C3.6619 2.89413 3.53679 2.85803 3.40938 2.86C3.24229 2.86 3.08206 2.92638 2.96391 3.04453C2.84577 3.16267 2.77937 3.32292 2.77937 3.49001ZM2.99938 3.49001C2.9994 3.40652 3.0243 3.32493 3.07091 3.25566C3.11752 3.18639 3.1837 3.13258 3.26103 3.10111C3.33836 3.06963 3.42332 3.06193 3.50505 3.07896C3.58678 3.096 3.66161 3.13699 3.71993 3.19673C3.77825 3.25647 3.81742 3.33225 3.83247 3.41437C3.84753 3.49649 3.83779 3.58123 3.80446 3.65778C3.77113 3.73433 3.71574 3.79921 3.64537 3.84413C3.575 3.88906 3.49284 3.91199 3.40938 3.91C3.35468 3.91002 3.30054 3.8991 3.25014 3.87787C3.19973 3.85664 3.15407 3.82555 3.11586 3.78641C3.07765 3.74727 3.04767 3.70088 3.02766 3.64998C3.00766 3.59908 2.99804 3.54468 2.99938 3.49001Z" fill="url(#paint10_linear_106_142)"/>
<g filter="url(#filter3_i_106_142)">
<path d="M136.419 0H132.189V29.75H136.419L138.189 27.98V1.77L136.419 0Z" fill="url(#paint11_linear_106_142)"/>
</g>
<path d="M135.19 27.98C136.14 27.98 136.91 27.2099 136.91 26.26C136.91 25.31 136.14 24.54 135.19 24.54C134.24 24.54 133.47 25.31 133.47 26.26C133.47 27.2099 134.24 27.98 135.19 27.98Z" fill="url(#paint12_linear_106_142)"/>
<path d="M135.19 27.61C135.935 27.61 136.54 27.0056 136.54 26.26C136.54 25.5144 135.935 24.91 135.19 24.91C134.444 24.91 133.84 25.5144 133.84 26.26C133.84 27.0056 134.444 27.61 135.19 27.61Z" fill="url(#paint13_radial_106_142)"/>
<path d="M135.19 26.68C135.421 26.68 135.609 26.492 135.609 26.26C135.609 26.0281 135.421 25.84 135.19 25.84C134.958 25.84 134.77 26.0281 134.77 26.26C134.77 26.492 134.958 26.68 135.19 26.68Z" fill="url(#paint14_linear_106_142)"/>
<path d="M135.19 25.63C135.065 25.63 134.943 25.667 134.84 25.7362C134.736 25.8054 134.655 25.9038 134.608 26.0189C134.56 26.134 134.547 26.2607 134.572 26.3829C134.596 26.5051 134.656 26.6174 134.744 26.7055C134.832 26.7936 134.944 26.8536 135.067 26.8779C135.189 26.9022 135.316 26.8897 135.431 26.8421C135.546 26.7944 135.644 26.7136 135.713 26.61C135.783 26.5064 135.82 26.3846 135.82 26.26C135.82 26.0929 135.753 25.9327 135.635 25.8145C135.517 25.6964 135.357 25.63 135.19 25.63ZM135.19 26.68C135.107 26.68 135.025 26.6554 134.956 26.6092C134.887 26.5631 134.833 26.4975 134.802 26.4207C134.77 26.344 134.761 26.2595 134.778 26.1781C134.794 26.0966 134.834 26.0218 134.893 25.963C134.951 25.9043 135.026 25.8643 135.108 25.8481C135.189 25.8319 135.274 25.8402 135.35 25.872C135.427 25.9038 135.493 25.9576 135.539 26.0267C135.585 26.0957 135.61 26.1769 135.61 26.26C135.61 26.3714 135.565 26.4782 135.487 26.557C135.408 26.6358 135.301 26.68 135.19 26.68Z" fill="url(#paint15_linear_106_142)"/>
<path d="M135.19 5.21002C136.14 5.21002 136.91 4.43995 136.91 3.49002C136.91 2.54009 136.14 1.77002 135.19 1.77002C134.24 1.77002 133.47 2.54009 133.47 3.49002C133.47 4.43995 134.24 5.21002 135.19 5.21002Z" fill="url(#paint16_linear_106_142)"/>
<path d="M135.19 4.84001C135.935 4.84001 136.54 4.23561 136.54 3.49002C136.54 2.74444 135.935 2.14001 135.19 2.14001C134.444 2.14001 133.84 2.74444 133.84 3.49002C133.84 4.23561 134.444 4.84001 135.19 4.84001Z" fill="url(#paint17_radial_106_142)"/>
<path d="M135.19 3.91C135.421 3.91 135.609 3.72197 135.609 3.49001C135.609 3.25805 135.421 3.07001 135.19 3.07001C134.958 3.07001 134.77 3.25805 134.77 3.49001C134.77 3.72197 134.958 3.91 135.19 3.91Z" fill="url(#paint18_linear_106_142)"/>
<path d="M135.19 2.88C135.022 2.88 134.862 2.94638 134.744 3.06453C134.626 3.18268 134.56 3.34292 134.56 3.51001C134.56 3.6771 134.626 3.83733 134.744 3.95547C134.862 4.07362 135.022 4.14 135.19 4.14C135.357 4.14 135.517 4.07362 135.635 3.95547C135.753 3.83733 135.82 3.6771 135.82 3.51001C135.82 3.34292 135.753 3.18268 135.635 3.06453C135.517 2.94638 135.357 2.88 135.19 2.88ZM135.19 3.93001C135.107 3.93001 135.025 3.90537 134.956 3.85922C134.887 3.81307 134.833 3.74748 134.802 3.67073C134.77 3.59399 134.761 3.50954 134.778 3.42807C134.794 3.3466 134.834 3.27175 134.893 3.21301C134.951 3.15427 135.026 3.11427 135.108 3.09807C135.189 3.08186 135.274 3.09019 135.35 3.12198C135.427 3.15377 135.493 3.2076 135.539 3.27667C135.585 3.34574 135.61 3.42694 135.61 3.51001C135.597 3.61252 135.548 3.70691 135.47 3.77516C135.393 3.84341 135.293 3.88074 135.19 3.88V3.93001Z" fill="url(#paint19_linear_106_142)"/>
<defs>
<filter id="filter0_i_106_142" x="0.409668" y="0" width="137.78" height="29.75" filterUnits="userSpaceOnUse" color-interpolation-filters="sRGB">
<feFlood flood-opacity="0" result="BackgroundImageFix"/>
<feBlend mode="normal" in="SourceGraphic" in2="BackgroundImageFix" result="shape"/>
<feColorMatrix in="SourceAlpha" type="matrix" values="0 0 0 0 0 0 0 0 0 0 0 0 0 0 0 0 0 0 127 0" result="hardAlpha"/>
<feOffset/>
<feGaussianBlur stdDeviation="3"/>
<feComposite in2="hardAlpha" operator="arithmetic" k2="-1" k3="1"/>
<feColorMatrix type="matrix" values="0 0 0 0 0.227451 0 0 0 0 0.913725 0 0 0 0 0.596078 0 0 0 1 0"/>
<feBlend mode="normal" in2="shape" result="effect1_innerShadow_106_142"/>
</filter>
<filter id="filter1_i_106_142" x="0.409668" y="0" width="31.5298" height="29.75" filterUnits="userSpaceOnUse" color-interpolation-filters="sRGB">
<feFlood flood-opacity="0" result="BackgroundImageFix"/>
<feBlend mode="normal" in="SourceGraphic" in2="BackgroundImageFix" result="shape"/>
<feColorMatrix in="SourceAlpha" type="matrix" values="0 0 0 0 0 0 0 0 0 0 0 0 0 0 0 0 0 0 127 0" result="hardAlpha"/>
<feOffset/>
<feGaussianBlur stdDeviation="1"/>
<feComposite in2="hardAlpha" operator="arithmetic" k2="-1" k3="1"/>
<feColorMatrix type="matrix" values="0 0 0 0 1 0 0 0 0 1 0 0 0 0 1 0 0 0 1 0"/>
<feBlend mode="normal" in2="shape" result="effect1_innerShadow_106_142"/>
</filter>
<filter id="filter2_di_106_142" x="0" y="1.9248" width="32.3198" height="25.8852" filterUnits="userSpaceOnUse" color-interpolation-filters="sRGB">
<feFlood flood-opacity="0" result="BackgroundImageFix"/>
<feColorMatrix in="SourceAlpha" type="matrix" values="0 0 0 0 0 0 0 0 0 0 0 0 0 0 0 0 0 0 127 0" result="hardAlpha"/>
<feOffset/>
<feGaussianBlur stdDeviation="3"/>
<feComposite in2="hardAlpha" operator="out"/>
<feColorMatrix type="matrix" values="0 0 0 0 0 0 0 0 0 0 0 0 0 0 0 0 0 0 1 0"/>
<feBlend mode="normal" in2="BackgroundImageFix" result="effect1_dropShadow_106_142"/>
<feBlend mode="normal" in="SourceGraphic" in2="effect1_dropShadow_106_142" result="shape"/>
<feColorMatrix in="SourceAlpha" type="matrix" values="0 0 0 0 0 0 0 0 0 0 0 0 0 0 0 0 0 0 127 0" result="hardAlpha"/>
<feOffset/>
<feGaussianBlur stdDeviation="2.5"/>
<feComposite in2="hardAlpha" operator="arithmetic" k2="-1" k3="1"/>
<feColorMatrix type="matrix" values="0 0 0 0 1 0 0 0 0 1 0 0 0 0 1 0 0 0 1 0"/>
<feBlend mode="normal" in2="shape" result="effect2_innerShadow_106_142"/>
</filter>
<filter id="filter3_i_106_142" x="132.189" y="0" width="6" height="29.75" filterUnits="userSpaceOnUse" color-interpolation-filters="sRGB">
<feFlood flood-opacity="0" result="BackgroundImageFix"/>
<feBlend mode="normal" in="SourceGraphic" in2="BackgroundImageFix" result="shape"/>
<feColorMatrix in="SourceAlpha" type="matrix" values="0 0 0 0 0 0 0 0 0 0 0 0 0 0 0 0 0 0 127 0" result="hardAlpha"/>
<feOffset/>
<feGaussianBlur stdDeviation="1"/>
<feComposite in2="hardAlpha" operator="arithmetic" k2="-1" k3="1"/>
<feColorMatrix type="matrix" values="0 0 0 0 1 0 0 0 0 1 0 0 0 0 1 0 0 0 1 0"/>
<feBlend mode="normal" in2="shape" result="effect1_innerShadow_106_142"/>
</filter>
<linearGradient id="paint0_linear_106_142" x1="177.84" y1="118.22" x2="41.7297" y2="-11.37" gradientUnits="userSpaceOnUse">
<stop offset="0.16" stop-opacity="0.6"/>
<stop offset="1" stop-opacity="0.6"/>
</linearGradient>
<linearGradient id="paint1_linear_106_142" x1="16.1797" y1="29.74" x2="16.1797" y2="0" gradientUnits="userSpaceOnUse">
<stop offset="0.15" stop-color="#2A2F32"/>
<stop offset="0.83" stop-color="#3E4346"/>
</linearGradient>
<linearGradient id="paint2_linear_106_142" x1="16.18" y1="21.81" x2="16.18" y2="7.94" gradientUnits="userSpaceOnUse">
<stop offset="0.15" stop-color="#2A2F32"/>
<stop offset="0.88" stop-color="#595D60"/>
</linearGradient>
<linearGradient id="paint3_linear_106_142" x1="3.41945" y1="27.98" x2="3.41945" y2="24.54" gradientUnits="userSpaceOnUse">
<stop stop-color="#7E7E7E"/>
<stop offset="0.75"/>
</linearGradient>
<radialGradient id="paint4_radial_106_142" cx="0" cy="0" r="1" gradientUnits="userSpaceOnUse" gradientTransform="translate(3.41958 26.26) scale(1.35001 1.35)">
<stop stop-color="#454545"/>
<stop offset="0.27" stop-color="#222222"/>
<stop offset="0.47" stop-color="#0D0D0D"/>
<stop offset="0.5" stop-color="#1B1B1B"/>
<stop offset="0.56" stop-color="#373737"/>
<stop offset="0.63" stop-color="#4C4C4C"/>
<stop offset="0.7" stop-color="#585858"/>
<stop offset="0.77" stop-color="#5C5C5C"/>
<stop offset="0.89" stop-color="#1A1A1A"/>
<stop offset="0.95"/>
</radialGradient>
<linearGradient id="paint5_linear_106_142" x1="3.40976" y1="26.67" x2="3.40976" y2="25.84" gradientUnits="userSpaceOnUse">
<stop offset="0.43" stop-color="#363636"/>
<stop offset="0.76" stop-color="#232323"/>
<stop offset="1" stop-color="#1A1A1A"/>
</linearGradient>
<linearGradient id="paint6_linear_106_142" x1="3.41937" y1="26.89" x2="3.41937" y2="25.63" gradientUnits="userSpaceOnUse">
<stop stop-color="#363636"/>
<stop offset="0.28" stop-color="#232323"/>
<stop offset="0.5" stop-color="#1A1A1A"/>
<stop offset="1"/>
</linearGradient>
<linearGradient id="paint7_linear_106_142" x1="3.41945" y1="5.21002" x2="3.41945" y2="1.77002" gradientUnits="userSpaceOnUse">
<stop stop-color="#7E7E7E"/>
<stop offset="0.75"/>
</linearGradient>
<radialGradient id="paint8_radial_106_142" cx="0" cy="0" r="1" gradientUnits="userSpaceOnUse" gradientTransform="translate(3.41958 3.49001) scale(1.35001 1.35)">
<stop stop-color="#454545"/>
<stop offset="0.27" stop-color="#222222"/>
<stop offset="0.47" stop-color="#0D0D0D"/>
<stop offset="0.5" stop-color="#1B1B1B"/>
<stop offset="0.56" stop-color="#373737"/>
<stop offset="0.63" stop-color="#4C4C4C"/>
<stop offset="0.7" stop-color="#585858"/>
<stop offset="0.77" stop-color="#5C5C5C"/>
<stop offset="0.89" stop-color="#1A1A1A"/>
<stop offset="0.95"/>
</radialGradient>
<linearGradient id="paint9_linear_106_142" x1="3.40976" y1="3.91" x2="3.40976" y2="3.07001" gradientUnits="userSpaceOnUse">
<stop offset="0.43" stop-color="#363636"/>
<stop offset="0.76" stop-color="#232323"/>
<stop offset="1" stop-color="#1A1A1A"/>
</linearGradient>
<linearGradient id="paint10_linear_106_142" x1="3.41937" y1="4.13001" x2="3.41937" y2="2.86" gradientUnits="userSpaceOnUse">
<stop stop-color="#363636"/>
<stop offset="0.28" stop-color="#232323"/>
<stop offset="0.5" stop-color="#1A1A1A"/>
<stop offset="1"/>
</linearGradient>
<linearGradient id="paint11_linear_106_142" x1="135.189" y1="29.74" x2="135.189" y2="0" gradientUnits="userSpaceOnUse">
<stop offset="0.15" stop-color="#2A2F32"/>
<stop offset="0.83" stop-color="#3E4346"/>
</linearGradient>
<linearGradient id="paint12_linear_106_142" x1="135.2" y1="27.98" x2="135.2" y2="24.54" gradientUnits="userSpaceOnUse">
<stop stop-color="#7E7E7E"/>
<stop offset="0.75"/>
</linearGradient>
<radialGradient id="paint13_radial_106_142" cx="0" cy="0" r="1" gradientUnits="userSpaceOnUse" gradientTransform="translate(135.19 26.26) rotate(180) scale(1.34998 1.35)">
<stop stop-color="#454545"/>
<stop offset="0.27" stop-color="#222222"/>
<stop offset="0.47" stop-color="#0D0D0D"/>
<stop offset="0.5" stop-color="#1B1B1B"/>
<stop offset="0.56" stop-color="#373737"/>
<stop offset="0.63" stop-color="#4C4C4C"/>
<stop offset="0.7" stop-color="#585858"/>
<stop offset="0.77" stop-color="#5C5C5C"/>
<stop offset="0.89" stop-color="#1A1A1A"/>
<stop offset="0.95"/>
</radialGradient>
<linearGradient id="paint14_linear_106_142" x1="135.19" y1="26.67" x2="135.19" y2="25.84" gradientUnits="userSpaceOnUse">
<stop offset="0.43" stop-color="#363636"/>
<stop offset="0.76" stop-color="#232323"/>
<stop offset="1" stop-color="#1A1A1A"/>
</linearGradient>
<linearGradient id="paint15_linear_106_142" x1="135.2" y1="26.89" x2="135.2" y2="25.63" gradientUnits="userSpaceOnUse">
<stop stop-color="#363636"/>
<stop offset="0.28" stop-color="#232323"/>
<stop offset="0.5" stop-color="#1A1A1A"/>
<stop offset="1"/>
</linearGradient>
<linearGradient id="paint16_linear_106_142" x1="135.2" y1="5.21002" x2="135.2" y2="1.77002" gradientUnits="userSpaceOnUse">
<stop stop-color="#7E7E7E"/>
<stop offset="0.75"/>
</linearGradient>
<radialGradient id="paint17_radial_106_142" cx="0" cy="0" r="1" gradientUnits="userSpaceOnUse" gradientTransform="translate(135.19 3.49001) rotate(180) scale(1.34998 1.35)">
<stop stop-color="#454545"/>
<stop offset="0.27" stop-color="#222222"/>
<stop offset="0.47" stop-color="#0D0D0D"/>
<stop offset="0.5" stop-color="#1B1B1B"/>
<stop offset="0.56" stop-color="#373737"/>
<stop offset="0.63" stop-color="#4C4C4C"/>
<stop offset="0.7" stop-color="#585858"/>
<stop offset="0.77" stop-color="#5C5C5C"/>
<stop offset="0.89" stop-color="#1A1A1A"/>
<stop offset="0.95"/>
</radialGradient>
<linearGradient id="paint18_linear_106_142" x1="135.19" y1="3.91" x2="135.19" y2="3.07001" gradientUnits="userSpaceOnUse">
<stop offset="0.43" stop-color="#363636"/>
<stop offset="0.76" stop-color="#232323"/>
<stop offset="1" stop-color="#1A1A1A"/>
</linearGradient>
<linearGradient id="paint19_linear_106_142" x1="135.2" y1="4.13" x2="135.2" y2="2.86" gradientUnits="userSpaceOnUse">
<stop stop-color="#363636"/>
<stop offset="0.28" stop-color="#232323"/>
<stop offset="0.5" stop-color="#1A1A1A"/>
<stop offset="1"/>
</linearGradient>
</defs>
</svg>
