<svg width="107" height="42" viewBox="0 0 107 42" fill="none" xmlns="http://www.w3.org/2000/svg">
<g filter="url(#filter0_i_106_164)">
<path d="M22.59 8.14001H105.09L106.91 9.96001V31.59L105.09 33.43H22.59L20.77 31.6V9.96001L22.59 8.14001Z" fill="url(#paint0_linear_106_164)"/>
</g>
<g filter="url(#filter1_i_106_164)">
<path d="M22.3501 8.14001H42.9501V21.26L50.7201 29.79H56.1301L58.0601 31.72H65.9801L68.8301 33.43H22.3501L20.8501 31.93V9.64001L22.3501 8.14001Z" fill="url(#paint1_linear_106_164)"/>
</g>
<path d="M44.8098 31.26C45.7929 31.26 46.5898 30.4631 46.5898 29.48C46.5898 28.4969 45.7929 27.7 44.8098 27.7C43.8267 27.7 43.0298 28.4969 43.0298 29.48C43.0298 30.4631 43.8267 31.26 44.8098 31.26Z" fill="url(#paint2_linear_106_164)"/>
<path d="M44.8097 30.88C45.5829 30.88 46.2097 30.2532 46.2097 29.48C46.2097 28.7068 45.5829 28.08 44.8097 28.08C44.0365 28.08 43.4097 28.7068 43.4097 29.48C43.4097 30.2532 44.0365 30.88 44.8097 30.88Z" fill="url(#paint3_radial_106_164)"/>
<path d="M44.8099 29.91C45.0474 29.91 45.2399 29.7175 45.2399 29.48C45.2399 29.2425 45.0474 29.05 44.8099 29.05C44.5724 29.05 44.3799 29.2425 44.3799 29.48C44.3799 29.7175 44.5724 29.91 44.8099 29.91Z" fill="url(#paint4_linear_106_164)"/>
<path d="M44.1597 29.48C44.1596 29.6533 44.2278 29.8197 44.3495 29.9432C44.4711 30.0667 44.6364 30.1374 44.8097 30.14C44.9847 30.14 45.1526 30.0705 45.2764 29.9467C45.4001 29.8229 45.4697 29.6551 45.4697 29.48C45.4697 29.305 45.4001 29.1371 45.2764 29.0133C45.1526 28.8895 44.9847 28.82 44.8097 28.82C44.6364 28.8226 44.4711 28.8933 44.3495 29.0168C44.2278 29.1403 44.1596 29.3067 44.1597 29.48ZM44.3797 29.48C44.3797 29.395 44.4049 29.3118 44.4521 29.2411C44.4994 29.1704 44.5666 29.1153 44.6451 29.0827C44.7237 29.0502 44.8102 29.0417 44.8936 29.0583C44.977 29.0749 45.0536 29.1158 45.1137 29.1759C45.1739 29.2361 45.2148 29.3127 45.2314 29.3961C45.248 29.4795 45.2395 29.566 45.2069 29.6446C45.1744 29.7231 45.1193 29.7903 45.0486 29.8375C44.9779 29.8848 44.8947 29.91 44.8097 29.91C44.6956 29.91 44.5863 29.8647 44.5056 29.7841C44.425 29.7034 44.3797 29.5941 44.3797 29.48Z" fill="url(#paint5_linear_106_164)"/>
<g filter="url(#filter2_i_106_164)">
<path d="M105.41 33.43H101.83V20.3L94.0597 11.77H88.6297L86.6997 9.84001H78.8297L75.9697 8.14001H105.46C106.05 8.72001 106.38 9.05001 106.96 9.64001V31.92L105.41 33.43Z" fill="url(#paint6_linear_106_164)"/>
</g>
<path d="M103.59 12.84C104.396 12.84 105.05 12.1863 105.05 11.38C105.05 10.5737 104.396 9.91998 103.59 9.91998C102.784 9.91998 102.13 10.5737 102.13 11.38C102.13 12.1863 102.784 12.84 103.59 12.84Z" fill="url(#paint7_linear_106_164)"/>
<path d="M103.59 12.53C104.225 12.53 104.74 12.0151 104.74 11.38C104.74 10.7448 104.225 10.23 103.59 10.23C102.955 10.23 102.44 10.7448 102.44 11.38C102.44 12.0151 102.955 12.53 103.59 12.53Z" fill="url(#paint8_radial_106_164)"/>
<path d="M103.59 11.73C103.783 11.73 103.94 11.5733 103.94 11.38C103.94 11.1867 103.783 11.03 103.59 11.03C103.396 11.03 103.24 11.1867 103.24 11.38C103.24 11.5733 103.396 11.73 103.59 11.73Z" fill="url(#paint9_linear_106_164)"/>
<path d="M103.05 11.43C103.05 11.5368 103.081 11.6412 103.141 11.73C103.2 11.8188 103.284 11.888 103.383 11.9289C103.482 11.9698 103.59 11.9805 103.695 11.9596C103.8 11.9388 103.896 11.8874 103.972 11.8118C104.047 11.7363 104.099 11.6401 104.119 11.5354C104.14 11.4306 104.13 11.322 104.089 11.2234C104.048 11.1247 103.979 11.0404 103.89 10.981C103.801 10.9217 103.697 10.89 103.59 10.89C103.447 10.89 103.309 10.9469 103.208 11.0482C103.107 11.1494 103.05 11.2868 103.05 11.43ZM103.23 11.43C103.23 11.3832 103.239 11.3368 103.257 11.2937C103.276 11.2506 103.302 11.2115 103.336 11.1789C103.369 11.1463 103.409 11.1207 103.453 11.1037C103.496 11.0867 103.543 11.0787 103.59 11.08C103.683 11.08 103.772 11.1169 103.837 11.1825C103.903 11.2482 103.94 11.3372 103.94 11.43C103.94 11.5228 103.903 11.6119 103.837 11.6775C103.772 11.7431 103.683 11.78 103.59 11.78C103.543 11.7814 103.496 11.7733 103.453 11.7563C103.409 11.7393 103.369 11.7137 103.336 11.6811C103.302 11.6485 103.276 11.6094 103.257 11.5663C103.239 11.5232 103.23 11.4768 103.23 11.43Z" fill="url(#paint10_linear_106_164)"/>
<path d="M20.8301 37.72C17.4797 37.72 14.2046 36.7264 11.4188 34.8651C8.63303 33.0037 6.46178 30.358 5.17963 27.2626C3.89748 24.1672 3.56201 20.7612 4.21564 17.4751C4.86927 14.1891 6.48265 11.1707 8.85175 8.80158C11.2208 6.43248 14.2393 4.81911 17.5253 4.16547C20.8113 3.51184 24.2174 3.8473 27.3128 5.12945C30.4082 6.4116 33.0538 8.58284 34.9152 11.3686C36.7766 14.1544 37.7701 17.4296 37.7701 20.78C37.7543 25.2679 35.9645 29.5675 32.791 32.7409C29.6176 35.9143 25.318 37.7042 20.8301 37.72Z" fill="#262626"/>
<path d="M20.8298 4.42998C24.0556 4.42998 27.2089 5.38655 29.8911 7.17871C32.5733 8.97088 34.6638 11.5182 35.8983 14.4984C37.1327 17.4787 37.4557 20.7581 36.8264 23.9219C36.1971 27.0857 34.6437 29.9919 32.3627 32.2729C30.0817 34.5539 27.1755 36.1073 24.0117 36.7366C20.8479 37.3659 17.5685 37.0429 14.5882 35.8085C11.6079 34.574 9.06066 32.4835 7.26849 29.8013C5.47633 27.1192 4.51977 23.9658 4.51977 20.74C4.52507 16.4159 6.24513 12.2705 9.3027 9.21291C12.3603 6.15533 16.5057 4.43527 20.8298 4.42998ZM20.8298 3.16998C17.3548 3.16998 13.9578 4.20044 11.0684 6.13106C8.17902 8.06167 5.92703 10.8057 4.5972 14.0162C3.26737 17.2267 2.91944 20.7595 3.59738 24.1677C4.27532 27.576 5.9487 30.7066 8.40591 33.1638C10.8631 35.6211 13.9938 37.2944 17.402 37.9724C20.8103 38.6503 24.343 38.3024 27.5535 36.9725C30.764 35.6427 33.5081 33.3907 35.4387 30.5013C37.3693 27.612 38.3998 24.215 38.3998 20.74C38.3839 16.0887 36.5264 11.633 33.2337 8.34779C29.941 5.06257 25.4811 3.21524 20.8298 3.20998V3.16998Z" fill="#808080"/>
<g filter="url(#filter3_di_106_164)">
<path d="M20.78 35.56C28.9428 35.56 35.56 28.9428 35.56 20.78C35.56 12.6172 28.9428 6 20.78 6C12.6172 6 6 12.6172 6 20.78C6 28.9428 12.6172 35.56 20.78 35.56Z" fill="url(#paint11_linear_106_164)" shape-rendering="crispEdges"/>
</g>
<g filter="url(#filter4_i_106_164)">
<path d="M20.5897 12.58H20.9897C21.0716 12.6651 21.1584 12.7452 21.2497 12.82C21.5701 13.1148 21.9544 13.3314 22.3725 13.4529C22.7907 13.5743 23.2312 13.5973 23.6597 13.52C24.3239 13.3398 24.9325 12.996 25.4297 12.52H25.7297L27.7297 14.52C27.8815 14.6829 27.966 14.8973 27.966 15.12C27.966 15.3427 27.8815 15.5571 27.7297 15.72C27.439 16.0337 27.229 16.4133 27.1175 16.8261C27.006 17.2389 26.9965 17.6727 27.0897 18.09C27.1891 18.5844 27.3193 19.072 27.4797 19.55C27.7766 20.2909 27.9749 21.0675 28.0697 21.86C28.1891 22.6469 28.0878 23.4514 27.7771 24.1841C27.4663 24.9168 26.9584 25.5489 26.3097 26.01C25.8925 26.3103 25.4548 26.581 24.9997 26.82C24.1997 27.23 23.3797 27.59 22.5697 27.99C21.9888 28.2264 21.4887 28.6258 21.1297 29.14C21.0912 29.2157 21.0325 29.2792 20.9602 29.3236C20.8878 29.368 20.8046 29.3915 20.7197 29.3915C20.6348 29.3915 20.5516 29.368 20.4792 29.3236C20.4069 29.2792 20.3482 29.2157 20.3097 29.14C20.0149 28.7053 19.6068 28.3595 19.1297 28.14C18.7697 27.94 18.3997 27.78 18.0397 27.6C17.2197 27.18 16.3797 26.8 15.5897 26.33C15.0896 26.0614 14.648 25.6958 14.2908 25.2545C13.9337 24.8132 13.6681 24.3052 13.5097 23.76C13.2834 22.9547 13.2627 22.1054 13.4497 21.29C13.6297 20.52 13.9197 19.78 14.1597 19.03C14.4126 18.4504 14.4887 17.809 14.3784 17.1864C14.2681 16.5637 13.9763 15.9875 13.5397 15.53C13.4395 15.4289 13.3834 15.2923 13.3834 15.15C13.3834 15.0077 13.4395 14.8711 13.5397 14.77C14.2897 14.01 15.0497 13.27 15.8097 12.52H16.1397C16.4258 12.7568 16.7301 12.9708 17.0497 13.16C17.6164 13.4854 18.278 13.6053 18.9229 13.4997C19.5677 13.394 20.1564 13.0692 20.5897 12.58ZM18.1297 23.43C18.1297 23.91 18.4797 24.15 18.8697 23.95C19.4397 23.67 19.9997 23.37 20.5597 23.07C20.6327 23.0279 20.7154 23.0057 20.7997 23.0057C20.884 23.0057 20.9667 23.0279 21.0397 23.07L22.6397 23.92C22.8497 24.03 23.0797 24.11 23.2397 23.92C23.3671 23.7661 23.4314 23.5695 23.4197 23.37C23.3531 22.7722 23.2563 22.1781 23.1297 21.59C23.1031 21.4963 23.1051 21.3967 23.1354 21.3041C23.1656 21.2115 23.2229 21.13 23.2997 21.07C23.7397 20.66 24.1797 20.24 24.5797 19.8C24.6487 19.7296 24.7008 19.6443 24.7319 19.5508C24.7631 19.4572 24.7726 19.3578 24.7597 19.26C24.7088 19.1702 24.6399 19.0919 24.5573 19.0299C24.4747 18.968 24.3802 18.9238 24.2797 18.9C23.6797 18.78 23.0697 18.73 22.4697 18.62C22.3169 18.5796 22.1848 18.4833 22.0997 18.35C21.8197 17.82 21.5597 17.28 21.2997 16.73C21.1897 16.51 21.0297 16.3 20.7797 16.36C20.5788 16.4184 20.4073 16.5506 20.2997 16.73C19.9997 17.27 19.7597 17.83 19.4697 18.37C19.3918 18.4931 19.2704 18.5823 19.1297 18.62C18.5297 18.72 17.9097 18.78 17.3097 18.9C17.1081 18.9564 16.9317 19.0799 16.8097 19.25C16.6797 19.46 16.8097 19.66 16.9997 19.82C17.4397 20.25 17.8897 20.67 18.3097 21.11C18.4063 21.232 18.456 21.3846 18.4497 21.54C18.3497 22.14 18.2297 22.79 18.1297 23.43Z" fill="url(#paint12_linear_106_164)"/>
</g>
<defs>
<filter id="filter0_i_106_164" x="20.77" y="8.14001" width="86.1401" height="25.29" filterUnits="userSpaceOnUse" color-interpolation-filters="sRGB">
<feFlood flood-opacity="0" result="BackgroundImageFix"/>
<feBlend mode="normal" in="SourceGraphic" in2="BackgroundImageFix" result="shape"/>
<feColorMatrix in="SourceAlpha" type="matrix" values="0 0 0 0 0 0 0 0 0 0 0 0 0 0 0 0 0 0 127 0" result="hardAlpha"/>
<feOffset/>
<feGaussianBlur stdDeviation="3"/>
<feComposite in2="hardAlpha" operator="arithmetic" k2="-1" k3="1"/>
<feColorMatrix type="matrix" values="0 0 0 0 0.227451 0 0 0 0 0.913725 0 0 0 0 0.596078 0 0 0 1 0"/>
<feBlend mode="normal" in2="shape" result="effect1_innerShadow_106_164"/>
</filter>
<filter id="filter1_i_106_164" x="20.8501" y="8.14001" width="47.98" height="25.29" filterUnits="userSpaceOnUse" color-interpolation-filters="sRGB">
<feFlood flood-opacity="0" result="BackgroundImageFix"/>
<feBlend mode="normal" in="SourceGraphic" in2="BackgroundImageFix" result="shape"/>
<feColorMatrix in="SourceAlpha" type="matrix" values="0 0 0 0 0 0 0 0 0 0 0 0 0 0 0 0 0 0 127 0" result="hardAlpha"/>
<feOffset/>
<feGaussianBlur stdDeviation="1"/>
<feComposite in2="hardAlpha" operator="arithmetic" k2="-1" k3="1"/>
<feColorMatrix type="matrix" values="0 0 0 0 1 0 0 0 0 1 0 0 0 0 1 0 0 0 1 0"/>
<feBlend mode="normal" in2="shape" result="effect1_innerShadow_106_164"/>
</filter>
<filter id="filter2_i_106_164" x="75.9697" y="8.14001" width="30.9897" height="25.29" filterUnits="userSpaceOnUse" color-interpolation-filters="sRGB">
<feFlood flood-opacity="0" result="BackgroundImageFix"/>
<feBlend mode="normal" in="SourceGraphic" in2="BackgroundImageFix" result="shape"/>
<feColorMatrix in="SourceAlpha" type="matrix" values="0 0 0 0 0 0 0 0 0 0 0 0 0 0 0 0 0 0 127 0" result="hardAlpha"/>
<feOffset/>
<feGaussianBlur stdDeviation="1"/>
<feComposite in2="hardAlpha" operator="arithmetic" k2="-1" k3="1"/>
<feColorMatrix type="matrix" values="0 0 0 0 1 0 0 0 0 1 0 0 0 0 1 0 0 0 1 0"/>
<feBlend mode="normal" in2="shape" result="effect1_innerShadow_106_164"/>
</filter>
<filter id="filter3_di_106_164" x="0" y="0" width="41.5601" height="41.56" filterUnits="userSpaceOnUse" color-interpolation-filters="sRGB">
<feFlood flood-opacity="0" result="BackgroundImageFix"/>
<feColorMatrix in="SourceAlpha" type="matrix" values="0 0 0 0 0 0 0 0 0 0 0 0 0 0 0 0 0 0 127 0" result="hardAlpha"/>
<feOffset/>
<feGaussianBlur stdDeviation="3"/>
<feComposite in2="hardAlpha" operator="out"/>
<feColorMatrix type="matrix" values="0 0 0 0 0 0 0 0 0 0 0 0 0 0 0 0 0 0 1 0"/>
<feBlend mode="normal" in2="BackgroundImageFix" result="effect1_dropShadow_106_164"/>
<feBlend mode="normal" in="SourceGraphic" in2="effect1_dropShadow_106_164" result="shape"/>
<feColorMatrix in="SourceAlpha" type="matrix" values="0 0 0 0 0 0 0 0 0 0 0 0 0 0 0 0 0 0 127 0" result="hardAlpha"/>
<feOffset/>
<feGaussianBlur stdDeviation="2"/>
<feComposite in2="hardAlpha" operator="arithmetic" k2="-1" k3="1"/>
<feColorMatrix type="matrix" values="0 0 0 0 1 0 0 0 0 1 0 0 0 0 1 0 0 0 0.4 0"/>
<feBlend mode="normal" in2="shape" result="effect2_innerShadow_106_164"/>
</filter>
<filter id="filter4_i_106_164" x="13.3232" y="12.52" width="14.7949" height="16.8715" filterUnits="userSpaceOnUse" color-interpolation-filters="sRGB">
<feFlood flood-opacity="0" result="BackgroundImageFix"/>
<feBlend mode="normal" in="SourceGraphic" in2="BackgroundImageFix" result="shape"/>
<feColorMatrix in="SourceAlpha" type="matrix" values="0 0 0 0 0 0 0 0 0 0 0 0 0 0 0 0 0 0 127 0" result="hardAlpha"/>
<feOffset/>
<feGaussianBlur stdDeviation="2.5"/>
<feComposite in2="hardAlpha" operator="arithmetic" k2="-1" k3="1"/>
<feColorMatrix type="matrix" values="0 0 0 0 1 0 0 0 0 1 0 0 0 0 1 0 0 0 1 0"/>
<feBlend mode="normal" in2="shape" result="effect1_innerShadow_106_164"/>
</filter>
<linearGradient id="paint0_linear_106_164" x1="135.35" y1="88.87" x2="45.67" y2="3.49001" gradientUnits="userSpaceOnUse">
<stop offset="0.16" stop-opacity="0.6"/>
<stop offset="1" stop-opacity="0.6"/>
</linearGradient>
<linearGradient id="paint1_linear_106_164" x1="44.8501" y1="33.42" x2="44.8501" y2="8.14001" gradientUnits="userSpaceOnUse">
<stop offset="0.15" stop-color="#2A2F32"/>
<stop offset="0.83" stop-color="#3E4346"/>
</linearGradient>
<linearGradient id="paint2_linear_106_164" x1="44.8098" y1="31.26" x2="44.8098" y2="27.7" gradientUnits="userSpaceOnUse">
<stop stop-color="#7E7E7E"/>
<stop offset="0.75"/>
</linearGradient>
<radialGradient id="paint3_radial_106_164" cx="0" cy="0" r="1" gradientUnits="userSpaceOnUse" gradientTransform="translate(44.8097 29.48) scale(1.40001 1.4)">
<stop stop-color="#454545"/>
<stop offset="0.27" stop-color="#222222"/>
<stop offset="0.47" stop-color="#0D0D0D"/>
<stop offset="0.5" stop-color="#1B1B1B"/>
<stop offset="0.56" stop-color="#373737"/>
<stop offset="0.63" stop-color="#4C4C4C"/>
<stop offset="0.7" stop-color="#585858"/>
<stop offset="0.77" stop-color="#5C5C5C"/>
<stop offset="0.89" stop-color="#1A1A1A"/>
<stop offset="0.95"/>
</radialGradient>
<linearGradient id="paint4_linear_106_164" x1="44.8099" y1="29.91" x2="44.8099" y2="29.04" gradientUnits="userSpaceOnUse">
<stop offset="0.43" stop-color="#363636"/>
<stop offset="0.76" stop-color="#232323"/>
<stop offset="1" stop-color="#1A1A1A"/>
</linearGradient>
<linearGradient id="paint5_linear_106_164" x1="44.8097" y1="30.14" x2="44.8097" y2="28.82" gradientUnits="userSpaceOnUse">
<stop stop-color="#363636"/>
<stop offset="0.28" stop-color="#232323"/>
<stop offset="0.5" stop-color="#1A1A1A"/>
<stop offset="1"/>
</linearGradient>
<linearGradient id="paint6_linear_106_164" x1="91.4097" y1="8.14001" x2="91.4097" y2="33.42" gradientUnits="userSpaceOnUse">
<stop offset="0.17" stop-color="#3E4346"/>
<stop offset="0.85" stop-color="#2A2F32"/>
</linearGradient>
<linearGradient id="paint7_linear_106_164" x1="103.59" y1="12.84" x2="103.59" y2="9.91998" gradientUnits="userSpaceOnUse">
<stop stop-color="#7E7E7E"/>
<stop offset="0.75"/>
</linearGradient>
<radialGradient id="paint8_radial_106_164" cx="0" cy="0" r="1" gradientUnits="userSpaceOnUse" gradientTransform="translate(103.59 11.38) scale(1.15001 1.14999)">
<stop stop-color="#454545"/>
<stop offset="0.27" stop-color="#222222"/>
<stop offset="0.47" stop-color="#0D0D0D"/>
<stop offset="0.5" stop-color="#1B1B1B"/>
<stop offset="0.56" stop-color="#373737"/>
<stop offset="0.63" stop-color="#4C4C4C"/>
<stop offset="0.7" stop-color="#585858"/>
<stop offset="0.77" stop-color="#5C5C5C"/>
<stop offset="0.89" stop-color="#1A1A1A"/>
<stop offset="0.95"/>
</radialGradient>
<linearGradient id="paint9_linear_106_164" x1="103.59" y1="11.74" x2="103.59" y2="11.03" gradientUnits="userSpaceOnUse">
<stop offset="0.43" stop-color="#363636"/>
<stop offset="0.76" stop-color="#232323"/>
<stop offset="1" stop-color="#1A1A1A"/>
</linearGradient>
<linearGradient id="paint10_linear_106_164" x1="103.59" y1="11.92" x2="103.59" y2="10.84" gradientUnits="userSpaceOnUse">
<stop stop-color="#363636"/>
<stop offset="0.28" stop-color="#232323"/>
<stop offset="0.5" stop-color="#1A1A1A"/>
<stop offset="1"/>
</linearGradient>
<linearGradient id="paint11_linear_106_164" x1="-6.56" y1="-5.25001" x2="27.73" y2="27.4" gradientUnits="userSpaceOnUse">
<stop offset="0.16" stop-opacity="0.4"/>
<stop offset="1" stop-opacity="0.4"/>
</linearGradient>
<linearGradient id="paint12_linear_106_164" x1="20.7797" y1="29.46" x2="20.7797" y2="12.57" gradientUnits="userSpaceOnUse">
<stop offset="0.15" stop-color="#2A2F32"/>
<stop offset="0.88" stop-color="#595D60"/>
</linearGradient>
</defs>
</svg>
